<svg xmlns="http://www.w3.org/2000/svg" viewBox="0 0 297.78 70.65"><defs><style>.cls-1,.cls-2{fill:#003781;}.cls-1{fill-rule:evenodd;}</style></defs><g id="Capa_2" data-name="Capa 2"><g id="svg19"><path id="A" class="cls-1" d="M28.05,40H16.69l6-17.12ZM11.36,57.44,14.91,47H29.55L33,57H45.09L32.32,17.44C31.61,14.84,30.19,14,27,14H9.57v4h1.08c2.13,0,3.2.59,3.2,2,0,.89,0,1.48-1.07,3.62L0,57.49"/><path id="l" class="cls-2" d="M60.57,57V17.16c0-2.07-1.42-3.16-3.9-3.16H45.57v4h.59c2.13-.57,3.41,1.87,3.41,1.87V57"/><path id="l1" class="cls-2" d="M80.57,57V17.16c0-2.07-1.42-3.16-3.9-3.16H65.57v4h.48c2.13-.57,3.52,1.87,3.52,1.87V57"/><path id="i" class="cls-1" d="M100.49,17.67c0-2.85-2.48-4.52-6.39-4.52-4.26,0-6.39,1.67-6.39,4.52s2.13,4.62,6.39,4.62c3.91,0,6.39-1.71,6.39-4.62M100.57,57V27.19c0-2-1.42-3.19-3.55-3.19H85.57v4h.72c2.13.17,3.28,2.71,3.28,2.71V57"/><path id="a-2" data-name="a" class="cls-1" d="M126.57,41v6.72a10.79,10.79,0,0,1-6.75,2.91c-2.13,0-3.19-.9-3.19-3.32,0-2.66.71-3.68,3.19-4.52a32.28,32.28,0,0,1,6.75-1.52M111,33.56l1.06-.37a35.14,35.14,0,0,1,6.75-1.7c1.06-.13,2.48-.25,3.2-.25,3.55,0,4.61,1,4.61,3.87v.81s-6.55,1-9.39,1.48a32.58,32.58,0,0,0-4.26,1.24c-4.62,1.61-6.75,4.71-6.75,9.57,0,6.1,2.84,9,9.24,9a14.35,14.35,0,0,0,6.74-1.49A33.08,33.08,0,0,0,127.57,53v1C126.77,56,130,57,130,57h10.61V54h-.31c-2.13-.4-3.69-2.91-3.69-2.91V35.27c0-8.24-3.19-11-12.43-11a42.67,42.67,0,0,0-8.87.9,28.72,28.72,0,0,0-7.46,2.48"/><path id="n" class="cls-1" d="M157.57,57V35.14c2.5-2,4.29-2.79,6.79-2.79s3.21.93,3.21,4.21V57h11V34.5c0-4.63-.72-6.63-2.16-8.37-1.81-1.71-4-2.51-7.22-2.51-4.32,0-7.57,1.4-12.62,5.23V27.08c0-2.06-1.08-3.08-3.24-3.08H142.57v4h.53c2.13.17,3.47,2.71,3.47,2.71V57"/><g id="z"><path id="path8" class="cls-2" d="M212.57,51H196l15.58-19.39V25h-23c-2.91,0-4,1-4,3.3V34h4v-.53c0-1.76,1-2.47,3-2.47h8l-15,19.35V57h28"/></g><path class="cls-1" d="M267.23,51.21V22.51c0-2.32-1.11-3.08-3.62-3.08H256.1v3.18h.35c1.46,0,2,.46,2,1.88V51.21Z"/><path class="cls-1" d="M271.2,51.21h7.95V29.64c0-2.18-1.1-3.06-3.56-3.06H271.2Z"/><path class="cls-1" d="M253.72,51.21V26.58h-4.38c-2.47,0-3.56.88-3.56,3.06V51.21Z"/><path class="cls-2" d="M262.46,7a28.33,28.33,0,1,1-28.32,28.32A28.32,28.32,0,0,1,262.46,7m0-7a35.33,35.33,0,1,0,35.32,35.32A35.36,35.36,0,0,0,262.46,0Z"/></g></g></svg>