<svg xmlns="http://www.w3.org/2000/svg" viewBox="0 0 77.78 70"><defs><style>.cls-1{fill:#ff1721;}.cls-2{fill:#fff;}</style></defs><g id="Capa_2" data-name="Capa 2"><g id="svg19"><polygon id="switch" class="cls-1" points="48.2 38.41 77.78 0 73.41 0 43.73 38.41 48.2 38.41"/><path id="axa" class="cls-2" d="M59.43,55.55c1.36,3.79,4.15,13.66,5.26,14.45H57.36A12.61,12.61,0,0,0,57,67.41c-.31-1.13-3-9.66-3-9.66H42.39l-1.83,2.6s2.2,6.88,2.34,7.22c.24.61,1.29,2.43,1.29,2.43h-7s-.18-1-.25-1.49-.67-2.29-.67-2.29a21.17,21.17,0,0,0-2,2.55c-.43.81-.63,1.23-.63,1.23h-5.5s-.18-1-.25-1.49-.72-2.45-.72-2.45a27.84,27.84,0,0,0-2,2.68A13.42,13.42,0,0,0,24.51,70H19.07s1.53-1.46,2.07-2.09c.91-1.07,4.28-5.48,4.28-5.48l-1.35-4.68H12.51s-6.59,8.66-6.85,8.93A25,25,0,0,0,3.43,70H0V67.82a.86.86,0,0,1,.14-.13c.1-.08,5-6.15,9.49-12.14,4-5.22,7.82-10.3,8.16-10.78a34.39,34.39,0,0,0,2-3.7h6A25.29,25.29,0,0,0,26.09,44c.15.5,3.79,12.45,3.88,12.58L32,54,28.54,43.37a19.41,19.41,0,0,0-1.07-2.3h7a6.08,6.08,0,0,0,.23,1.9c.28.88,1.78,6.28,1.78,6.28s4.76-6,5-6.4a3.92,3.92,0,0,0,.59-1.78h5.82A17.94,17.94,0,0,0,45,44.21l-6.77,8.6L39,55.55c.07.26.12.44.12.46a5.86,5.86,0,0,0,.37-.46c1.59-2,8.8-11.46,9.23-12.27a18.9,18.9,0,0,0,1.18-2.21h5.67a14,14,0,0,0,.31,2.17ZM50.79,46.6c-.83,1.8-5.73,7.77-5.73,7.77h7.76s-1.5-4.64-1.77-5.69a8.61,8.61,0,0,1-.15-2C50.9,46.56,50.88,46.4,50.79,46.6ZM21,46.6c-.84,1.8-5.74,7.77-5.74,7.77H23s-1.51-4.64-1.77-5.69a8.61,8.61,0,0,1-.15-2C21.06,46.56,21,46.4,21,46.6ZM32.64,64.71l2.14-2.94c-.2-.21-1.4-3.86-1.4-3.86l-2.07,2.68Z"/></g></g></svg>