<svg xmlns="http://www.w3.org/2000/svg" viewBox="0 0 1065.98 690.62"><defs><style>.cls-1{fill:#fff;}.cls-2{fill:#e6e6e6;}.cls-3{fill:#3f3d56;}.cls-4{fill:#2f2e41;}.cls-5{fill:#ffb8b8;}.cls-6{fill:#6c63ff;}.cls-7{fill:#a0616a;}.cls-8{fill:#d0cde1;}.cls-9{fill:#f2f2f2;}</style></defs><g id="Capa_2" data-name="Capa 2"><g id="b5ecd551-b8d9-47b1-bd91-255ff33e7450"><path class="cls-1" d="M372.59,387.23a4,4,0,0,1-3.62-2.3c-1-2.13-2-4.3-2.9-6.45a4,4,0,0,1,2.1-5.26l2.11-.9a4,4,0,0,1,1.58-.33,4,4,0,0,1,3.68,2.43c.87,2,1.8,4.09,2.75,6.13a4,4,0,0,1-1.92,5.32l-2.08,1A4,4,0,0,1,372.59,387.23Z"/><path class="cls-1" d="M648,484a4.05,4.05,0,0,1-1.29-.21,4,4,0,0,1-2.3-2l-1-2.07a4,4,0,0,1,1.83-5.35c4-2,8.09-4.14,12-6.4a4,4,0,0,1,5.47,1.46l1.15,2a4,4,0,0,1-1.47,5.46c-4.1,2.37-8.34,4.63-12.61,6.73A4,4,0,0,1,648,484Zm24.27-14a4,4,0,0,1-3.32-1.77l-1.28-1.9a4,4,0,0,1,1.08-5.56c3.75-2.51,7.45-5.19,11-8a4,4,0,0,1,2.45-.84,4,4,0,0,1,3.16,1.55l1.42,1.81a4,4,0,0,1-.7,5.61c-3.76,2.92-7.65,5.74-11.59,8.39A4,4,0,0,1,672.3,470Zm21.9-17.22a3.94,3.94,0,0,1-2.75-1.32l-1.54-1.72a4,4,0,0,1,.31-5.64c3.36-3,6.66-6.18,9.81-9.41a4,4,0,0,1,5.66-.08l1.64,1.6a4,4,0,0,1,.08,5.66c-3.31,3.4-6.78,6.73-10.32,9.9a4,4,0,0,1-2.66,1ZM714,432.66a4,4,0,0,1-2.59-1l-1.75-1.49a4,4,0,0,1-.47-5.63c2.92-3.45,5.75-7,8.42-10.66a4,4,0,0,1,2.62-1.59,4,4,0,0,1,.6,0,4,4,0,0,1,2.37.78l1.85,1.36a4,4,0,0,1,.86,5.59c-2.81,3.82-5.79,7.59-8.86,11.21a4,4,0,0,1-2.72,1.41Zm16.59-22.57a4,4,0,0,1-2.14-.62l-1.94-1.23a4,4,0,0,1-1.76-2.51,3.94,3.94,0,0,1,.52-3c2.42-3.81,4.73-7.75,6.89-11.72a4,4,0,0,1,5.42-1.61l2,1.1a4,4,0,0,1,1.61,5.42c-2.26,4.16-4.69,8.31-7.24,12.32A4,4,0,0,1,730.55,410.09Zm13.36-24.63a3.86,3.86,0,0,1-1.66-.37l-2.09-.95a4,4,0,0,1-2-5.3c1.88-4.09,3.63-8.32,5.23-12.55a4,4,0,0,1,3.75-2.59,3.94,3.94,0,0,1,1.41.26l2.15.81a4,4,0,0,1,2.33,5.15c-1.67,4.43-3.52,8.88-5.5,13.2a4.06,4.06,0,0,1-2.24,2.09A4.17,4.17,0,0,1,743.91,385.46ZM364.65,367.82a4,4,0,0,1-3.77-2.67c-1.57-4.48-3-9.07-4.27-13.65a4,4,0,0,1,2.79-4.92l2.22-.61a4.29,4.29,0,0,1,1.06-.14,4.07,4.07,0,0,1,2,.52,4,4,0,0,1,1.88,2.42c1.2,4.35,2.56,8.71,4.06,13a4,4,0,0,1-2.45,5.1l-2.17.76A4.12,4.12,0,0,1,364.65,367.82Zm389.16-8.59a4.17,4.17,0,0,1-1.16-.17l-2.2-.67a4,4,0,0,1-2.68-5c1.31-4.33,2.48-8.75,3.48-13.15a4,4,0,0,1,3.9-3.11,3.86,3.86,0,0,1,.89.1l2.24.51a4,4,0,0,1,3,4.79c-1.06,4.63-2.29,9.28-3.65,13.83a4,4,0,0,1-1.94,2.37A4.08,4.08,0,0,1,753.81,359.23ZM357.21,340.8a4,4,0,0,1-3.92-3.21c-1-4.65-1.74-9.39-2.36-14.1a4,4,0,0,1,3.44-4.49l2.28-.3a4.73,4.73,0,0,1,.52,0,4,4,0,0,1,4,3.48c.59,4.48,1.34,9,2.24,13.41a4,4,0,0,1-3.13,4.71l-2.25.46A4.23,4.23,0,0,1,357.21,340.8ZM760,331.88a3.31,3.31,0,0,1-.62-.05l-2.27-.35a4,4,0,0,1-3.33-4.58c.7-4.46,1.26-9,1.65-13.5a4,4,0,0,1,4-3.65l.35,0,2.29.2a4,4,0,0,1,3.63,4.33c-.42,4.75-1,9.52-1.74,14.2a4,4,0,0,1-4,3.38ZM353.54,313a4,4,0,0,1-4-3.75c-.29-4.74-.42-9.56-.39-14.31a4,4,0,0,1,4-4l2.33,0a4,4,0,0,1,4,4c0,4.52.09,9.09.37,13.6a4,4,0,0,1-1,2.89,4,4,0,0,1-2.75,1.35l-2.3.14Zm406.57-9.1a4,4,0,0,1-3.92-4.07c.08-4.52,0-9.09-.22-13.61a4,4,0,0,1,1-2.88,4,4,0,0,1,2.77-1.31l2.3-.12h.2a4,4,0,0,1,4,3.79c.24,4.76.32,9.58.23,14.32a4,4,0,0,1-4,3.93ZM356,285.1h-.31l-2.29-.17a4,4,0,0,1-3.68-4.29c.36-4.73.89-9.52,1.57-14.22a4,4,0,0,1,4-3.43,5.46,5.46,0,0,1,.57,0l2.28.33a4,4,0,0,1,3.38,4.54c-.65,4.48-1.15,9-1.5,13.52A4,4,0,0,1,356,285.1Zm402.75-8.92a4,4,0,0,1-4-3.53c-.54-4.48-1.24-9-2.09-13.43a4,4,0,0,1,3.18-4.68l2.26-.43a4,4,0,0,1,4.68,3.18c.89,4.66,1.63,9.42,2.19,14.13a4,4,0,0,1-3.49,4.45l-2.28.28A3.87,3.87,0,0,1,758.79,276.18ZM360,257.66a4.09,4.09,0,0,1-.85-.09l-2.25-.49a4,4,0,0,1-3.06-4.75c1-4.64,2.18-9.31,3.49-13.87a4,4,0,0,1,5-2.73l2.2.64a4,4,0,0,1,2.74,4.95c-1.26,4.35-2.38,8.79-3.33,13.19A4,4,0,0,1,360,257.66ZM753.59,249a4,4,0,0,1-3.86-3c-1.15-4.36-2.47-8.74-3.92-13a4,4,0,0,1,2.51-5.08l2.18-.73a4,4,0,0,1,1.28-.21,4,4,0,0,1,3.79,2.71c1.53,4.51,2.91,9.11,4.12,13.7a4,4,0,0,1-2.85,4.88l-2.23.59A4,4,0,0,1,753.59,249ZM367.73,231a3.84,3.84,0,0,1-1.37-.24L364.2,230a4,4,0,0,1-2.39-5.12c1.62-4.46,3.42-8.92,5.35-13.26a4,4,0,0,1,2.21-2.11,4,4,0,0,1,1.44-.27,3.92,3.92,0,0,1,1.62.34l2.11.94a4,4,0,0,1,2,5.28c-1.83,4.12-3.54,8.36-5.09,12.6A4,4,0,0,1,367.73,231Zm377-8.32a4,4,0,0,1-3.69-2.47c-1.73-4.15-3.62-8.31-5.64-12.37a4,4,0,0,1,1.8-5.36l2.06-1a4,4,0,0,1,5.36,1.8c.72,1.45,1.42,2.9,2.11,4.37,1.34,2.85,2.62,5.76,3.82,8.64a4,4,0,0,1,0,3.06,4,4,0,0,1-2.17,2.17l-2.12.88A3.89,3.89,0,0,1,744.71,222.7ZM379,205.69a3.89,3.89,0,0,1-1.86-.47l-2-1.07a4,4,0,0,1-1.67-5.4c2.21-4.2,4.6-8.37,7.1-12.41a4,4,0,0,1,2.48-1.79,4,4,0,0,1,3,.49l2,1.21a4,4,0,0,1,1.29,5.51c-2.37,3.83-4.64,7.8-6.75,11.79A4,4,0,0,1,379,205.69Zm353.41-7.81a4,4,0,0,1-1-.13,4.06,4.06,0,0,1-2.44-1.85c-2.27-3.89-4.72-7.76-7.26-11.49a4,4,0,0,1,1.06-5.56l1.9-1.29a4,4,0,0,1,2.24-.7,4,4,0,0,1,3.31,1.75c2.67,3.92,5.24,8,7.64,12.09a4,4,0,0,1-1.43,5.47l-2,1.16A4,4,0,0,1,732.37,197.88ZM393.54,182.12a4,4,0,0,1-2.33-.75L389.34,180a4,4,0,0,1-.91-5.58c2.76-3.85,5.7-7.66,8.72-11.32a4,4,0,0,1,3.09-1.45,4,4,0,0,1,2.55.92l1.77,1.47a4,4,0,0,1,.53,5.63c-2.88,3.47-5.67,7.09-8.3,10.76A4,4,0,0,1,393.54,182.12ZM716.76,175a4,4,0,0,1-3.14-1.52c-2.79-3.55-5.74-7-8.77-10.38a4,4,0,0,1,.28-5.65l1.7-1.55a4.05,4.05,0,0,1,2.69-1h.2a4,4,0,0,1,2.76,1.31c3.19,3.52,6.3,7.2,9.23,10.93a4,4,0,0,1-.67,5.62l-1.81,1.42A3.94,3.94,0,0,1,716.76,175ZM411.2,160.78a4,4,0,0,1-2.75-1.1l-1.67-1.58a4,4,0,0,1-.14-5.66c3.26-3.43,6.69-6.8,10.19-10a4,4,0,0,1,5.65.25l1.56,1.69a4,4,0,0,1,1,2.88,4,4,0,0,1-1.29,2.77c-3.33,3.05-6.59,6.25-9.69,9.51A4,4,0,0,1,411.2,160.78Zm287-6.35a4,4,0,0,1-2.77-1.12c-3.26-3.12-6.66-6.17-10.11-9.06a4,4,0,0,1-1.41-2.72,3.93,3.93,0,0,1,.92-2.92l1.47-1.76a4,4,0,0,1,5.64-.5c3.63,3.05,7.21,6.26,10.62,9.54a4,4,0,0,1,.12,5.65L701,153.2a4,4,0,0,1-2.8,1.23ZM431.63,142.08l-.45,0a4,4,0,0,1-2.68-1.48l-1.43-1.8a4,4,0,0,1,.63-5.62c3.71-3,7.57-5.82,11.49-8.52a4,4,0,0,1,2.27-.71,3.51,3.51,0,0,1,.72.07,4,4,0,0,1,2.57,1.66l1.31,1.89a4,4,0,0,1-1,5.57c-3.73,2.57-7.41,5.3-10.92,8.09A4,4,0,0,1,431.63,142.08Zm245.3-5.42a4,4,0,0,1-2.35-.77c-3.66-2.66-7.45-5.21-11.26-7.6a4,4,0,0,1-1.27-5.51l1.22-2a4,4,0,0,1,2.5-1.78,4.5,4.5,0,0,1,.89-.1,4,4,0,0,1,2.13.61c4,2.51,8,5.2,11.84,8a4,4,0,0,1,1.6,2.61,4,4,0,0,1-.71,3L680.16,135A4,4,0,0,1,676.93,136.66ZM454.45,126.34a4,4,0,0,1-3.45-2l-1.17-2a4,4,0,0,1-.43-3,4,4,0,0,1,1.83-2.45c4.08-2.41,8.3-4.72,12.54-6.86a4,4,0,0,1,5.37,1.77l1,2a4,4,0,0,1-1.77,5.37c-4,2-8.05,4.23-11.93,6.53A4,4,0,0,1,454.45,126.34Zm199-4.39a4,4,0,0,1-1.88-.47c-4-2.13-8.09-4.15-12.2-6a4,4,0,0,1-2-5.29l.94-2.1a4,4,0,0,1,2.23-2.1,4,4,0,0,1,3.06.09c4.33,2,8.64,4.08,12.83,6.32a4,4,0,0,1,1.63,5.41l-1.08,2a4,4,0,0,1-2.37,1.94A4.17,4.17,0,0,1,653.45,122Zm-174.26-8.1a4,4,0,0,1-3.68-2.44l-.9-2.12a4,4,0,0,1,2.13-5.24c4.37-1.85,8.86-3.57,13.35-5.11a3.86,3.86,0,0,1,1.3-.22,4,4,0,0,1,3.78,2.7l.75,2.17a4,4,0,0,1-2.48,5.08c-4.25,1.47-8.52,3.1-12.69,4.87A4.09,4.09,0,0,1,479.19,113.85Zm149-3.28a4,4,0,0,1-1.39-.25c-4.24-1.57-8.58-3-12.9-4.29a4,4,0,0,1-2.71-5l.65-2.21A4,4,0,0,1,615.67,96a4.08,4.08,0,0,1,1.13.17c4.56,1.34,9.12,2.86,13.57,4.51a4,4,0,0,1,2.36,5.14l-.8,2.16A4,4,0,0,1,628.18,110.57Zm-122.79-5.74a4,4,0,0,1-3.86-3l-.6-2.22a4,4,0,0,1,2.83-4.91c4.57-1.23,9.26-2.32,13.92-3.24a4.13,4.13,0,0,1,.78-.08,4,4,0,0,1,3.92,3.23l.44,2.26a4,4,0,0,1-.6,3,4,4,0,0,1-2.55,1.7c-4.42.87-8.87,1.9-13.23,3.08A4.21,4.21,0,0,1,505.39,104.83Zm96.2-2.11a4.28,4.28,0,0,1-.87-.09c-4.41-1-8.9-1.82-13.37-2.5A4,4,0,0,1,584,95.58l.35-2.27a4,4,0,0,1,3.95-3.41,4,4,0,0,1,.6,0c4.7.71,9.43,1.59,14.06,2.62a4,4,0,0,1,3,4.78l-.5,2.24A4,4,0,0,1,601.59,102.72Zm-69-3.25a4,4,0,0,1-4-3.5l-.29-2.28a4,4,0,0,1,3.47-4.47c4.72-.59,9.52-1,14.27-1.29h.22a4,4,0,0,1,4,3.77l.12,2.3a4,4,0,0,1-3.76,4.22c-4.52.25-9.08.67-13.56,1.23A4.19,4.19,0,0,1,532.59,99.47Zm41.58-.9h-.33c-4.51-.37-9.08-.59-13.59-.64a4,4,0,0,1-4-4.06l0-2.3a4,4,0,0,1,4-3.94h0c4.75.06,9.56.29,14.3.67a4,4,0,0,1,3.66,4.32l-.19,2.29A4,4,0,0,1,574.17,98.57Z"/><path class="cls-1" d="M628.46,492.36a4,4,0,0,1-3.76-2.61l-.79-2.16a4,4,0,0,1,2.37-5.14c2.09-.77,4.2-1.59,6.26-2.43a4,4,0,0,1,1.51-.3,4,4,0,0,1,3.71,2.49l.87,2.13a4,4,0,0,1-2.2,5.22c-2.19.89-4.41,1.75-6.59,2.56A4.18,4.18,0,0,1,628.46,492.36Z"/><path class="cls-1" d="M181.56,153.1c-2.78,0-5.61-.1-8.39-.3a4,4,0,0,1-3.64-3.26l-.35-1.85-.36,1.13a4,4,0,0,1-3.8,2.78,3.86,3.86,0,0,1-.89-.1c-8.44-1.91-14-5.7-16.68-11.28-5.37-11.41,2.48-26.9,11.57-44.83,1.79-3.52,3.63-7.16,5.36-10.76,13.09-27.24,33-29.35,38.73-29.35.94,0,1.6,0,1.92.08,2.31.13,25.51,1.87,37.7,22.48,8.52,14.39,7.53,31.62,6.74,45.47a112.72,112.72,0,0,0-.26,14.57,9.06,9.06,0,0,1-2.35,7c-5.9,6.57-21.1,7.21-47.46,7.78-4.39.09-8.92.19-13.46.34C184.5,153.07,183,153.1,181.56,153.1Z"/><path class="cls-1" d="M146.48,544.67a2.81,2.81,0,0,1-.5,0l-16-2a4,4,0,0,1-3.5-4v-26a4,4,0,0,1,3.26-3.94l16-3a4.52,4.52,0,0,1,.74-.06,4,4,0,0,1,4,4v31a4,4,0,0,1-4,4Z"/><path class="cls-1" d="M263.48,557.67a4,4,0,0,1-3.88-3l-6-24A4,4,0,0,1,256,526l10-4a4.11,4.11,0,0,1,1.49-.29,4,4,0,0,1,3.67,2.41l10,23a4,4,0,0,1-2.33,5.36l-14,5A3.87,3.87,0,0,1,263.48,557.67Z"/><path class="cls-1" d="M164.48,240.67a4,4,0,0,1-1.18-.18l-13-4a4,4,0,0,1-2.82-3.68l-2-55a4,4,0,0,1,1.57-3.33,4.06,4.06,0,0,1,2.43-.81,4.11,4.11,0,0,1,1.2.18l19,6a4,4,0,0,1,2.79,4.12l-4,53a4,4,0,0,1-4,3.7Z"/><path class="cls-1" d="M125.48,271.67a4,4,0,0,1-3.26-1.68c-6.83-9.56,6.61-21.61,8.59-23.3l17.41-16.45,1.68-3.36a4,4,0,0,1,2.36-2,4.24,4.24,0,0,1,1.22-.18,3.91,3.91,0,0,1,1.88.47l15,8a4,4,0,0,1,.41,6.8l-28.29,19.81v1.92a4,4,0,0,1-2.33,3.63l-13,6A4,4,0,0,1,125.48,271.67Z"/><path class="cls-1" d="M226.48,271.67a4.32,4.32,0,0,1-.62-.05l-77-12a4,4,0,0,1-2.92-5.83l9-17a4,4,0,0,1,3.54-2.12h.35l68,6a4,4,0,0,1,3.65,4v23a4,4,0,0,1-4,4Z"/><path class="cls-1" d="M319.59,320.7c-15,0-24.76-20-26.57-24L263.31,258.1a3.66,3.66,0,0,1-.57-1l-28-74a4,4,0,0,1,2.28-5.14l23-9a4.06,4.06,0,0,1,1.46-.27,3.9,3.9,0,0,1,1.64.35,4,4,0,0,1,2.11,2.26c2.86,7.75,7.17,19.27,7.83,20.6,1,1.94,7.64,27.13,13.13,48.18l29.53,47.24c5.11,6.08,16.11,20.5,12.76,28.47-.71,1.67-2.64,4.52-7.72,4.88C320.37,320.68,320,320.7,319.59,320.7Z"/><circle class="cls-1" cx="203.98" cy="101.17" r="33"/><path class="cls-1" d="M193.48,173.67a4,4,0,0,1-3-1.31c-3.66-4-15.4-17.79-13-26.06a8,8,0,0,1,5.9-5.49c6.54-1.79,8.05-15.49,8.06-20.15a4,4,0,0,1,4-4h26a4,4,0,0,1,3.11,1.48,4,4,0,0,1,.8,3.36c-4.08,18.77,8.05,23.87,9.45,24.39a4,4,0,0,1,.43,7.34l-40,20A4,4,0,0,1,193.48,173.67Z"/><path class="cls-1" d="M227.48,256.67a4,4,0,0,1-2.82-1.16c-4.3-3.68-40.89-7.46-72.36-8.85a4,4,0,0,1-3.7-5,16.2,16.2,0,0,1,3.64-6.65,3.83,3.83,0,0,1-.61-1.23,4,4,0,0,1,.37-3.13,77.68,77.68,0,0,0,4.68-9.28.65.65,0,0,0,0-.13,12.49,12.49,0,0,1-1-2.34,7.44,7.44,0,0,1,2.24-8.45,20.81,20.81,0,0,0-.15-2.38c-2.94-2-8.31-7-13-17.86a28.19,28.19,0,0,1-1.9-13.18,37.37,37.37,0,0,1,23.37-31.6,1.06,1.06,0,0,1,.25-.09l21.2-7a4,4,0,0,1,1.26-.21,4,4,0,0,1,3.36,1.83,18.25,18.25,0,0,0,13.79,8.33c2,.17,3.89.26,5.64.26,10.42,0,12.76-3,13-3.39a4,4,0,0,1,3.72-2.53,4,4,0,0,1,1.71.38c.17.08,17,8,23.85,11,8.53,3.65,15.28,14.89,16.41,27.31,1.1,12.07-19.83,22-27.58,25.3l-11.52,47a4,4,0,0,1-2.81,2.9A3.89,3.89,0,0,1,227.48,256.67Z"/><path class="cls-1" d="M258.83,542.78c-3.46,0-5.27-2.75-6.86-5.17a20,20,0,0,0-4-4.82c-1.59-1.27-4-3.18-38.62-94.2-11.44-30.08-22.71-60.2-28.86-76.7-8.94,41.75-20.41,98-20.14,104.75,2.58,7.84,3.12,42.68,3.12,43,0,1.36,0,2.18,0,2.82a4.31,4.31,0,0,1-4.26,4.37,4.75,4.75,0,0,1-2.89-1.07,2,2,0,0,0-1.35-.5,4.84,4.84,0,0,0-1.35.22,6.57,6.57,0,0,0-1.32.5c0,.2.08.44.12.63a7.14,7.14,0,0,1-.33,4.81c-1.43,2.86-5,3.1-8.54,3.1s-7.8-.35-11-.61c-1.69-.13-3.43-.27-4-.27a5.2,5.2,0,0,1-3.87-1.74c-2.49-2.73-2.54-8.78-2.13-13.45l1-221.47-2.94-16.65a4,4,0,0,1,1.16-3.57l28-27a4,4,0,0,1,2.78-1.12h.36a4,4,0,0,1,2.89,1.66c6.48,9.07,48.21,14.83,73,16.33a4,4,0,0,1,3.7,3.34l2.77,16.61c10.86,10.32,6.12,25.94,4.44,30.44,11.26,58.76,36.85,192.57,36.85,195.61,0,2.88,1.41,6.41,4.33,10.78,2.26,3.39,3.39,5.1,2.29,7.44a4.06,4.06,0,0,1-1.92,2c0,1.27.19,3.28.31,4.49.38,3.82.64,6.34-1.18,8.16-1.16,1.16-2.82,1.87-15.44,5.7-1.84.55-3.36,1-4.13,1.27a6,6,0,0,1-1.91.32Z"/><path class="cls-1" d="M107.48,571.67c-9.08,0-10.92-5.35-11.3-7.66-1.41-8.71,10.11-22.49,14.43-24.87,1.75-1.62,6.67-10.63,10.25-18.19a4,4,0,0,1,3.62-2.28h10c4.92,0,12.65,7,16.83,11.17a4,4,0,0,1,1.17,2.83v21a4,4,0,0,1-2.21,3.57l-15.64,7.82C132.6,566.58,124.55,571.67,107.48,571.67Z"/><path class="cls-1" d="M305.28,588.94c-6,0-13.17-2.25-18.11-4.14-6.68-2.55-9.55-4.17-10.77-5.48-2.39-1.31-11-5-18.41-7.94a4,4,0,0,1-2.49-4.17l2.34-20.63a4,4,0,0,1,1.78-2.89l8-5.28c.51-3.67,2.34-7.49,6.26-8.48a4.73,4.73,0,0,1,1.19-.15c1.71,0,5.71,0,25.05,22.84,3.35,2.18,19.47,13.49,17.29,27.65-.4,2.61-2.39,8.67-12.15,8.67Z"/><path class="cls-1" d="M188,440.84a4,4,0,0,1-4-4V312.08a4,4,0,0,1,5.64-3.64L328,370.63l138.36-62.19a3.91,3.91,0,0,1,1.64-.36,4,4,0,0,1,4,4V436.84a4,4,0,0,1-4,4Z"/><path class="cls-1" d="M328.25,388.16a3.91,3.91,0,0,1-1.82-.44L186.15,315.64a4,4,0,0,1,1.83-7.56H468a4,4,0,0,1,1.83,7.56L330.09,387.72A4.12,4.12,0,0,1,328.25,388.16Z"/><circle class="cls-1" cx="328.25" cy="384.16" r="15.64"/><path class="cls-1" d="M207.53,80.05a20.6,20.6,0,1,1,20.6-20.6A20.63,20.63,0,0,1,207.53,80.05Z"/><path class="cls-1" d="M202.27,75.69a19.91,19.91,0,0,1-2.18-.12,20.6,20.6,0,0,1,2.16-41.09c.74,0,1.48,0,2.21.11a4,4,0,0,1,0,8,12.6,12.6,0,0,0,0,25.06,4,4,0,0,1,0,8A20.09,20.09,0,0,1,202.27,75.69Z"/><path class="cls-1" d="M208.77,103.59a4,4,0,0,1-3.79-2.72,4,4,0,0,1-3.08,1.64l-7.6.29a4,4,0,0,1-2.13-.61A4,4,0,0,1,190,103l-16.29.62a4,4,0,0,1-3.9-4.88l6.48-28.63A4,4,0,0,1,179.53,67l31.33-4.86a3.93,3.93,0,0,1,2.47.41L236,74.44a4,4,0,0,1,2.14,3.34l1.08,21.07a4,4,0,0,1-3.91,4.2Z"/><rect class="cls-1" x="574.98" y="399.17" width="491" height="243" rx="4"/><rect class="cls-1" x="574.98" y="399.17" width="491" height="38" rx="4"/><circle class="cls-1" cx="648.98" cy="520.17" r="48"/><rect class="cls-1" x="760.98" y="491.67" width="248" height="15" rx="4"/><rect class="cls-1" x="760.98" y="512.67" width="248" height="15" rx="4"/><rect class="cls-1" x="760.98" y="533.67" width="153" height="15" rx="4"/><path class="cls-1" d="M875.34,242.28a27.47,27.47,0,0,1-9.91-2c-18.1-7-20-15.59-20.25-17.23a4,4,0,0,1,.6-2.65c.05-.08,6-9.9,7.78-29.92a4.05,4.05,0,0,1,1.44-2.74,4,4,0,0,1,2.55-.92l.42,0,35.46,3.74a4,4,0,0,1,2.91,1.77,4,4,0,0,1,.5,3.37c-2.91,9.57-4.87,21.84-3.16,24.85,2,3.41,1.68,7.93-.73,12.08A20.13,20.13,0,0,1,875.34,242.28Z"/><path class="cls-1" d="M924.27,576.06a4,4,0,0,1-3-1.37l-19.6-22.39a4,4,0,0,1-.5-4.55C913,526,929.6,492.59,929.6,486.21c0-9.51,15-32.21,21.66-41.81l-19.82-12.68a4,4,0,0,1-.85-6c.92-1.05,22.65-25.63,42.1-25.63a21.14,21.14,0,0,1,7,1.16,2.76,2.76,0,0,1,.47.2c.81.4,19.87,10.08,23.94,25.39,1.76,6.64.5,13.24-3.74,19.6-8.64,13-25.19,38.27-37.56,57.21a186.65,186.65,0,0,0-23,50.2L937.44,562a3.83,3.83,0,0,1-.77,1.45l-9.33,11.2a4,4,0,0,1-3,1.44Z"/><path class="cls-1" d="M847.75,649.78a4,4,0,0,1-4-3.52l-9.33-76.52c-.24-2.28-5.56-54.21-2.84-72.59l-.92-37a4,4,0,0,1,2.63-3.86,55.87,55.87,0,0,1,17.36-2.86c8.26,0,15.29,2.08,20.9,6.19a4,4,0,0,1,1.63,3.37c0,1.07-1,26.36-1.88,36.62-.23,2.54.56,7.57,1.48,13.4,1.84,11.71,4.35,27.75,2.64,45.18a243.59,243.59,0,0,0,.56,50.43l3.71,33.89a4,4,0,0,1-3.58,4.42l-28,2.8Z"/><path class="cls-1" d="M871.38,477.7c-1.8,0-3-.95-5.38-2.86-3.77-3-10.8-8.63-18-8.63-4.92,0-9.29,2.6-13.36,8a4,4,0,0,1-3.18,1.57,4.12,4.12,0,0,1-.92-.1,4,4,0,0,1-3-3.15L815.36,408.1a2.23,2.23,0,0,1-.05-.36c0-.41-.95-10.11-.95-20.33,0-16.17,2.17-23.88,7.26-25.79L873.87,342a4,4,0,0,1,1.41-.25,3.81,3.81,0,0,1,.75.07l43.86,8.4a3.83,3.83,0,0,1,1.41.56c.16.11,16.63,10.71,33,22.78,30.47,22.47,34.76,30.7,35.09,35.36a4,4,0,0,1-4,4.28,2.75,2.75,0,0,1-.4,0s-1.15-.11-3-.11c-11.26,0-30.23,3.27-30.86,25.18a4,4,0,0,1-5.4,3.63c-.23-.09-22.39-8.4-27.86-10.22-5.11-1.7-25.53-14.84-33.78-20.21-3.07,3.14-8.54,10-8.54,19.22,0,5,.1,11.38.21,17.54.38,22.9.23,25.43-.64,27.17a4.15,4.15,0,0,1-3.74,2.3Z"/><path class="cls-1" d="M879.48,210.26a32,32,0,1,1,32-32A32,32,0,0,1,879.48,210.26Z"/><path class="cls-1" d="M819,380.65a6,6,0,0,1-1.87-.29c-1.1-.37-4-1.34-4.76-4.25s1.2-5,2.92-6.87a29.4,29.4,0,0,0,3.17-3.88,19.49,19.49,0,0,1-9.75-3.2,8.15,8.15,0,0,1-3.94-6.39c-.36-5.89,5.92-11.31,10.51-15.27l1.5-1.3c-.29-.91-.66-2.09-1-3.3-8.59-26.78-19.4-64.66-14.27-84.45,7.08-27.33,46.76-35.29,48.45-35.62a4.88,4.88,0,0,1,.76-.07,4,4,0,0,1,3.86,3c1.2,4.47,6.25,6.73,15,6.73a70.93,70.93,0,0,0,14.24-1.66l2.27-4.53a4,4,0,0,1,3.58-2.2h.16a4,4,0,0,1,2.47,1c.67.31,3.67,1.54,13.66,3.41,6.9,1.29,14.61,5.42,22.93,12.27A27.28,27.28,0,0,1,938.56,258L926.84,359.29a4,4,0,0,1-2.39,3.22c-.56.24-5.75,2.34-15.69,2.34a96.09,96.09,0,0,1-26.18-4,29.94,29.94,0,0,0-8.14-1.08c-14.37,0-30.51,8.9-41.19,14.79C825.73,378.66,822,380.65,819,380.65Z"/><path class="cls-1" d="M898.86,436.23a8.12,8.12,0,0,1-4.13-1.16c-13.51-7.88-1.45-39.71,1.1-46a4,4,0,0,1,3.71-2.5h16.8a4,4,0,0,1,3.94,4.69,216.73,216.73,0,0,1-5,21.29C910.35,428.93,905.3,436.23,898.86,436.23Z"/><path class="cls-1" d="M879.21,446.19h-.44c-15.62-.74-19.64-34.55-20.29-41.32a4,4,0,0,1,2.13-3.92l14.9-7.77a4,4,0,0,1,1.84-.45,4,4,0,0,1,3.82,2.79c2.78,8.8,11.31,38.19,4.6,47.36A8,8,0,0,1,879.21,446.19Z"/><path class="cls-1" d="M958.79,615.28c-16.94,0-38.38-21.77-40.12-23.57l-26-24.18a4,4,0,0,1-1-4.45c9.63-23.46,14.27-23.67,16.25-23.76h.22c4.12,0,5.48,4.09,6.79,8,1.82,5.49,3.49,9.7,7,9.7a11,11,0,0,0,4.62-1.33,11,11,0,0,1,7.35-3.37c2.81,0,6.67,1.4,9.09,8.06,3.31,9.11,12.43,21,13.31,22.14,3.93,4.43,16,19,12.48,27.37-.93,2.24-3.21,5-8.79,5.31C959.58,615.27,959.18,615.28,958.79,615.28Z"/><path class="cls-1" d="M842.18,690.62a5.79,5.79,0,0,1-5.33-2.66c-3.58-6-3.52-16.69-1.08-21.57a24.85,24.85,0,0,1,3.84-5c1.85-2,5.29-5.86,4.56-7.31-2.78-5.57-1-16.29,2.41-21.8,2.31-3.73,5-4.52,6.77-4.52,5,0,13.64,3.71,16.19,4.85l.36,0h0l.3,0a4.6,4.6,0,0,0,.17-2,4,4,0,0,1,1.83-3.6,4,4,0,0,1,2.17-.64,4,4,0,0,1,1.87.46c3,1.57,17.9,9.89,20.19,19.4a10.06,10.06,0,0,1-1.54,8.34l-.2.27a92.08,92.08,0,0,1-38.09,31.29C847.59,690.16,844.05,690.62,842.18,690.62Z"/><path class="cls-1" d="M897.9,195.29a4,4,0,0,1-4-3.53l-2.57-23.11c-2.8.23-6.81.46-11.21.46a72.29,72.29,0,0,1-17-1.68,9.55,9.55,0,0,0-2.26-.31c-5.48,0-6.64,7.55-6.69,7.87a4,4,0,0,1-4,3.43h-.07a4,4,0,0,1-3.91-3.55c0-.43-1.16-10.65-.37-17.77,1-8.91,11.9-16.52,30.73-21.44a24.4,24.4,0,0,1,6.1-.8c14,0,22,12.76,24.2,16.81,9.35,6.07,8.24,23,6.25,31.47-1.69,7.16-4.11,10.5-7.62,10.5h0a4.74,4.74,0,0,1-3-1.08l-.11-.08a4.42,4.42,0,0,0-1.26,1.15A4.07,4.07,0,0,1,897.9,195.29Z"/><path class="cls-1" d="M863.68,416.08a6.1,6.1,0,0,1-1.5-.18,5.67,5.67,0,0,1-3.71-2.61,5.83,5.83,0,0,1-.45-4.44c-2.82-1.24-7.69-4-7.85-7.93a4.85,4.85,0,0,1,.43-2.21C841.81,394,827,382.9,821.22,369.77c-3.49-8-13-34.77-19.22-60.49-8.4-34.84-8-55.15,1.24-62,1.26-1.42,5-5.06,10.1-5.06,2.92,0,7.22,1.23,11.14,7.12a3.85,3.85,0,0,1,.43.83c.05.16,5.68,15.41,11,31.38,11.1,33.3,10.13,37.22,9.65,39.1-.87,3.52-.6,4.54-.54,4.71a6.61,6.61,0,0,0,1.39,1.06l.29.2c2.56,1.7,6.52,9.54,11.76,23.3,2,4.9,5.33,11,7.09,12.28,4,3,5,8.8,5.25,11.75,9.54,9.86,8.62,13.49,6.38,15.73a5.08,5.08,0,0,0,1.43,1.45c8.06,6.05,7.78,9.17,7.68,10.35a4.82,4.82,0,0,1-2.69,3.89c-.29.17-1.5,1-2.57,1.76C872.68,412.92,867.44,416.08,863.68,416.08Z"/><path class="cls-1" d="M917.27,401.09a4,4,0,0,1-1.19-.18c-.1,0-9.9-3.06-17.49-3.06a17.68,17.68,0,0,0-3.78.35,4.28,4.28,0,0,1-.87.09,4,4,0,0,1-3.47-6c2.71-4.75,5.07-10.16,5.34-12.2-.24-.29-.5-.58-.78-.88-1.22-1.34-4.95-5.4-.18-10.16a9.73,9.73,0,0,1,1.22-1.05c-1.54-3.27-1.3-9,.6-18.49,1.44-7.18,3.35-13.95,3.66-15l20.5-94.12a4,4,0,0,1,3.91-3.15,4.15,4.15,0,0,1,1.54.31l.37.16A27.47,27.47,0,0,1,943,257.49c2.06,9.87,4.17,24.54,2.51,38.36-2.7,22.56-4.61,34-8.79,42.38a34.6,34.6,0,0,1-3.41,5.61l-.22.3c0,.37.12,1,.27,1.9,0,.18.06.31.08.4h0a5.13,5.13,0,0,1,2.78,3.19c.63,2.35-.57,4.53-2.48,7.59a26.71,26.71,0,0,1-5,6.1c.24.37.51.7.78,1.05,2.4,3.06,3.2,6.1-.69,11a17.94,17.94,0,0,0-3.42,5.8,17.49,17.49,0,0,1-.79,1.89c-.49,1.19-2.15,8.66-3.39,14.86a4,4,0,0,1-3.92,3.21Z"/><path class="cls-1" d="M648.91,570.9l-1,0c-.67,0-1.35,0-2-.09-16.13-1.14-25-11.21-25-28.35,0-18.93,22.6-41.45,25.18-44l.12-.12a4.06,4.06,0,0,1,2.77-1.1,3.94,3.94,0,0,1,2.76,1.1c1,1,25.31,24.47,25.31,44.08C677,560.53,666.75,570.9,648.91,570.9Z"/><path class="cls-1" d="M647.9,570.88q-1,0-2-.09a4,4,0,0,1-3.7-4.2l.94-17.94a3.11,3.11,0,0,1,0-.68v-.1L635,535.27a4,4,0,0,1,1.1-5.48,4.07,4.07,0,0,1,2.25-.69,4,4,0,0,1,3.26,1.67l2.26,3.16,0-.86-7-13.16a4,4,0,0,1,6.87-4.08l.66,1,.41-15.73a4,4,0,0,1,4-3.86h.07a4,4,0,0,1,3.93,4l-.06,11.53.43-.5a4,4,0,0,1,6.32,4.88l-3.53,5a7.06,7.06,0,0,0,4.59,4.53,4,4,0,0,1,1.49,5.37L652.26,550l0,1.37,1.34-1.87a4,4,0,0,1,3.26-1.68,4,4,0,0,1,2.24.7,4,4,0,0,1,1.11,5.48L652,566.68V567a4,4,0,0,1-4,3.94Z"/><path class="cls-1" d="M52.07,498.78a4,4,0,0,1-3.42-1.91c-.51-.84-5-8.62-6.6-24.32-1.43-14.24-.53-38.2,11.82-71.42,22.09-59.42-5-107.88-5.28-108.37a4,4,0,0,1,1.46-5.45l1.39-.81a3.93,3.93,0,0,1,2-.54,4,4,0,0,1,3.46,2c.07.13,7.64,13.26,12.09,34.15a147.56,147.56,0,0,1-6.12,82.39c-21.89,58.87-6.15,87.15-6,87.43a4,4,0,0,1-1.36,5.45l-1.37.83A4,4,0,0,1,52.07,498.78Z"/><circle class="cls-1" cx="43.11" cy="276.71" r="14.44"/><circle class="cls-1" cx="76.04" cy="315.26" r="14.44"/><circle class="cls-1" cx="53.55" cy="340.96" r="14.44"/><circle class="cls-1" cx="80.86" cy="362.65" r="14.44"/><circle class="cls-1" cx="45.52" cy="396.38" r="14.44"/><path class="cls-1" d="M58.27,499.16a4,4,0,0,1-3.61-2.49c-.11-.29-11.32-29.08,22.5-49.89a3.94,3.94,0,0,1,2.09-.59,4,4,0,0,1,3.63,5.68L62,496.85a4,4,0,0,1-3.63,2.32Z"/><path class="cls-1" d="M45.53,498.7a4.05,4.05,0,0,1-2.19-.65L1.81,471A4,4,0,0,1,4,463.6h.49c39.26,0,45,30.11,45,30.41a4,4,0,0,1-3.94,4.69Z"/><rect class="cls-1" x="450.98" width="282" height="160.6" rx="4"/><rect class="cls-1" x="501.32" y="58.4" width="180.66" height="13.06" rx="4"/><rect class="cls-1" x="501.32" y="78.64" width="180.66" height="13.06" rx="4"/><rect class="cls-1" x="501.32" y="98.89" width="180.66" height="13.06" rx="4"/><rect class="cls-1" x="450.98" y="0.17" width="282" height="25" rx="4"/><circle class="cls-1" cx="466.17" cy="13.17" r="10.19"/><circle class="cls-1" cx="482.98" cy="13.17" r="10.19"/><circle class="cls-1" cx="499.78" cy="13.17" r="10.19"/><circle class="cls-1" cx="593.98" cy="418.17" r="11"/><circle class="cls-1" cx="613.98" cy="418.17" r="11"/><circle class="cls-1" cx="633.98" cy="418.17" r="11"/><path class="cls-2" d="M372.55,374.9c.89,2.09,1.84,4.19,2.81,6.26l-2.08,1c-1-2.09-1.94-4.22-2.85-6.33Z"/><path class="cls-3" d="M743.77,208.25c1.32,2.8,2.58,5.65,3.75,8.48l-2.12.88c-1.76-4.23-3.7-8.5-5.76-12.62l2.06-1Q742.76,206.08,743.77,208.25ZM735,191.63l-2,1.16c-2.33-4-4.82-7.92-7.41-11.72l1.9-1.3C730.16,183.61,732.68,187.6,735,191.63Zm17.44,38.22c1.49,4.41,2.85,8.93,4,13.43l-2.22.58c-1.17-4.44-2.51-8.91-4-13.28Zm-33.22-61.39-1.8,1.42c-2.85-3.61-5.86-7.18-9-10.59l1.7-1.54C713.33,161.2,716.38,164.8,719.25,168.46ZM759.61,257c.87,4.57,1.59,9.24,2.15,13.86l-2.28.28c-.55-4.58-1.27-9.19-2.13-13.71ZM700.44,147.68l-1.6,1.66c-3.31-3.19-6.78-6.3-10.3-9.25l1.47-1.76C693.57,141.31,697.08,144.46,700.44,147.68ZM763,284.81c.24,4.66.31,9.38.22,14l-2.3-.05c.09-4.6,0-9.27-.22-13.88Zm-84-155.1-1.36,1.86c-3.72-2.71-7.58-5.32-11.48-7.76l1.22-2C671.29,124.33,675.2,127,679,129.71Zm83.46,183.15c-.41,4.65-1,9.34-1.7,13.93l-2.27-.35c.71-4.55,1.28-9.18,1.68-13.78Zm-107.21-198-1.08,2c-4.06-2.17-8.25-4.23-12.44-6.12l.94-2.1C646.89,110.55,651.12,112.63,655.22,114.83ZM758.08,340.57c-1,4.54-2.25,9.1-3.59,13.57l-2.2-.67c1.33-4.41,2.52-8.92,3.54-13.41ZM629.66,103.32l-.79,2.16c-4.32-1.6-8.75-3.08-13.17-4.38l.66-2.2C620.82,100.21,625.3,101.7,629.66,103.32ZM750,367.42c-1.64,4.36-3.46,8.72-5.39,12.95l-2.09-1c1.91-4.18,3.7-8.49,5.33-12.8Zm-147.22-272-.5,2.24c-4.49-1-9.08-1.85-13.64-2.54l.35-2.27C593.59,93.51,598.23,94.38,602.77,95.39ZM738.34,392.91c-2.22,4.1-4.61,8.16-7.1,12.09l-2-1.23c2.47-3.88,4.83-7.91,7-11.95ZM575,91.19l-.19,2.29c-4.6-.37-9.26-.59-13.87-.65l0-2.3C565.67,90.59,570.39,90.81,575,91.19ZM723.33,416.57c-2.76,3.75-5.68,7.45-8.69,11l-1.75-1.49c3-3.51,5.86-7.16,8.58-10.87ZM547,90.83l.13,2.29c-4.61.26-9.26.69-13.83,1.26L533,92.1C537.62,91.52,542.32,91.09,547,90.83ZM705.23,437.94c-3.25,3.34-6.65,6.61-10.12,9.71l-1.53-1.71c3.43-3.07,6.79-6.3,10-9.6ZM519.14,94.33l.44,2.26c-4.51.89-9.06,2-13.5,3.15l-.6-2.22C510,96.31,514.57,95.24,519.14,94.33Zm165.2,362.31c-3.67,2.86-7.49,5.62-11.35,8.22L671.7,463c3.82-2.57,7.6-5.3,11.23-8.13Zm-192.26-355,.75,2.17c-4.35,1.5-8.71,3.17-12.95,5l-.9-2.11c4.3-1.82,8.7-3.51,13.1-5Zm169,370.66c-4,2.32-8.19,4.54-12.38,6.59l-1-2.06c4.14-2,8.26-4.23,12.24-6.52Zm-193.8-357.7c-4.11,2.08-8.21,4.32-12.16,6.66l-1.17-2c4-2.38,8.14-4.64,12.3-6.74Zm-23.84,14.14c-3.79,2.61-7.54,5.39-11.14,8.26l-1.43-1.8c3.64-2.9,7.43-5.71,11.27-8.36ZM421.77,146c-3.39,3.11-6.72,6.37-9.88,9.71l-1.67-1.59c3.2-3.37,6.57-6.67,10-9.81Zm-19.08,20.07c-2.93,3.55-5.78,7.24-8.46,11l-1.87-1.34c2.71-3.77,5.59-7.51,8.56-11.1Zm-16.15,22.5c-2.43,3.92-4.74,8-6.89,12l-2-1.08c2.17-4.11,4.51-8.2,7-12.17ZM373.6,213.07c-1.87,4.21-3.61,8.54-5.19,12.86l-2.16-.78c1.59-4.38,3.36-8.75,5.25-13Zm-9.49,26.05c-1.28,4.43-2.42,9-3.39,13.45l-2.25-.48c1-4.55,2.14-9.13,3.43-13.61Zm-5.86,27.1c-.67,4.57-1.18,9.21-1.53,13.79l-2.29-.17c.35-4.64.87-9.33,1.54-13.95Zm-2.11,27.66c0,4.61.1,9.28.38,13.88l-2.29.14c-.29-4.65-.42-9.37-.39-14Zm1.72,27.69c.6,4.57,1.37,9.17,2.28,13.68l-2.25.46c-.92-4.56-1.7-9.22-2.31-13.83Zm5.51,27.17c1.22,4.43,2.61,8.89,4.14,13.23l-2.17.76c-1.54-4.39-2.95-8.9-4.19-13.38Z"/><path class="cls-2" d="M634.74,482.63l.87,2.13c-2.15.88-4.33,1.72-6.47,2.51l-.79-2.15C630.46,484.34,632.61,483.5,634.74,482.63Z"/><path class="cls-4" d="M240,78.79c-11.6-19.61-34.57-20.53-34.57-20.53s-22.37-2.86-36.73,27c-13.38,27.84-31.84,54.72-3,61.24l5.21-16.23,3.23,17.44a115.82,115.82,0,0,0,12.36.21c30.92-1,60.36.29,59.41-10.8C244.65,122.38,251.14,97.66,240,78.79Z"/><polygon class="cls-5" points="147.16 508.57 147.16 539.58 131.16 537.58 131.16 511.57 147.16 508.57"/><polygon class="cls-5" points="258.16 528.58 264.16 552.58 278.16 547.58 268.16 524.58 258.16 528.58"/><polygon class="cls-5" points="150.16 176.57 152.16 231.57 165.16 235.57 169.16 182.57 150.16 176.57"/><path class="cls-5" d="M154.16,227.58l-2,4-18,17s-13,11-8,18l13-6v-4l30-21Z"/><polygon class="cls-5" points="227.16 243.57 227.16 266.57 150.16 254.57 159.16 237.57 227.16 243.57"/><path class="cls-5" d="M262.16,171.58s7,19,8,21,13,48,13,48l30,48s22,26,8,27-24-22-24-22l-30-39-28-74Z"/><circle class="cls-5" cx="204.66" cy="100.08" r="29"/><path class="cls-5" d="M196.16,119.58s0,21-11,24,9,25,9,25l40-20s-17-6-12-29Z"/><path class="cls-3" d="M189.66,141.08h0l-21.21,7a33.56,33.56,0,0,0-20.88,28.28,23.9,23.9,0,0,0,1.59,11.22c6,14,13,17,13,17s1,6,0,7-3,2-2,5,2,2,1,5-5,10-5,10,4,2,1,4-4,6-4,6,68,3,75,10l12-49s28-11,27-22-7-21-14-24-24-11-24-11-2.24,7.43-22.72,5.64A22.38,22.38,0,0,1,189.66,141.08Z"/><path class="cls-4" d="M229.16,259.58s-66-4-76-18l-28,27,3,17-1,222s-1,11,2,11,19,2,20,0-3-6,4-8,7,5,7-2-1-37-3-42,23-120,23-120,66,178,71,182,6,10,9,9,17-5,18-6-1-9,0-12,4,1,0-5-5-10-5-13-37-196-37-196,8-18-4-28Z"/><path class="cls-4" d="M149.16,531.58s-10-10-14-10h-10s-9,19-12,20-23,25-5,25,25-6,25-6l16-8Z"/><path class="cls-4" d="M262.5,545.94l-2.34,20.64s20,8,20,9,32,16,34,3-16-24-16-24S279,531.86,275.57,532.72s-3.41,6.86-3.41,6.86Z"/><polygon class="cls-3" points="468.66 435.75 188.66 435.75 188.66 310.99 328.66 373.92 468.66 310.99 468.66 435.75"/><polygon class="cls-6" points="188.66 310.99 468.66 310.99 328.94 383.07 188.66 310.99"/><circle class="cls-2" cx="328.94" cy="383.07" r="11.64"/><circle class="cls-4" cx="208.21" cy="58.36" r="16.6"/><path class="cls-4" d="M189.86,54a16.61,16.61,0,0,1,14.86-16.51,16.6,16.6,0,0,0-3.52,33,15.93,15.93,0,0,0,3.52,0A16.6,16.6,0,0,1,189.86,54Z"/><polygon class="cls-4" points="234.84 76.9 212.15 65.01 180.82 69.88 174.34 98.5 190.48 97.88 194.99 87.37 194.99 97.71 202.43 97.42 206.75 80.68 209.45 98.5 235.92 97.96 234.84 76.9"/><rect class="cls-3" x="579.66" y="402.08" width="483" height="235"/><rect class="cls-6" x="579.66" y="402.08" width="483" height="30"/><circle class="cls-2" cx="649.66" cy="519.08" r="44"/><rect class="cls-2" x="765.66" y="494.58" width="240" height="7"/><rect class="cls-2" x="765.66" y="515.58" width="240" height="7"/><rect class="cls-2" x="765.66" y="536.58" width="145" height="7"/><path class="cls-7" d="M893.69,193.51s-6.53,21.46-2.8,28-6.53,20.53-23.33,14-17.73-14-17.73-14,6.54-10.26,8.4-31.73Z"/><path class="cls-7" d="M979.08,403.93s33.59,16.8,18.66,39.2c-8.68,13-25.24,38.33-37.59,57.25a191.1,191.1,0,0,0-23.51,51.27l-2.35,8.12L925,571l-19.59-22.4s28.93-53.19,28.93-63.45,23.32-42.93,23.32-42.93l-23.32-14.93S960.41,397.4,979.08,403.93Z"/><path class="cls-7" d="M869.9,461.79S869,487.92,868,498.18c-.77,8.47,6.72,32.18,4.12,58.56a248.29,248.29,0,0,0,.57,51.28l3.71,33.87-28,2.8-9.33-76.52s-5.6-54.12-2.8-71.85L835.37,459S855.9,451.53,869.9,461.79Z"/><path class="cls-4" d="M919.82,353.08s65.32,42,66.26,55.05c0,0-37.33-3.73-38.26,28.93,0,0-22.4-8.4-28-10.26s-35.46-21.47-35.46-21.47-12.13,9.34-12.13,24.27.93,41.06,0,42.92-22.4-25.19-40.13-1.86L820,406.27s-3.73-39.2,3.74-42L876,344.68Z"/><circle class="cls-7" cx="880.16" cy="177.18" r="27.99"/><path class="cls-8" d="M887.16,226.17s-31.58,8.34-35.85-7.5c0,0-38.8,7.5-45.33,32.69s15.86,85.85,15.86,87.72-18.66,13.06-10.26,18.66,15.86-.93,12.13,6.53-10.27,9.34-4.67,11.2,39.19-27.06,65.32-19.59,39.19,1.86,39.19,1.86l11.72-101.26A23.39,23.39,0,0,0,927,235.72c-5.84-4.81-13.6-10-21.13-11.42-14.93-2.8-15.55-4.33-15.55-4.33Z"/><path class="cls-7" d="M917,389.47s-8.4,47.59-19.59,41.06,2.8-41.06,2.8-41.06Z"/><path class="cls-7" d="M878,395.63s14.55,46.08,1.6,45.47-16.49-37.71-16.49-37.71Z"/><path class="cls-4" d="M929.62,557.91s6.53-7.47,10.26,2.8,14,23.32,14,23.32,22.4,25.2,6.53,26.13-38.26-22.39-38.26-22.39L896,563.5s8.66-21.09,12.72-21.27S911.89,567.24,929.62,557.91Z"/><path class="cls-4" d="M869,635.36s6.58,1.92,6.09-6c0,0,23.78,12.57,17.24,21.9l-.19.28a88.12,88.12,0,0,1-36.43,29.92c-7.18,3.18-13.56,5.29-14.7,3.4-2.8-4.67-2.8-14-.93-17.73s11.19-10.27,8.4-15.87.93-20.53,5.59-20.53S869,635.36,869,635.36Z"/><path class="cls-4" d="M904.59,153.45s-9-19.51-26.26-15-27,11.26-27.77,18,.37,16.88.37,16.88,1.88-13.88,13.89-10.88,30.77.75,30.77.75l3,27s3.38-4.88,7.13-1.88S916.6,159.46,904.59,153.45Z"/><path class="cls-8" d="M821.84,250.43s22.4,60.65,20.53,68.12,0,8.4,2.8,10.26,10.26,21.47,10.26,21.47,4.67,11.2,8.4,14,3.73,10.27,3.73,10.27,9.34,9.33,7.47,11.2-1.87,4.66,1.87,7.46,7.46,6.53,5.6,7.47-14.94,11.2-18.67,10.26,1.87-4.66-2.8-6.53-7.46-4.67-5.6-5.6,7.47-.93,1.87-2.8-25.2-14-31.73-28.93-37.83-105.26-18.91-117.95C806.66,249.12,814.37,239.23,821.84,250.43Z"/><path class="cls-8" d="M925.42,240.16l.38.16a23.5,23.5,0,0,1,14,16.9c2,9.75,4,23.86,2.46,37.07-2.8,23.33-4.67,33.59-8.4,41.06s-4.67,4.66-3.73,10.26,5.6.93.93,8.4-7.47,5.6-5.6,9.33,4.67,3.73.93,8.4-3.73,6.53-4.66,8.4S918,396,918,396s-14.94-4.66-23.33-2.8c0,0,7.46-13.06,5.6-15.86s-4.67-3.73-1.87-6.53,7.46-1.87,2.8-4.67,3.73-31.73,3.73-31.73Z"/><path class="cls-3" d="M673.66,541.35c0,18.13-10.77,24.46-24.07,24.46h-.92c-.62,0-1.23,0-1.83-.09-12-.85-21.32-7.5-21.32-24.36,0-17.44,22.29-39.46,24-41.09h0l.09-.1S673.66,523.22,673.66,541.35Z"/><path class="cls-9" d="M648.71,563l8.81-12.3-8.83,13.65,0,1.42c-.62,0-1.23,0-1.83-.09l.95-18.13v-.14l0,0,.09-1.71L639,532l8.87,12.4,0,.36.71-13.7-7.57-14.14,7.67,11.73.74-28.4v0l-.13,22.4,7.54-8.88-7.57,10.81-.2,12.27,7-11.78-7.07,13.58-.11,6.82,10.22-16.39L649,547.86Z"/><path class="cls-3" d="M52.75,493.69c-.19-.3-4.53-7.56-6-22.63-1.38-13.82-.49-37.12,11.59-69.63C81.2,339.86,53,290.17,52.74,289.68l1.39-.81c.07.12,7.34,12.79,11.63,33a143.79,143.79,0,0,1-6,80.16c-22.86,61.48-5.87,90.58-5.69,90.86Z"/><circle class="cls-6" cx="43.8" cy="275.62" r="10.44"/><circle class="cls-3" cx="76.72" cy="314.17" r="10.44"/><circle class="cls-6" cx="54.24" cy="339.87" r="10.44"/><circle class="cls-6" cx="81.54" cy="361.56" r="10.44"/><circle class="cls-3" cx="46.21" cy="395.29" r="10.44"/><path class="cls-3" d="M59.06,494.08s-10.45-25.71,20.88-45Z"/><path class="cls-3" d="M46.21,493.61s-4.75-27.33-41.52-27.1Z"/><rect class="cls-3" x="455.66" y="2.91" width="274" height="152.6"/><rect class="cls-1" x="506" y="61.31" width="172.66" height="5.06"/><rect class="cls-1" x="506" y="81.55" width="172.66" height="5.06"/><rect class="cls-1" x="506" y="101.8" width="172.66" height="5.06"/><rect class="cls-6" x="455.66" y="3.08" width="274" height="17"/><circle class="cls-2" cx="466.85" cy="12.08" r="6.19"/><circle class="cls-2" cx="483.66" cy="12.08" r="6.19"/><circle class="cls-2" cx="500.47" cy="12.08" r="6.19"/><circle class="cls-1" cx="594.66" cy="417.08" r="7"/><circle class="cls-1" cx="614.66" cy="417.08" r="7"/><circle class="cls-1" cx="634.66" cy="417.08" r="7"/></g></g></svg>