<?xml version="1.0" encoding="utf-8"?>
<!-- Generator: Adobe Illustrator 25.4.1, SVG Export Plug-In . SVG Version: 6.00 Build 0)  -->
<svg version="1.1" id="e66cdcae-b662-46fb-b424-18ba1a805fb0"
	 xmlns="http://www.w3.org/2000/svg" xmlns:xlink="http://www.w3.org/1999/xlink" x="0px" y="0px" viewBox="0 0 832.5 677.8"
	 style="enable-background:new 0 0 832.5 677.8;" xml:space="preserve">
<style type="text/css">
	.st0{fill:#FFFFFF;}
	.st1{fill:#3F3D56;}
	.st2{fill:#F86B75;}
	.st3{fill:#FAD375;}
	.st4{fill:#8BCC55;}
	.st5{fill:#4285F4;}
	.st6{fill:none;stroke:#3F3D56;stroke-miterlimit:10;}
	.st7{fill:#F2F2F2;}
	.st8{fill:#79758C;}
	.st9{fill:#A0616A;}
	.st10{fill:#55536E;}
</style>
<g>
	<g>
		<g>
			<g>
				<path class="st0" d="M299,391.7c-5.9,0-11.1-4.4-13.3-11.1c-2.7-8.3,0.5-16.2,7.5-18.5c1.2-0.4,2.4-0.6,3.6-0.6
					c5.9,0,11.1,4.4,13.3,11.1c2.7,8.3-0.5,16.2-7.5,18.5C301.4,391.5,300.2,391.7,299,391.7z"/>
			</g>
			<g>
				<g>
					<path class="st0" d="M84.5,609.8c-5.5,0-10-4.5-10-10v-217c0-5.5,4.5-10,10-10h364c5.5,0,10,4.5,10,10v217c0,5.5-4.5,10-10,10
						H84.5z"/>
				</g>
				<g>
					<circle class="st0" cx="96.5" cy="393.8" r="13"/>
				</g>
				<g>
					<circle class="st0" cx="105.5" cy="393.8" r="13"/>
				</g>
				<g>
					<circle class="st0" cx="114.5" cy="393.8" r="13"/>
				</g>
				<g>
					<path class="st0" d="M151,514.3c-5.5,0-10-4.5-10-10v-64c0-5.5,4.5-10,10-10h206c5.5,0,10,4.5,10,10v64c0,5.5-4.5,10-10,10H151
						z"/>
				</g>
				<g>
					<path class="st0" d="M448.5,609.8h-364c-5.5,0-10-4.5-10-10v-216c0-5.5,4.5-10,10-10h296c5.5,0,10,4.5,10,10s-4.5,10-10,10
						h-286v196h344v-162c0-5.5,4.5-10,10-10s10,4.5,10,10v172C458.5,605.4,454,609.8,448.5,609.8z"/>
				</g>
				<g>
					<path class="st0" d="M381,410.2H84.5c-5.5,0-10-4.5-10-10s4.5-10,10-10H381c5.5,0,10,4.5,10,10S386.5,410.2,381,410.2z"/>
				</g>
				<g>
					<circle class="st0" cx="97.5" cy="391.8" r="13"/>
				</g>
				<g>
					<circle class="st0" cx="106.5" cy="391.8" r="13"/>
				</g>
				<g>
					<circle class="st0" cx="115.5" cy="391.8" r="13"/>
				</g>
				<g>
					<path class="st0" d="M163.5,501.8c-5.5,0-10-4.5-10-10v-64c0-5.5,4.5-10,10-10h206c5.5,0,10,4.5,10,10v64c0,5.5-4.5,10-10,10
						H163.5z"/>
				</g>
				<g>
					<path class="st0" d="M98,593.3c-5.5,0-10-4.5-10-10v-54c0-5.5,4.5-10,10-10h63c5.5,0,10,4.5,10,10v54c0,5.5-4.5,10-10,10H98z"
						/>
				</g>
				<g>
					<path class="st0" d="M214.5,593.8c-5.5,0-10-4.5-10-10v-54c0-5.5,4.5-10,10-10h63c5.5,0,10,4.5,10,10v54c0,5.5-4.5,10-10,10
						H214.5z"/>
				</g>
				<g>
					<path class="st0" d="M331,594.3c-5.5,0-10-4.5-10-10v-54c0-5.5,4.5-10,10-10h63c5.5,0,10,4.5,10,10v54c0,5.5-4.5,10-10,10H331z
						"/>
				</g>
				<g>
					<path class="st0" d="M107,583.3c-5.5,0-10-4.5-10-10v-54c0-5.5,4.5-10,10-10h63c5.5,0,10,4.5,10,10v54c0,5.5-4.5,10-10,10H107z
						"/>
				</g>
				<g>
					<path class="st0" d="M223.5,583.8c-5.5,0-10-4.5-10-10v-54c0-5.5,4.5-10,10-10h63c5.5,0,10,4.5,10,10v54c0,5.5-4.5,10-10,10
						H223.5z"/>
				</g>
				<g>
					<path class="st0" d="M340,584.3c-5.5,0-10-4.5-10-10v-54c0-5.5,4.5-10,10-10h63c5.5,0,10,4.5,10,10v54c0,5.5-4.5,10-10,10H340z
						"/>
				</g>
				<g>
					<path class="st0" d="M269.3,399.6c-3.8,0-7.5-2.2-9.1-5.9c-2.1-4.7-0.3-10.3,4.3-12.8l13.3-7.4c1.5-0.8,3.2-1.3,4.8-1.3
						c1.2,0,2.3,0.2,3.5,0.6c2.7,1,4.9,3.2,5.9,5.9l0.9,2.4c0.9,2.5,0.8,5.3-0.3,7.7s-3.2,4.3-5.7,5.2l-14.2,5
						C271.5,399.4,270.4,399.6,269.3,399.6z"/>
				</g>
				<g>
					<path class="st0" d="M288,399.5c-6.4,0-12.2-5.1-14.8-13c-3.1-9.6,0.1-18.4,7.6-20.9c1.2-0.4,2.4-0.6,3.7-0.6
						c6.4,0,12.2,5.1,14.8,13c1.1,3.4,1.4,6.8,1,9.9c-0.8,5.4-4,9.5-8.6,10.9C290.5,399.3,289.3,399.5,288,399.5z"/>
				</g>
				<g>
					<path class="st0" d="M289.3,395.8c-1.2,0-2.3-0.2-3.5-0.6c-3-1.1-5.3-3.6-6.2-6.7l-2.2-7.8c-1.4-5,1.3-10.3,6.2-12.1l8.8-3.2
						c1.1-0.4,2.3-0.6,3.4-0.6c4.1,0,7.9,2.5,9.4,6.6l1.9,5.2c1.6,4.3,0,9.1-3.8,11.7l-8.6,5.8C293.2,395.2,291.3,395.8,289.3,395.8
						z"/>
				</g>
			</g>
		</g>
		<g>
			<g>
				<path class="st0" d="M380.5,436.8c-5.5,0-10-4.5-10-10V206.3c0-5.5,4.5-10,10-10h364c5.5,0,10,4.5,10,10v220.5
					c0,5.5-4.5,10-10,10H380.5z"/>
			</g>
			<g>
				<circle class="st0" cx="436.5" cy="303.8" r="40"/>
			</g>
			<g>
				<circle class="st0" cx="557.5" cy="303.8" r="40"/>
			</g>
			<g>
				<circle class="st0" cx="678.5" cy="303.8" r="40"/>
			</g>
			<g>
				<circle class="st0" cx="392.5" cy="220.8" r="13"/>
			</g>
			<g>
				<circle class="st0" cx="401.5" cy="220.8" r="13"/>
			</g>
			<g>
				<circle class="st0" cx="410.5" cy="220.8" r="13"/>
			</g>
			<g>
				<path class="st0" d="M380.5,436.8c-5.5,0-10-4.5-10-10v-216c0-5.5,4.5-10,10-10h364c5.5,0,10,4.5,10,10v216c0,5.5-4.5,10-10,10
					H380.5z"/>
			</g>
			<g>
				<path class="st0" d="M744.5,237.2h-364c-5.5,0-10-4.5-10-10s4.5-10,10-10h364c5.5,0,10,4.5,10,10S750,237.2,744.5,237.2z"/>
			</g>
			<g>
				<circle class="st0" cx="393.5" cy="218.8" r="13"/>
			</g>
			<g>
				<circle class="st0" cx="402.5" cy="218.8" r="13"/>
			</g>
			<g>
				<circle class="st0" cx="411.5" cy="218.8" r="13"/>
			</g>
			<g>
				<circle class="st0" cx="441.5" cy="298.8" r="40"/>
			</g>
			<g>
				<circle class="st0" cx="562.5" cy="298.8" r="40"/>
			</g>
			<g>
				<circle class="st0" cx="683.5" cy="298.8" r="40"/>
			</g>
			<g>
				<path class="st0" d="M396,372.3c-5.5,0-10-4.5-10-10v-8c0-5.5,4.5-10,10-10h82c5.5,0,10,4.5,10,10v8c0,5.5-4.5,10-10,10H396z"/>
			</g>
			<g>
				<path class="st0" d="M518,372.3c-5.5,0-10-4.5-10-10v-8c0-5.5,4.5-10,10-10h82c5.5,0,10,4.5,10,10v8c0,5.5-4.5,10-10,10H518z"/>
			</g>
			<g>
				<path class="st0" d="M640,372.3c-5.5,0-10-4.5-10-10v-8c0-5.5,4.5-10,10-10h82c5.5,0,10,4.5,10,10v8c0,5.5-4.5,10-10,10H640z"/>
			</g>
			<g>
				<path class="st0" d="M400,369.3c-5.5,0-10-4.5-10-10v-8c0-5.5,4.5-10,10-10h82c5.5,0,10,4.5,10,10v8c0,5.5-4.5,10-10,10H400z"/>
			</g>
			<g>
				<path class="st0" d="M522,369.3c-5.5,0-10-4.5-10-10v-8c0-5.5,4.5-10,10-10h82c5.5,0,10,4.5,10,10v8c0,5.5-4.5,10-10,10H522z"/>
			</g>
			<g>
				<path class="st0" d="M644,369.3c-5.5,0-10-4.5-10-10v-8c0-5.5,4.5-10,10-10h82c5.5,0,10,4.5,10,10v8c0,5.5-4.5,10-10,10H644z"/>
			</g>
		</g>
		<g>
			<g>
				<path class="st0" d="M0.5,235.7c-5.5,0-10-4.5-10-10V7.3c0-5.5,4.5-10,10-10h364c5.5,0,10,4.5,10,10v218.3c0,5.5-4.5,10-10,10
					H0.5z"/>
			</g>
			<g>
				<circle class="st0" cx="12.5" cy="19.8" r="13"/>
			</g>
			<g>
				<circle class="st0" cx="21.5" cy="19.8" r="13"/>
			</g>
			<g>
				<circle class="st0" cx="30.5" cy="19.8" r="13"/>
			</g>
			<g>
				<path class="st0" d="M67,140.3c-5.5,0-10-4.5-10-10v-64c0-5.5,4.5-10,10-10h206c5.5,0,10,4.5,10,10v64c0,5.5-4.5,10-10,10H67z"
					/>
			</g>
			<g>
				<path class="st0" d="M0.5,235.8c-5.5,0-10-4.5-10-10V9.8c0-5.5,4.5-10,10-10h364c5.5,0,10,4.5,10,10v216c0,5.5-4.5,10-10,10H0.5
					z"/>
			</g>
			<g>
				<path class="st0" d="M364.5,36.2H0.5c-5.5,0-10-4.5-10-10s4.5-10,10-10h364c5.5,0,10,4.5,10,10S370,36.2,364.5,36.2z"/>
			</g>
			<g>
				<circle class="st0" cx="13.5" cy="17.8" r="13"/>
			</g>
			<g>
				<circle class="st0" cx="22.5" cy="17.8" r="13"/>
			</g>
			<g>
				<circle class="st0" cx="31.5" cy="17.8" r="13"/>
			</g>
			<g>
				<path class="st0" d="M79.5,127.8c-5.5,0-10-4.5-10-10v-64c0-5.5,4.5-10,10-10h206c5.5,0,10,4.5,10,10v64c0,5.5-4.5,10-10,10
					H79.5z"/>
			</g>
			<g>
				<path class="st0" d="M41,176.6c-5.5,0-10-4.5-10-10v-8.3c0-5.5,4.5-10,10-10h276c5.5,0,10,4.5,10,10v8.3c0,5.5-4.5,10-10,10H41z
					"/>
			</g>
			<g>
				<path class="st0" d="M41,196.5c-5.5,0-10-4.5-10-10v-8.3c0-5.5,4.5-10,10-10h276c5.5,0,10,4.5,10,10v8.3c0,5.5-4.5,10-10,10H41z
					"/>
			</g>
			<g>
				<path class="st0" d="M41,216.3c-5.5,0-10-4.5-10-10v-8.3c0-5.5,4.5-10,10-10h276c5.5,0,10,4.5,10,10v8.3c0,5.5-4.5,10-10,10H41z
					"/>
			</g>
			<g>
				<path class="st0" d="M44,172.6c-5.5,0-10-4.5-10-10v-8.3c0-5.5,4.5-10,10-10h276c5.5,0,10,4.5,10,10v8.3c0,5.5-4.5,10-10,10H44z
					"/>
			</g>
			<g>
				<path class="st0" d="M44,192.5c-5.5,0-10-4.5-10-10v-8.3c0-5.5,4.5-10,10-10h276c5.5,0,10,4.5,10,10v8.3c0,5.5-4.5,10-10,10H44z
					"/>
			</g>
			<g>
				<path class="st0" d="M44,212.3c-5.5,0-10-4.5-10-10v-8.3c0-5.5,4.5-10,10-10h276c5.5,0,10,4.5,10,10v8.3c0,5.5-4.5,10-10,10H44z
					"/>
			</g>
			<g>
				<path class="st0" d="M179.3,27.6c-3.8,0-7.5-2.2-9.1-5.9c-2.1-4.7-0.3-10.3,4.3-12.8l13.3-7.4c1.5-0.8,3.2-1.3,4.8-1.3
					c1.2,0,2.3,0.2,3.5,0.6c2.7,1,4.9,3.2,5.9,5.9l0.9,2.4c0.9,2.5,0.8,5.3-0.3,7.7c-1.1,2.4-3.2,4.3-5.7,5.2l-14.2,5
					C181.5,27.4,180.4,27.6,179.3,27.6z"/>
			</g>
			<g>
				<path class="st0" d="M198,27.5c-6.4,0-12.2-5.1-14.8-13c-1.1-3.4-1.4-6.8-1-9.9c0.8-5.4,4-9.5,8.6-10.9c1.2-0.4,2.4-0.6,3.7-0.6
					c6.4,0,12.2,5.1,14.8,13c3.1,9.6-0.1,18.4-7.6,20.9C200.5,27.3,199.3,27.5,198,27.5z"/>
			</g>
			<g>
				<path class="st0" d="M209,19.7c-5.9,0-11.1-4.4-13.3-11.1c-2.7-8.3,0.5-16.2,7.5-18.5c1.2-0.4,2.4-0.6,3.6-0.6
					c5.9,0,11.1,4.4,13.3,11.1c2.7,8.3-0.5,16.2-7.5,18.5C211.4,19.5,210.2,19.7,209,19.7z"/>
			</g>
			<g>
				<path class="st0" d="M199.3,23.8c-1.2,0-2.3-0.2-3.5-0.6c-3-1.1-5.3-3.6-6.2-6.7l-2.2-7.8c-1.4-5,1.3-10.3,6.2-12.1l8.8-3.2
					c1.1-0.4,2.3-0.6,3.4-0.6c4.1,0,7.9,2.5,9.4,6.6l1.9,5.2c1.6,4.3,0,9.1-3.8,11.7l-8.6,5.8C203.2,23.2,201.3,23.8,199.3,23.8z"/>
			</g>
		</g>
		<g>
			<g>
				<path class="st0" d="M667,688.3c-41,0-79.8-3.6-109-10.2c-35-7.9-52-18.9-52-33.8c0-14.9,17-25.9,52-33.8
					c29.2-6.6,67.9-10.2,109-10.2s79.8,3.6,109,10.2c35,7.9,52,18.9,52,33.8c0,14.9-17,25.9-52,33.8
					C746.8,684.7,708,688.3,667,688.3z"/>
			</g>
			<g>
				<path class="st0" d="M681,678.3c-41,0-79.8-3.6-109-10.2c-35-7.9-52-18.9-52-33.8c0-14.9,17-25.9,52-33.8
					c29.2-6.6,67.9-10.2,109-10.2s79.8,3.6,109,10.2c35,7.9,52,18.9,52,33.8c0,14.9-17,25.9-52,33.8
					C760.8,674.7,722,678.3,681,678.3z"/>
			</g>
			<g>
				<path class="st0" d="M572.7,230.5c-3.8,0-7.5-2.2-9.1-5.9c-2.1-4.7-0.3-10.3,4.3-12.8l28.1-15.5c1.5-0.8,3.2-1.3,4.8-1.3
					c1.2,0,2.3,0.2,3.5,0.6c2.7,1,4.9,3.2,5.9,5.9l1.9,5c0.9,2.5,0.8,5.3-0.3,7.7c-1.1,2.4-3.2,4.3-5.7,5.2L576.1,230
					C575,230.4,573.8,230.5,572.7,230.5z"/>
			</g>
			<g>
				<path class="st0" d="M612.2,230.5c-8.6,0-16.7-7.7-20.6-19.7c-4.6-14.2-0.8-26.8,9-30c1.4-0.5,2.9-0.7,4.3-0.7
					c8.6,0,16.7,7.7,20.6,19.7c1.8,5.4,2.4,11.1,1.6,15.9c-1.1,7.1-4.9,12.3-10.6,14.2C615.1,230.3,613.7,230.5,612.2,230.5z"/>
			</g>
			<g>
				<path class="st0" d="M635.4,214c-7.5,0-14.4-6.2-17.6-15.8c-1.4-4.4-1.8-8.9-1.1-12.8c1.1-6.1,4.6-10.5,9.7-12.2
					c1.3-0.4,2.7-0.6,4.1-0.6c7.5,0,14.4,6.2,17.6,15.8c1.4,4.4,1.8,8.9,1.1,12.8c-1.1,6.1-4.6,10.5-9.7,12.2
					C638.2,213.8,636.8,214,635.4,214z"/>
			</g>
			<g>
				<path class="st0" d="M614.9,222.6c-1.2,0-2.3-0.2-3.5-0.6c-3-1.1-5.3-3.6-6.2-6.7l-4.6-16.4c-1.4-5,1.3-10.3,6.2-12.1l18.6-6.7
					c1.1-0.4,2.2-0.6,3.4-0.6c1.5,0,2.9,0.3,4.2,0.9c2.4,1.1,4.3,3.2,5.2,5.7l4,11c1.6,4.3,0,9.1-3.8,11.7l-18,12.2
					C618.8,222,616.9,222.6,614.9,222.6z"/>
			</g>
			<g>
				<path class="st0" d="M608.6,246.5c-1.3,0-2.6-0.2-3.8-0.8l-12-5c-4.7-2-7.2-7.2-5.7-12.1l2.9-9.8c0.8-3,5.9-20.5,19.8-28.1
					c2.4-1.3,4.8-2,7.1-2c4,0,7.5,1.9,9.8,5.1c1.8,2.6,6.1,8.8-3.8,35.1c-0.1,0.2-0.2,0.4-0.3,0.6l-5,11
					C616,244.3,612.4,246.5,608.6,246.5z"/>
			</g>
			<g>
				<path class="st0" d="M723.4,446.5c-3.6,0-9.9-1.6-12.5-12.4c-0.7-3-1.3-6.9-1.7-11.8c-0.6-7.8-0.6-15.5-0.6-15.8
					c0-2.8,1.2-5.5,3.3-7.4c5.4-4.9,13.2-10.6,20-10.6c1.1,0,2.1,0.1,3.1,0.4c4.2,1.1,12.8,3.9,13.7,4.2c2.8,0.9,5,3,6.1,5.7
					c1.1,2.7,1,5.8-0.4,8.4c-19.2,37.3-24.8,38.4-28.9,39.2C724.8,446.4,724.1,446.5,723.4,446.5z"/>
			</g>
			<g>
				<path class="st0" d="M705,660.4c-9.7,0-16.4-3.9-18.1-10.5c-0.1-0.2-5.3-23.6,4-34.8c6.4-7.7,22.2-12.8,26.9-14.2
					c0.9-0.3,1.9-0.4,2.8-0.4c1.7,0,3.4,0.4,4.9,1.3c5.7,3.2,15,13.1,9.5,28.2c-2.2,6.1-4,8.9-5.9,11.5c-0.9,1.3-1.2,1.6-1.8,4.3
					C725.4,654.6,716.6,660.4,705,660.4z"/>
			</g>
			<g>
				<path class="st0" d="M647.2,660.4c-11.6,0-20.4-5.8-22.4-14.8c-0.6-2.7-0.8-3-1.8-4.3c-1.8-2.6-3.7-5.4-5.9-11.5
					c-5.5-15,3.8-25,9.5-28.2c1.5-0.8,3.2-1.3,4.9-1.3c0.9,0,1.9,0.1,2.8,0.4c4.7,1.4,20.4,6.5,26.9,14.2c9.4,11.2,4.1,34.6,4,34.8
					C663.6,656.5,656.9,660.4,647.2,660.4C647.2,660.4,647.2,660.4,647.2,660.4z"/>
			</g>
			<g>
				<path class="st0" d="M703.4,644c-7,0-12.7-4.2-15.2-11.1c-0.3-0.9-0.5-1.9-0.6-2.9c-0.1-2.4-0.8-4.8-1.9-6.9c0,0,0-0.1-0.1-0.1
					c-3.6-7.2-1.6-22.7,0.8-35c-0.8-8-3.8-38.6-2.8-48.5c0.3-3.8-2.1-18.2-7-42.9c-2.7,12.5-5.6,25.6-8,36.8
					c0.5,14,1.9,53.4,0.9,60.5c-0.2,1.5,0.5,5.8,0.9,8.6c1.2,7.5,2.4,15.2-1.2,21.1c-0.2,0.4-0.7,1.4-1.2,2.3c-3.1,6.3-9,18-20.6,18
					c-4.9,0-9.5-2.2-13.8-6.4c-10.6-10.6-12-17.1-12.5-23.4c-0.1-0.7-0.1-1.3-0.2-1.7c-0.9-4.4-0.7-8.8-0.4-13.5
					c0.1-2.4,0.2-4.8,0.2-7.4c0-1.9-0.9-8.8-1.7-14.9c-4-31.3-4.8-43.5-1-50.1c1.6-2.8,1.1-8.4,0.4-16.9c-0.2-2.8-0.5-6-0.7-9.6
					c-0.6-9-1-32.8-0.1-55.3c1.6-41.4,6.2-52.8,10-58.2c3.7-5.1,9.9-7.7,18.6-7.7c23.9,0,68.7,20.2,73.7,22.4
					c0.4,0.2,0.8,0.4,1.1,0.6c4.6,2.9,12.7,12.4,14.7,43.8c2.1,32.5-1.1,68.1-2.1,75.9c-0.8,6.3,1,16.8,2.6,21.6
					c0.7,2,2.7,8-4.2,53.9c3,8.3,2.6,17.4-1.2,25.4C725.9,633.2,714.4,644,703.4,644z"/>
			</g>
			<g>
				<path class="st0" d="M707.5,262.3c-11.1,0-39-6.3-42.1-7c-3-0.7-5.5-2.7-6.8-5.4c-1.3-2.7-1.3-5.9,0-8.7c2.3-4.9,8-20.8,4-29.5
					c-3.2-6.9-1.2-11.8,0.3-14.1c1.9-3,5.9-6.5,14.1-6.5c11.7,0,31.1,7.2,33.2,8.1c4,1.5,6.6,5.4,6.4,9.6
					c-0.4,15.4,0.6,31.9,2.2,35.9c2.4,3.3,2.9,7.5,1.2,11.1C717.9,260.1,713.7,262.3,707.5,262.3z"/>
			</g>
			<g>
				<path class="st0" d="M679.8,446.2c-15.9,0-35.4-4.8-42.1-18.3c-5.7-11.4-12.4-22.3-20.1-32.5c-1.5-2-2.2-4.6-1.9-7.1
					c0.1-0.4,5-44.3,8-68.1c2.4-19.1-5.6-29.2-5.7-29.3c-2.7-3.2-3.1-7.7-1.1-11.4l22-39c1.8-3.1,5.1-5.1,8.7-5.1h11
					c0.1-0.1,0.2-0.3,0.3-0.4c1.4-1.7,3.1-3.9,5.4-6c4.8-4.4,11.8-4.9,16.6-4.9c6.7,0,14.7,1.2,22.3,2.4
					c13.2,2.2,18.7,9.8,20.9,14.2c4.2,3.1,18.2,10.8,30,16.7c4.6,2.3,6.7,7.7,4.9,12.5l-22.6,59.8c-1.3,11.5-6.1,54.2-8.1,62.1
					c-0.8,3.1,1.2,8.3,2,9.7c0.6,1.1,1,2.4,1.2,3.7c1.1,9.4-1.6,18-7.7,24.9C714.8,440.2,698.4,446.2,679.8,446.2
					C679.8,446.2,679.8,446.2,679.8,446.2z"/>
			</g>
			<g>
				<path class="st0" d="M741.2,417.5c-5,0-10.1-2-15.5-6v0c-3.4-2.4-10.7-9.7-6.8-26.3c2.3-9.9-1.6-21.3-1.7-21.4
					c-0.8-2.1-0.8-4.4-0.1-6.5c1.1-3.2,2-8.1,1.6-10.2c-1-5.7-4.9-24.4-4.9-24.6c-0.4-1.8-0.3-3.6,0.3-5.3l19-55
					c1.4-4,5.2-6.7,9.5-6.7h7c4.9,0,9,3.5,9.9,8.3c0.2,1,4.2,24.4,3.1,39.4c-0.8,11.5-1,36.7-1,44.2c1.6,3.8,4,11.1,2.9,18.5
					c-0.9,6.3-2.7,22.8-2.9,25.3C761,404.4,754.5,417.5,741.2,417.5z"/>
			</g>
			<g>
				<path class="st0" d="M625.6,294.5c-2.9,0-5.5-1.1-7.4-3.3c-0.6-0.6-7.4-7.4-21.7-12.2c-9.8-3.3-16.2-8.4-19-15.1
					c-1.9-4.5-1.7-8.9-0.8-12.2c0.3-5.4,1.8-20.1,10.9-29.2c4.5-4.5,9.2-5.4,12.3-5.4c11.2,0,18.1,11.3,19.4,13.5
					c1.2,2.1,1.6,4.5,1.1,6.9c2.1-0.2,4.5-0.7,7.3-1.5c3.9-1.2,7.8-1.8,11.7-1.8c6.7,0,11.3,1.8,12.1,2.1c0.4,0.2,0.8,0.4,1.2,0.6
					l5,3c3.6,2.2,5.5,6.4,4.7,10.5l-7,36c-0.9,4.7-5,8.1-9.8,8.1H625.6z"/>
			</g>
			<g>
				<path class="st0" d="M689.5,237.6c-3.7,0-7-2-8.7-5.1c-6.3-1-11.2-3.8-14.4-8c-2.9-3.7-3.6-7.7-4.2-10.6
					c-0.2-0.8-0.4-1.9-0.6-2.4c-0.7-1-1.4-1.9-2.1-2.7c-0.2-0.2-0.3-0.4-0.5-0.6c-5.3-7.1-6.2-15.2-6.6-22.4c-0.3-2.7,0.1-5.5,1-8
					c0.2-0.6,0.5-1.2,0.8-1.7c0.9-1.4,1.9-2.8,3.1-4c0-5.7,3.2-13.6,18-18.7c6.3-2.1,12.5-2.4,17.9-2.5c0.4,0,0.9,0,1.4,0
					c3.2,0,7.1,0.2,11,1.8c0.1,0,0.2,0.1,0.3,0.1c2.2,1,4.4,2.2,6.3,3.7c5.6,4.1,13.3,10.7,16.2,20.6c0,0.1,0.1,0.2,0.1,0.4
					c0.9,3.6,1.4,7.3,1.3,11c0.1,2.3-0.3,4.6-1.1,6.7c-0.1,0.2-0.2,0.5-0.3,0.7c-1.1,2.3-2.7,3.8-3.9,4.8c0,0.2,0,0.4,0,0.6
					c0,0.7-0.1,1.5-0.1,2.2c0,0.1,0,0.1,0,0.2c-1,8.9-6.1,16.8-13.9,21.3c-0.1,0.1-0.2,0.1-0.3,0.2c-0.1,0.2-0.1,0.3-0.2,0.5
					c-3.6,6.9-11.7,11.6-20.2,11.9C689.7,237.6,689.6,237.6,689.5,237.6z"/>
			</g>
		</g>
	</g>
</g>
<g>
	<g>
		
			<ellipse transform="matrix(0.9511 -0.3089 0.3089 0.9511 -101.771 110.4399)" class="st1" cx="297.9" cy="376.6" rx="2.8" ry="5.3"/>
		<g>
			<rect x="84.5" y="382.8" class="st0" width="364" height="217"/>
			<circle class="st2" cx="96.5" cy="393.8" r="3"/>
			<circle class="st3" cx="105.5" cy="393.8" r="3"/>
			<circle class="st4" cx="114.5" cy="393.8" r="3"/>
			<rect x="151" y="440.3" class="st5" width="206" height="64"/>
			<polyline class="st6" points="448.5,427.8 448.5,599.8 84.5,599.8 84.5,383.8 380.5,383.8 			"/>
			<line class="st6" x1="84.5" y1="400.2" x2="381" y2="400.2"/>
			<circle class="st6" cx="97.5" cy="391.8" r="3"/>
			<circle class="st6" cx="106.5" cy="391.8" r="3"/>
			<circle class="st6" cx="115.5" cy="391.8" r="3"/>
			<rect x="163.5" y="427.8" class="st6" width="206" height="64"/>
			<rect x="98" y="529.3" class="st7" width="63" height="54"/>
			<rect x="214.5" y="529.8" class="st7" width="63" height="54"/>
			<rect x="331" y="530.3" class="st7" width="63" height="54"/>
			<rect x="107" y="519.3" class="st6" width="63" height="54"/>
			<rect x="223.5" y="519.8" class="st6" width="63" height="54"/>
			<rect x="340" y="520.3" class="st6" width="63" height="54"/>
			<polygon class="st8" points="282.6,382.2 269.3,389.5 283.5,384.5 			"/>
			
				<ellipse transform="matrix(0.9511 -0.3089 0.3089 0.9511 -104.1012 107.1404)" class="st1" cx="286.3" cy="382.3" rx="3.7" ry="7.5"/>
			<polygon class="st1" points="287.1,378 296,374.8 297.9,380 289.3,385.8 			"/>
		</g>
	</g>
	<g>
		<rect x="380.5" y="206.3" class="st0" width="364" height="220.5"/>
		<circle class="st5" cx="436.5" cy="303.8" r="30"/>
		<circle class="st5" cx="557.5" cy="303.8" r="30"/>
		<circle class="st5" cx="678.5" cy="303.8" r="30"/>
		<circle class="st2" cx="392.5" cy="220.8" r="3"/>
		<circle class="st3" cx="401.5" cy="220.8" r="3"/>
		<circle class="st4" cx="410.5" cy="220.8" r="3"/>
		<rect x="380.5" y="210.8" class="st6" width="364" height="216"/>
		<line class="st6" x1="380.5" y1="227.2" x2="744.5" y2="227.2"/>
		<circle class="st6" cx="393.5" cy="218.8" r="3"/>
		<circle class="st6" cx="402.5" cy="218.8" r="3"/>
		<circle class="st6" cx="411.5" cy="218.8" r="3"/>
		<circle class="st6" cx="441.5" cy="298.8" r="30"/>
		<circle class="st6" cx="562.5" cy="298.8" r="30"/>
		<circle class="st6" cx="683.5" cy="298.8" r="30"/>
		<rect x="396" y="354.3" class="st7" width="82" height="8"/>
		<rect x="518" y="354.3" class="st7" width="82" height="8"/>
		<rect x="640" y="354.3" class="st7" width="82" height="8"/>
		<rect x="400" y="351.3" class="st6" width="82" height="8"/>
		<rect x="522" y="351.3" class="st6" width="82" height="8"/>
		<rect x="644" y="351.3" class="st6" width="82" height="8"/>
	</g>
	<g>
		<rect x="0.5" y="7.3" class="st0" width="364" height="218.3"/>
		<circle class="st2" cx="12.5" cy="19.8" r="3"/>
		<circle class="st3" cx="21.5" cy="19.8" r="3"/>
		<circle class="st4" cx="30.5" cy="19.8" r="3"/>
		<rect x="67" y="66.3" class="st5" width="206" height="64"/>
		<rect x="0.5" y="9.8" class="st6" width="364" height="216"/>
		<line class="st6" x1="0.5" y1="26.2" x2="364.5" y2="26.2"/>
		<circle class="st6" cx="13.5" cy="17.8" r="3"/>
		<circle class="st6" cx="22.5" cy="17.8" r="3"/>
		<circle class="st6" cx="31.5" cy="17.8" r="3"/>
		<rect x="79.5" y="53.8" class="st6" width="206" height="64"/>
		<rect x="41" y="158.3" class="st7" width="276" height="8.3"/>
		<rect x="41" y="178.2" class="st7" width="276" height="8.3"/>
		<rect x="41" y="198.1" class="st7" width="276" height="8.3"/>
		<rect x="44" y="154.3" class="st6" width="276" height="8.3"/>
		<rect x="44" y="174.2" class="st6" width="276" height="8.3"/>
		<rect x="44" y="194.1" class="st6" width="276" height="8.3"/>
		<polygon class="st8" points="192.6,10.2 179.3,17.5 193.5,12.5 		"/>
		<ellipse transform="matrix(0.9511 -0.3089 0.3089 0.9511 6.4155 61.1421)" class="st1" cx="196.3" cy="10.3" rx="3.7" ry="7.5"/>
		<ellipse transform="matrix(0.9511 -0.3089 0.3089 0.9511 8.7457 64.4415)" class="st1" cx="207.9" cy="4.6" rx="2.8" ry="5.3"/>
		<polygon class="st1" points="197.1,6 206,2.8 207.9,8 199.3,13.8 		"/>
	</g>
	<g>
		<ellipse class="st5" cx="667" cy="644.3" rx="151" ry="34"/>
		<ellipse class="st6" cx="681" cy="634.3" rx="151" ry="34"/>
		<polygon class="st8" points="600.8,205 572.7,220.5 602.7,210 		"/>
		
			<ellipse transform="matrix(0.9511 -0.3089 0.3089 0.9511 -33.6517 198.0385)" class="st1" cx="608.6" cy="205.3" rx="7.8" ry="15.8"/>
		
			<ellipse transform="matrix(0.9511 -0.3089 0.3089 0.9511 -28.7428 204.9893)" class="st1" cx="633" cy="193.3" rx="5.9" ry="11.1"/>
		<polygon class="st1" points="610.4,196.2 629,189.5 632.9,200.4 614.9,212.6 		"/>
		<path class="st9" d="M608.6,236.5l5-11c0,0,12-32,1-26s-15,22-15,22l-3,10L608.6,236.5z"/>
		<path class="st9" d="M745.6,402.5c0,0-17,33-22,34s-5-30-5-30s10-9,14-8S745.6,402.5,745.6,402.5z"/>
		<path class="st10" d="M720.6,610.5c0,0,9,5,5,16s-6,8-8,17s-20,8-21,4s-3-20,2-26S720.6,610.5,720.6,610.5z"/>
		<path class="st10" d="M631.6,610.5c0,0-9,5-5,16s6,8,8,17s20,8,21,4s3-20-2-26S631.6,610.5,631.6,610.5z"/>
		<path class="st1" d="M715.6,410.5c0,0,8,5,10,36s-1,66-2,74s1,20,3,26s-5,52-5,52c3,6.3,3,13.7,0,20c-5,11-20,22-24,11
			c-0.2-3.8-1.2-7.6-3-11c-3-6,2-30,2-30s-4-38-3-48s-12-69-14-79s-1-18-2-15s-19,86-19,86s2,53,1,60s4,21,1,26s-9,23-20,12
			s-9-15-10-20s0-11,0-19s-8-53-4-60s2-16,1-32s-2-93,8-107S715.6,410.5,715.6,410.5z"/>
		<path class="st9" d="M706.6,208.5c0,0-1,36,4,42c5,6-43-5-43-5s11-23,4-38S706.6,208.5,706.6,208.5z"/>
		<path class="st10" d="M715.6,246.5c0,0-2-8-14-10s-26.2-4-30.6,0s-6.4,9-9.4,9h-14l-22,39c0,0,11,13,8,37s-8,68-8,68
			c8,10.7,15,22.1,21,34c10,20,79,18,75-17c0,0-5-9-3-17s8-62,8-62l23-61C749.6,266.5,717.6,250.5,715.6,246.5z"/>
		<path class="st10" d="M742.6,265.5h7c0,0,4,23,3,37s-1,47-1,47s4,8,3,15s-3,26-3,26s-1,27-20,13c0,0-6-3-3-16s-2-27-2-27s3-9,2-15
			s-5-25-5-25L742.6,265.5z"/>
		<path class="st10" d="M652.6,248.5l-5-3c0,0-7-3-17,0s-15,2-19,1s-1-11-1-11s-8-14-16-6s-8,24-8,24s-5,10,13,16s26,15,26,15h20
			L652.6,248.5z"/>
		<path class="st1" d="M689.5,227.6c-0.1-1.8-1.2-3.4-2.9-4.1c-1.1-0.4-2.3-0.6-3.4-0.7c-3.4-0.4-6.9-1.7-8.9-4.3
			c-2.6-3.5-1.9-8.3-4-12.1c-1-1.5-2.1-2.9-3.2-4.2c-3.7-4.9-4.3-11.3-4.7-17.3c-0.2-1.2,0-2.5,0.4-3.6c0.6-1,1.4-2,2.3-2.8
			c1.5-1.7,2.3-4,2.3-6.2c-0.1-4.7,6.5-7.8,11.3-9.4s9.8-1.9,14.8-1.9c2.9,0,5.9,0,8.5,1c1.5,0.7,3,1.5,4.3,2.5
			c5.6,4.1,10.8,9.1,12.6,15.4c0.7,2.9,1.1,5.9,1,8.8c0.1,0.9,0,1.9-0.4,2.7c-0.7,1.3-2.2,2.1-3.3,3.2c-1.9,2.1-1.6,5.2-1.8,7.9
			c-0.6,5.8-3.9,10.9-8.9,13.8c-1,0.5-2,1.2-2.8,1.9c-0.6,0.8-1.1,1.7-1.5,2.7C699.1,224.9,694.1,227.5,689.5,227.6z"/>
	</g>
</g>
</svg>
