<?xml version="1.0" encoding="utf-8"?>
<!-- Generator: Adobe Illustrator 25.4.1, SVG Export Plug-In . SVG Version: 6.00 Build 0)  -->
<svg version="1.1" id="_x30_3030b4a-9996-4111-83fa-29dc66776d7b"
	 xmlns="http://www.w3.org/2000/svg" xmlns:xlink="http://www.w3.org/1999/xlink" x="0px" y="0px" viewBox="0 0 1000.8 738.8"
	 style="enable-background:new 0 0 1000.8 738.8;" xml:space="preserve">
<style type="text/css">
	.st0{opacity:0.53;enable-background:new    ;}
	.st1{fill:#FFFFFF;}
	.st2{opacity:0.2;}
	.st3{opacity:5.000000e-02;enable-background:new    ;}
	.st4{opacity:0.25;enable-background:new    ;}
	.st5{opacity:0.1;enable-background:new    ;}
	.st6{opacity:0.1;fill:#4285F4;enable-background:new    ;}
	.st7{fill:none;stroke:#535461;stroke-width:2;stroke-miterlimit:10;}
	.st8{fill:#4285F4;}
	.st9{fill:url(#SVGID_1_);}
	.st10{fill:#F6F7F9;}
	.st11{fill:url(#SVGID_00000008865868465409557280000016176051225045266830_);}
	.st12{fill:#797C9C;}
	.st13{fill:none;stroke:#535461;stroke-miterlimit:10;}
	.st14{fill:url(#SVGID_00000123433654024838357710000014380589177183012257_);}
	.st15{fill:#E8EAF1;}
	.st16{fill:#FFB9B9;}
	.st17{fill:#E4E2F3;}
	.st18{fill:#4C4C78;}
	.st19{fill:#B36362;}
	.st20{fill:url(#SVGID_00000139257807449149789360000013274016014374093231_);}
	.st21{fill:#DB8B8B;}
	.st22{fill:#474463;}
	.st23{fill:#CBCDDA;}
	.st24{fill:#472727;}
</style>
<g>
	<g>
		<g class="st0">
			<path class="st1" d="M150.1,733.1c-18.4,0-37.2-3.3-53.3-6.4c-2.8-0.5-5.2-2.2-6.6-4.6c-1.5-2.4-1.9-5.3-1.1-8
				c8.6-30.3,12.3-61.6,11-93.1c-0.5-10.9-1.8-24.7-8-34.5c-5.3-8.4-14-14.2-23.3-20.4c-1.2-0.8-2.3-1.6-3.5-2.4
				C41.8,548,20.5,529.2,1.9,508c-3.6-4-11.1-12.5-11.2-23.5C-9.4,468.8,3.4,457.7,26,454c4-0.6,8.3-1.1,12.8-1.6
				c7.2-0.8,15.1-1.6,21.5-3.3c-4.4-7.6-10.1-14.8-16.1-22.2c-10.6-13.2-21.6-26.8-27.4-45.6c-10.3-33.4-9-67.5,3.6-96
				c18.3-41.2,55-66.1,90.4-90.1c35.2-23.9,68.4-46.4,83.9-83.5c2.7-6.4,4.8-13.2,7-20.3c4.3-13.9,8.7-28.3,17.9-40.6
				c10-13.4,23.8-21.7,34.7-27.5C297.3,0.6,349.2-10,417.5-10c3.1,0,6.1,0,9.2,0.1c49.6,0.6,112.9,6.3,161.4,45.2
				c7.8,6.2,15.1,13.3,22.2,20.1c15.7,15.1,30.6,29.3,48.9,34.2c5.1,1.4,10.4,2,16.3,2c11.7,0,23.8-2.6,36.6-5.4
				c13.4-2.9,27.2-5.9,41.3-5.9c4,0,8,0.2,11.7,0.7c28.4,3.7,55.7,22.6,74.8,52c18.1,27.8,26.6,60.4,31.9,85.6
				c7,33.3,11.3,67.5,12.6,101.5c0.1,3.4,0.2,6.9,0.3,10.4c1,32.9,2.1,67,20.6,90.4c10.6,13.5,25.9,21.9,42,30.7
				c4.1,2.2,8.3,4.5,12.4,6.9c29.2,17,45.5,36.4,49.9,59.3c6.3,33-14,61.6-36.8,87.6c-8.2,9.4-18.4,21.1-32.1,27.2
				c-11.1,5-22.8,5.6-31.7,5.6c-3.5,0-6.9-0.1-10.7-0.2l-235.1-8.1c-0.7,0-1.4,0-2.2,0c-2,0-2.7,0.2-2.9,0.3
				c-0.8,0.7-1.8,3.8-2.5,5.6c-0.2,0.5-0.3,1-0.5,1.4c-10.5,28.6-38.4,50.4-73,57c-9,1.7-18.5,2.6-28.9,2.6
				c-18.6,0-37.3-2.7-55.3-5.4l-3.8-0.6c-66.5-9.7-134.2-16.4-201.1-19.9c-4.2-0.2-8.6-0.4-13-0.4c-10.6,0-18.1,1.3-24.6,4.2
				c-9.6,4.3-17.6,12.8-26,21.8c-6.5,7-13.3,14.1-21.3,20C192.8,727.7,173.7,733.1,150.1,733.1C150.1,733.1,150.1,733.1,150.1,733.1
				z"/>
		</g>
		<g class="st0">
			<g>
				<path class="st1" d="M885.5,380.9c-0.3,0-0.5,0-0.8,0c-5.5-0.4-9.6-5.2-9.2-10.7c0.2-2.8,5.5-68,43.9-104.9
					c13.6-12.9,22.8-30.1,25.9-48.6c1.5-9.1,2.1-18.5,1.9-27.8c-0.1-5.5,4.2-10.1,9.8-10.2c5.5-0.1,10.1,4.2,10.2,9.8
					c0.3,10.5-0.5,21.1-2.1,31.6c-3.9,22.7-15.2,43.9-31.8,59.8c-32.9,31.6-37.7,91.3-37.8,91.9
					C895.1,376.9,890.7,380.9,885.5,380.9z"/>
			</g>
			<g>
				<path class="st1" d="M955.7,200.3c-1.2,0-2.4-0.2-3.5-0.6c-3.2-1.2-5.6-4-6.3-7.4c-2.1-10.5-5.1-29.3-1.9-37.7
					c3.5-9.2,12.3-15.3,22.1-15.3c2.9,0,5.7,0.5,8.3,1.5c5.9,2.2,10.6,6.6,13.2,12.4s2.8,12.2,0.6,18.1c-0.1,0.3-0.2,0.5-0.3,0.8
					c-3.7,8.4-17.8,20-26.1,26.2C960,199.6,957.9,200.3,955.7,200.3z"/>
			</g>
			<g>
				<path class="st1" d="M954.5,230c-3.2,0-6.2-1.5-8.1-4.1c-2-2.8-2.5-6.4-1.2-9.6c3.9-9.9,11.6-27.3,18.9-32.7
					c4.1-3,8.9-4.6,14-4.6c7.5,0,14.6,3.6,19,9.6c7.6,10.3,5.5,24.9-4.6,32.7c-0.1,0.1-0.3,0.2-0.4,0.3c-7.3,5.4-26.2,7.5-36.9,8.3
					C955,230,954.7,230,954.5,230z"/>
			</g>
			<g>
				<path class="st1" d="M959.2,289.9c-9.8,0-28.6-8.8-34.1-11.5c-3.1-1.5-5.2-4.5-5.6-7.9c-0.4-3.4,1.1-6.8,3.8-8.9
					c8.4-6.6,23.8-17.7,32.8-18.7c0.8-0.1,1.7-0.1,2.5-0.1c12.1,0,22.2,9.1,23.5,21.1c0.7,6.3-1.2,12.4-5.1,17.3
					c-4,4.9-9.6,8-15.9,8.6C960.5,289.8,959.9,289.9,959.2,289.9z"/>
			</g>
			<g>
				<path class="st1" d="M925.6,335.8c-10.7,0-29.2-5.3-31.3-5.9c-3.3-1-5.9-3.6-6.8-6.9c-0.9-3.3-0.1-6.9,2.2-9.5
					c7.2-7.9,20.5-21.5,29.2-24c2.1-0.6,4.3-0.9,6.5-0.9c10.5,0,19.9,7.1,22.7,17.2c3.5,12.5-3.8,25.6-16.3,29.1
					C929.9,335.6,928,335.8,925.6,335.8z"/>
			</g>
			<g>
				<path class="st1" d="M952,242.1c-1.9,0-3.8-0.5-5.4-1.6c-9-5.8-24.6-16.7-28.4-24.9c-2.7-5.7-3-12.1-0.8-18
					c2.1-5.9,6.5-10.7,12.2-13.4c3.2-1.5,6.5-2.2,10-2.2c9.1,0,17.5,5.3,21.4,13.6c3.8,8.2,2.3,27.2,1,37.8
					c-0.4,3.4-2.6,6.4-5.7,7.9C954.9,241.8,953.4,242.1,952,242.1z"/>
			</g>
			<g>
				<path class="st1" d="M921.4,287.6c-0.9,0-1.8-0.1-2.7-0.4c-10-2.8-27.5-8.3-34.1-14.8c-0.2-0.2-0.3-0.3-0.5-0.5
					c-8.8-9.6-8.1-24.6,1.4-33.4c4.4-4,10-6.2,16-6.2c6.6,0,12.9,2.8,17.4,7.7c6.1,6.7,10.3,25.2,12.2,35.7c0.6,3.4-0.5,6.9-3.1,9.2
					C926.3,286.6,923.9,287.6,921.4,287.6z"/>
			</g>
			<g>
				<path class="st1" d="M891.5,349.5c-1.5,0-2.9-0.3-4.3-1c-9.3-4.4-25.4-12.7-30.9-20.1c-0.2-0.2-0.4-0.5-0.5-0.8
					c-3.4-5.3-4.6-11.6-3.2-17.8c1.3-6.2,5-11.4,10.3-14.9c3.8-2.5,8.2-3.8,12.8-3.8c8.1,0,15.5,4,19.9,10.8
					c4.9,7.6,5.9,26.6,6,37.3c0,3.4-1.7,6.7-4.6,8.5C895.3,349,893.4,349.5,891.5,349.5z"/>
			</g>
		</g>
		<g>
			<path class="st1" d="M164.1,558.8c-5.5,0-10-4.5-10-10v-461c0-5.5,4.5-10,10-10h740.8c5.5,0,10,4.5,10,10v461c0,5.5-4.5,10-10,10
				H164.1z"/>
		</g>
		<g>
			<path class="st1" d="M171.9,137.9c-5.5,0-10-4.5-10-10V92.7c0-5.5,4.5-10,10-10h725.1c5.5,0,10,4.5,10,10v35.2
				c0,5.5-4.5,10-10,10H171.9z"/>
		</g>
		<g class="st2">
			<g>
				<path class="st1" d="M171.9,137.9c-5.5,0-10-4.5-10-10V92.7c0-5.5,4.5-10,10-10h725.1c5.5,0,10,4.5,10,10v35.2
					c0,5.5-4.5,10-10,10H171.9z"/>
			</g>
		</g>
		<g>
			<path class="st1" d="M171.9,554c-5.5,0-10-4.5-10-10v-416c0-5.5,4.5-10,10-10h725.1c5.5,0,10,4.5,10,10v416c0,5.5-4.5,10-10,10
				H171.9z"/>
		</g>
		<g>
			<path class="st1" d="M189.3,127.9c-9.8,0-17.8-8-17.8-17.8s8-17.8,17.8-17.8c9.8,0,17.8,8,17.8,17.8S199.2,127.9,189.3,127.9z"/>
		</g>
		<g>
			<path class="st1" d="M210.2,127.9c-9.8,0-17.8-8-17.8-17.8s8-17.8,17.8-17.8c9.8,0,17.8,8,17.8,17.8S220,127.9,210.2,127.9z"/>
		</g>
		<g>
			<path class="st1" d="M231.1,127.9c-9.8,0-17.8-8-17.8-17.8s8-17.8,17.8-17.8c9.8,0,17.8,8,17.8,17.8S240.9,127.9,231.1,127.9z"/>
		</g>
		<g class="st2">
			<g>
				<path class="st1" d="M197.2,216.6c-5.5,0-10-4.5-10-10v-26.9c0-5.5,4.5-10,10-10h373c5.5,0,10,4.5,10,10v26.9
					c0,5.5-4.5,10-10,10H197.2z"/>
			</g>
		</g>
		<g class="st2">
			<g>
				<path class="st1" d="M665.8,216.6c-5.5,0-10-4.5-10-10v-26.9c0-5.5,4.5-10,10-10h195.6c5.5,0,10,4.5,10,10v26.9
					c0,5.5-4.5,10-10,10H665.8z"/>
			</g>
		</g>
		<g class="st2">
			<g>
				<path class="st1" d="M269.8,530.5c-5.5,0-10-4.5-10-10v-86.1c0-5.5,4.5-10,10-10h26.1c5.5,0,10,4.5,10,10v86.1
					c0,5.5-4.5,10-10,10H269.8z"/>
			</g>
			<g>
				<path class="st1" d="M320.2,530.5c-5.5,0-10-4.5-10-10V372.7c0-5.5,4.5-10,10-10h26.1c5.5,0,10,4.5,10,10v147.8
					c0,5.5-4.5,10-10,10H320.2z"/>
			</g>
			<g>
				<path class="st1" d="M370.6,530.5c-5.5,0-10-4.5-10-10V310.9c0-5.5,4.5-10,10-10h26.1c5.5,0,10,4.5,10,10v209.5
					c0,5.5-4.5,10-10,10H370.6z"/>
			</g>
			<g>
				<path class="st1" d="M421,530.5c-5.5,0-10-4.5-10-10V330.9c0-5.5,4.5-10,10-10h26.1c5.5,0,10,4.5,10,10v189.5
					c0,5.5-4.5,10-10,10H421z"/>
			</g>
			<g>
				<path class="st1" d="M471.5,530.5c-5.5,0-10-4.5-10-10V390.1c0-5.5,4.5-10,10-10h26.1c5.5,0,10,4.5,10,10v130.4
					c0,5.5-4.5,10-10,10H471.5z"/>
			</g>
		</g>
		<g class="st2">
			<g>
				<path class="st1" d="M665.4,516.1c-5.5,0-10-4.5-10-10V265.7c0-5.5,4.5-10,10-10H861c5.5,0,10,4.5,10,10v240.4
					c0,5.5-4.5,10-10,10H665.4z"/>
			</g>
		</g>
		<g>
			<path class="st1" d="M940.8,745c-20.8,0-32.4-3.1-37.8-10c-5.6-7.2-5.1-12.9-3.7-16.5c0.9-2.4,2.4-4.2,4.1-5.6
				c-0.2-2.4,0.3-4.5,1-6.1c3.4-8.4,12.9-9.6,18.6-10.4c0.3-0.3,0.9-0.7,1.6-1.5c-0.8-3-2.2-7.5-4.8-14.1c0,0,0-0.1,0-0.1
				c-4.7-12.3-7.1-25.2-7-38.4c0-3.4-0.8-6.8-2.1-9.9c0-0.1-0.1-0.2-0.1-0.3c-0.9-2.3-1.5-4.8-1.7-7.3c-0.6-5.5-3.1-12.9-4-15.4
				c0-0.1,0-0.1-0.1-0.2c-0.4-1.2-10.3-29.6-12.9-51.1c-1.2-10-1.1-20.1,0.3-30c-0.2-0.8-0.4-1.7-0.4-2.6v-19.5c0-0.5,0-1.1,0.1-1.6
				c0-0.3,4.6-28.9,1.6-48.2c-1.4-9.3-0.5-16,1.3-20.8c-4.9-4.1-11.7-9.6-18-13.8c-12.2-8.1-15.6-15.5-16.6-19.6l-6.3-16.7
				c-0.5-1.3-0.7-2.7-0.6-4c0.2-3,0-3.4-0.7-5.6c-0.6-1.8-1.4-4.1-2.2-7.9c-0.4-1.2-0.6-2.5-0.5-3.8c0.5-9.5,7.7-23.6,25.4-23.6
				c1,0,2,0,3.1,0.1c0.2,0,0.5,0,0.7,0.1c2.1-2.4,4.7-4.4,7.4-5.9c1.5-0.9,3.2-1.3,4.9-1.3c2.3,0,4.5,0.8,6.3,2.3
				c1.8,1.5,6.8,5.4,10.7,7.8c1.1-3.4,3.9-5.9,6.4-7.9c1.7-1.4,3.1-2.5,4.5-3.3c2.1-1.3,4.1-2.8,6-4.4c5.3-4.8,13.5-11,23.7-11
				c0.1,0,0.3,0,0.4,0c0.2,0,0.4,0,0.6,0c2.6,0,5.1,0.4,7.5,1.2c2.3,0.7,4.2,1.7,5.7,2.5c1,0.5,2,1.1,2.7,1.3
				c0.6,0.1,1.2,0.2,1.7,0.2c1,0,2.1-0.1,3.2-0.2c1.5-0.1,3.1-0.2,4.8-0.2c0.2,0,0.4,0,0.7,0c3.2,0,8.1,0.4,12.7,3.4
				c0.1,0.1,0.2,0.2,0.4,0.3c3.9,2.8,6.9,6.9,8.3,11.5c3.3,9.6,1.4,18.9-0.3,27.1c-0.9,4.4-1.8,8.6-1.8,12.3c0,0.2,0,0.4,0,0.6
				c0,0.1,0,0.2,0,0.3c0.3,0.2,0.6,0.6,0.9,0.8c0.8,0.7,1.8,1.5,2.8,2.6c8.5,8.9,6.7,20.5,5.5,28.9c-0.5,3.1-0.9,6-0.9,8.4
				c0,3.1,0.9,6.6,1.9,10.4c0.6,2.2,1.1,4.5,1.6,6.8c2.2,11,0.3,20.3-5.3,27c-2,2.4-4.2,4.1-6.2,5.6c-0.9,0.7-2.3,1.8-2.9,2.4
				c0.2,0.7,0.9,2.1,2.7,4.6c1.7,2.4,2.2,5.4,1.4,8.3s-2.7,5.2-5.4,6.4c-4.2,2-8.8,3.2-13.4,3.5c0.1,0.8,0.2,1.5,0.4,2.3
				c1.7,9.3,3,15.5,4,19.3c4.6,9.1,7.2,25.1-4.2,50.4c-13.8,30.8-20,41.3-22.4,44.8c0,1.6,0,3,0,4.4c0.1,0.1,0.2,0.2,0.2,0.3
				c0,0,0,0,0.1,0.1c11.1,11.6,14,34.2,14.3,36.8c0,0.4,0.1,0.8,0.1,1.1v34.8c0,1-0.1,2-0.4,2.9c3.5,3.2,7.7,11.2,6.5,33.2
				c-0.2,3.4-2.1,6.4-4.9,8.1c0,2-0.1,3.4-0.1,3.5c-0.3,4.9-4.1,8.9-9,9.4C962.6,743.9,952.4,745,940.8,745z M898.4,388.7
				c2,0,4.2,0.1,6.4,0.2c-0.3-0.3-0.5-0.5-0.8-0.8c-8.1-7.6-11.1-11.3-12.6-13.5c-1.1-0.6-2.2-1.2-3.3-1.7
				C889.8,381.5,895.5,386.6,898.4,388.7z"/>
		</g>
		<g>
			<path class="st1" d="M938.9,419.2c-2.3,0-4.6-0.8-6.5-2.4c-10.5-8.9-35.5-30.5-40.2-39.1c-1.7-3.1-6.9-5.6-9.1-6.3
				c-3-0.9-5.3-3.1-6.4-6c-4.3-11.2,2.9-21.5,11.4-26.4c1.6-0.9,3.3-1.3,5-1.3c2.3,0,4.6,0.8,6.5,2.4c2,1.7,8.1,6.6,12,8.8
				c5.5,3.2,16.1,13.9,21.9,20.1c27.2,8.6,36.9,20.7,38,22.1c1.8,2.4,2.4,5.4,1.7,8.3c-0.7,2.9-2.6,5.3-5.3,6.6l-24.5,12.2
				C941.9,418.9,940.4,419.2,938.9,419.2z"/>
		</g>
		<g class="st3">
			<path class="st1" d="M943.9,424.2c-2.3,0-4.6-0.8-6.5-2.4c-10.5-8.9-35.5-30.5-40.2-39.1c-1.7-3.1-6.9-5.6-9.1-6.3
				c-3-0.9-5.3-3.1-6.4-6c-4.3-11.2,2.9-21.5,11.4-26.4c1.6-0.9,3.3-1.3,5-1.3c2.3,0,4.6,0.8,6.5,2.4c2,1.7,8.1,6.6,12,8.8
				c5.5,3.2,16.1,13.9,21.9,20.1c27.2,8.6,36.9,20.7,38,22.1c1.8,2.4,2.4,5.4,1.7,8.3c-0.7,2.9-2.6,5.3-5.3,6.6l-24.5,12.2
				C946.9,423.9,945.4,424.2,943.9,424.2z"/>
		</g>
		<g>
			<path class="st1" d="M64.2,742.2c-1.5,0-3.1-0.3-4.5-1.1c-46-23.2-68.8-46-69.7-69.9c-0.9-22.8,19.6-35.4,20.4-36
				c0.1,0,1.1-0.6,1.1-0.7c6.7-3.7,14.3-5.7,21.9-5.7c14.3,0,27.9,6.9,36.3,18.5c29.3,40.1,4.3,87.6,3.2,89.6
				C71.2,740.3,67.8,742.2,64.2,742.2z"/>
		</g>
		<g>
			<path class="st1" d="M64.3,742.2c-0.1,0-0.2,0-0.3,0c-5.5-0.1-9.9-4.7-9.7-10.3c1.2-45.5-43.6-80.5-44.1-80.9
				c-4.4-3.4-5.2-9.6-1.8-14c3.4-4.4,9.6-5.2,14-1.9c2.2,1.7,53.4,41.5,51.9,97.3C74.1,737.8,69.7,742.2,64.3,742.2z"/>
		</g>
		<g>
			<path class="st1" d="M67,742.8c-4.3,0-8.3-2.8-9.6-7.2C56.6,733,38.5,670,61.3,622c8.2-16.9,10.7-36.2,7.1-54.6
				c-1.9-9.1-4.6-18.1-8.1-26.7c-2.1-5.1,0.4-10.9,5.5-13c5.1-2.1,10.9,0.4,13,5.5c4,9.8,7,20,9.1,30.3c4.4,22.6,1.4,46.4-8.6,67.1
				c-19.5,41-2.9,98.8-2.8,99.3c1.5,5.3-1.5,10.9-6.8,12.4C68.9,742.7,67.9,742.8,67,742.8z"/>
		</g>
		<g>
			<path class="st1" d="M69.4,547.7c-3.4,0-6.7-1.8-8.5-4.7c-5.6-9-15.1-25.6-15.1-34.6c0-13,10.6-23.6,23.6-23.6
				c13,0,23.6,10.6,23.6,23.6c0,0.3,0,0.6,0,0.9c-0.6,9.2-9.6,25-15.1,33.8C76,545.9,72.8,547.7,69.4,547.7L69.4,547.7z"/>
		</g>
		<g>
			<path class="st1" d="M78.1,577.3c-1.9,0-3.8-0.5-5.4-1.6c-2.9-1.9-4.6-5.1-4.6-8.6c0.2-10.7,1.2-29.7,6.1-37.3
				c4.4-6.7,11.8-10.8,19.8-10.8c4.6,0,9,1.3,12.8,3.8c10.9,7.1,14.1,21.7,7,32.7c-0.1,0.2-0.3,0.4-0.4,0.6
				c-5.4,7.4-21.7,15.8-31.1,20.2C81,577,79.6,577.3,78.1,577.3z"/>
		</g>
		<g>
			<path class="st1" d="M89.6,633.1c-9,0-17.9-0.8-18.3-0.9c-3.4-0.3-6.5-2.4-8-5.5c-1.5-3.1-1.4-6.7,0.4-9.7
				c5.5-9.1,16-25.1,24.1-29.1c3.3-1.6,6.9-2.5,10.6-2.5c9,0,17.1,5,21.1,13c5.7,11.3,1.5,25-9.4,31.2c-0.3,0.2-0.7,0.4-1,0.6
				C106.3,631.5,101.7,633.1,89.6,633.1z"/>
		</g>
		<g>
			<path class="st1" d="M60,691.4c-3.2,0-6.1-1.5-8-4.1c-2.1-2.8-2.5-6.4-1.3-9.6c3.9-9.9,11.6-27.4,18.8-32.8c4.1-3,8.9-4.6,14-4.6
				c7.5,0,14.6,3.6,19,9.6c7.7,10.5,5.5,25.3-4.9,33c-7.2,5.4-26.2,7.6-36.8,8.4C60.5,691.4,60.2,691.4,60,691.4z"/>
		</g>
		<g>
			<path class="st1" d="M80.1,589.4c-0.7,0-1.4-0.1-2.1-0.2c-10-2.2-27.5-6.6-34.6-12.5c-0.3-0.2-0.6-0.5-0.8-0.7
				c-4.5-4.4-7.1-10.3-7.1-16.6s2.3-12.3,6.7-16.8c4.5-4.6,10.5-7.2,16.9-7.2c6.2,0,12,2.4,16.5,6.7c6.5,6.2,11.7,24.6,14.3,35
				c0.8,3.3-0.1,6.9-2.5,9.4C85.3,588.4,82.7,589.4,80.1,589.4z"/>
		</g>
		<g>
			<path class="st1" d="M50.2,643.5c-12.2,0-16.8-1.5-19.4-2.9c-0.4-0.2-0.7-0.4-1-0.6c-10.8-6.2-15.1-19.9-9.4-31.2
				c4-8,12.1-13,21.1-13c3.7,0,7.3,0.9,10.6,2.5c8.1,4,18.6,20,24.1,29.1c1.8,2.9,1.9,6.6,0.4,9.7c-1.5,3.1-4.6,5.1-8,5.5
				C68.1,642.7,59.2,643.5,50.2,643.5C50.2,643.5,50.2,643.5,50.2,643.5z"/>
		</g>
		<g>
			<path class="st1" d="M61.5,711.3c-0.3,0-0.5,0-0.8,0c-10.7-0.8-29.6-3.1-36.9-8.4c-5-3.7-8.4-9.2-9.3-15.5
				c-0.9-6.2,0.6-12.5,4.4-17.5c4.4-6,11.5-9.6,19-9.6c5.1,0,9.9,1.6,14,4.6c7.3,5.4,14.9,22.8,18.8,32.8c1.3,3.2,0.8,6.8-1.3,9.6
				C67.7,709.8,64.7,711.3,61.5,711.3z"/>
		</g>
		<g class="st4">
			<path class="st1" d="M69.4,547.7c-3.4,0-6.7-1.8-8.5-4.7c-5.6-9-15.1-25.6-15.1-34.6c0-13,10.6-23.6,23.6-23.6
				c13,0,23.6,10.6,23.6,23.6c0,0.3,0,0.6,0,0.9c-0.6,9.2-9.6,25-15.1,33.8C76,545.9,72.8,547.7,69.4,547.7L69.4,547.7z"/>
		</g>
		<g class="st4">
			<path class="st1" d="M78.1,577.3c-1.9,0-3.8-0.5-5.4-1.6c-2.9-1.9-4.6-5.1-4.6-8.6c0.2-10.7,1.2-29.7,6.1-37.3
				c4.4-6.7,11.8-10.8,19.8-10.8c4.6,0,9,1.3,12.8,3.8c10.9,7.1,14.1,21.7,7,32.7c-0.1,0.2-0.3,0.4-0.4,0.6
				c-5.4,7.4-21.7,15.8-31.1,20.2C81,577,79.6,577.3,78.1,577.3z"/>
		</g>
		<g class="st4">
			<path class="st1" d="M89.6,633.1c-9,0-17.9-0.8-18.3-0.9c-3.4-0.3-6.5-2.4-8-5.5c-1.5-3.1-1.4-6.7,0.4-9.7
				c5.5-9.1,16-25.1,24.1-29.1c3.3-1.6,6.9-2.5,10.6-2.5c9,0,17.1,5,21.1,13c5.7,11.3,1.5,25-9.4,31.2c-0.3,0.2-0.7,0.4-1,0.6
				C106.3,631.5,101.7,633.1,89.6,633.1z"/>
		</g>
		<g class="st4">
			<path class="st1" d="M60,691.4c-3.2,0-6.1-1.5-8-4.1c-2.1-2.8-2.5-6.4-1.3-9.6c3.9-9.9,11.6-27.4,18.8-32.8c4.1-3,8.9-4.6,14-4.6
				c7.5,0,14.6,3.6,19,9.6c7.7,10.5,5.5,25.3-4.9,33c-7.2,5.4-26.2,7.6-36.8,8.4C60.5,691.4,60.2,691.4,60,691.4z"/>
		</g>
		<g class="st4">
			<path class="st1" d="M80.1,589.4c-0.7,0-1.4-0.1-2.1-0.2c-10-2.2-27.5-6.6-34.6-12.5c-0.3-0.2-0.6-0.5-0.8-0.7
				c-4.5-4.4-7.1-10.3-7.1-16.6s2.3-12.3,6.7-16.8c4.5-4.6,10.5-7.2,16.9-7.2c6.2,0,12,2.4,16.5,6.7c6.5,6.2,11.7,24.6,14.3,35
				c0.8,3.3-0.1,6.9-2.5,9.4C85.3,588.4,82.7,589.4,80.1,589.4z"/>
		</g>
		<g class="st4">
			<path class="st1" d="M50.2,643.5c-12.2,0-16.8-1.5-19.4-2.9c-0.4-0.2-0.7-0.4-1-0.6c-10.8-6.2-15.1-19.9-9.4-31.2
				c4-8,12.1-13,21.1-13c3.7,0,7.3,0.9,10.6,2.5c8.1,4,18.6,20,24.1,29.1c1.8,2.9,1.9,6.6,0.4,9.7c-1.5,3.1-4.6,5.1-8,5.5
				C68.1,642.7,59.2,643.5,50.2,643.5C50.2,643.5,50.2,643.5,50.2,643.5z"/>
		</g>
		<g class="st4">
			<path class="st1" d="M61.5,711.3c-0.3,0-0.5,0-0.8,0c-10.7-0.8-29.6-3.1-36.9-8.4c-5-3.7-8.4-9.2-9.3-15.5
				c-0.9-6.2,0.6-12.5,4.4-17.5c4.4-6,11.5-9.6,19-9.6c5.1,0,9.9,1.6,14,4.6c7.3,5.4,14.9,22.8,18.8,32.8c1.3,3.2,0.8,6.8-1.3,9.6
				C67.7,709.8,64.7,711.3,61.5,711.3z"/>
		</g>
		<g>
			<path class="st1" d="M108.8,744c-4.3,0-8.3-2.8-9.6-7.2c-0.8-2.7-18.9-65.6,4-113.6c8.2-16.9,10.7-36.2,7.1-54.6
				c-1.8-9.1-4.6-18.1-8.1-26.7c-2.1-5.1,0.4-10.9,5.5-13c5.1-2.1,10.9,0.4,13,5.5c4,9.8,7,20,9.1,30.3c4.4,22.6,1.4,46.4-8.6,67.1
				c-19.5,41-3,98.8-2.8,99.3c1.5,5.3-1.5,10.9-6.8,12.4C110.7,743.8,109.8,744,108.8,744z"/>
		</g>
		<g>
			<path class="st1" d="M111.2,548.9c-3.4,0-6.7-1.8-8.5-4.7c-5.6-9-15.1-25.6-15.1-34.6c0-13,10.6-23.6,23.6-23.6
				c13,0,23.6,10.6,23.6,23.6c0,0.3,0,0.6,0,0.9c-0.6,9.2-9.6,25-15.1,33.7C117.8,547.1,114.6,548.9,111.2,548.9z"/>
		</g>
		<g>
			<path class="st1" d="M119.9,578.5c-1.9,0-3.8-0.5-5.4-1.6c-2.9-1.9-4.6-5.1-4.6-8.6c0.2-10.7,1.2-29.7,6.1-37.3
				c4.4-6.7,11.8-10.8,19.8-10.8c4.6,0,9,1.3,12.8,3.8c10.9,7.1,14.1,21.7,7,32.7c-0.1,0.2-0.2,0.4-0.4,0.5
				c-5.4,7.4-21.7,15.9-31.1,20.3C122.8,578.1,121.4,578.5,119.9,578.5z"/>
		</g>
		<g>
			<path class="st1" d="M131.4,634.2c-9,0-17.9-0.8-18.3-0.9c-3.4-0.3-6.5-2.4-8-5.5s-1.4-6.7,0.4-9.7c5.5-9.1,16-25.1,24.1-29.1
				c3.3-1.6,6.9-2.5,10.6-2.5c9,0,17.1,5,21.1,13c5.9,11.6,1.2,25.9-10.5,31.7C148.2,632.7,143.5,634.2,131.4,634.2z"/>
		</g>
		<g>
			<path class="st1" d="M101.8,692.6c-3.2,0-6.1-1.5-8-4.1c-2.1-2.8-2.5-6.4-1.3-9.6c3.9-9.9,11.6-27.4,18.8-32.8
				c4.1-3,8.9-4.6,14-4.6c7.5,0,14.6,3.6,19,9.6c3.8,5.1,5.3,11.3,4.4,17.5c-0.9,6.2-4.2,11.7-9.3,15.5c-7.2,5.4-26.2,7.6-36.8,8.4
				C102.3,692.6,102,692.6,101.8,692.6z"/>
		</g>
		<g>
			<path class="st1" d="M121.9,590.6c-0.7,0-1.4-0.1-2.1-0.2c-10-2.2-27.5-6.6-34.6-12.5c-0.3-0.2-0.6-0.5-0.8-0.7
				c-4.5-4.4-7.1-10.3-7.1-16.6c-0.1-6.3,2.3-12.3,6.7-16.8c4.5-4.6,10.5-7.2,16.9-7.2c6.2,0,12,2.4,16.5,6.7
				c6.5,6.2,11.7,24.6,14.3,35c0.8,3.3-0.1,6.9-2.5,9.4C127.2,589.5,124.6,590.6,121.9,590.6z"/>
		</g>
		<g>
			<path class="st1" d="M92,644.7c-12.2,0-16.8-1.5-19.4-2.9c-0.4-0.2-0.7-0.4-1.1-0.6c-5.1-2.9-8.9-7.5-10.7-13.1
				c-2-6-1.5-12.4,1.3-18c4-8,12.1-13,21.1-13c3.7,0,7.3,0.9,10.6,2.5c8.1,4,18.6,20,24.1,29.1c1.8,2.9,1.9,6.6,0.4,9.7
				c-1.5,3.1-4.6,5.1-8,5.5C110,643.9,101,644.7,92,644.7C92,644.7,92,644.7,92,644.7z"/>
		</g>
		<g>
			<path class="st1" d="M103.3,712.5c-0.3,0-0.5,0-0.8,0c-10.7-0.8-29.6-3.1-36.9-8.4c-10.4-7.7-12.7-22.5-4.9-33
				c4.4-6,11.5-9.6,19-9.6c5.1,0,9.9,1.6,14,4.6c7.3,5.4,14.9,22.8,18.8,32.8c1.3,3.2,0.8,6.8-1.3,9.6
				C109.5,711,106.5,712.5,103.3,712.5z"/>
		</g>
		<g>
			<path class="st1" d="M24.5,748.8c-5.5,0-10-4.5-10-10v-7c0-5.5,4.5-10,10-10h953c5.5,0,10,4.5,10,10v7c0,5.5-4.5,10-10,10H24.5z"
				/>
		</g>
		<g>
			<path class="st1" d="M698.2,599c-5.5,0-10-4.5-10-10V340.8c0-5.5,4.5-10,10-10h202c5.5,0,10,4.5,10,10V589c0,5.5-4.5,10-10,10
				H698.2z"/>
		</g>
		<g>
			<path class="st1" d="M701.4,595.1c-5.5,0-10-4.5-10-10V344.7c0-5.5,4.5-10,10-10H897c5.5,0,10,4.5,10,10v240.4
				c0,5.5-4.5,10-10,10H701.4z"/>
		</g>
		<g>
			<path class="st1" d="M714.5,415.8c-5.5,0-10-4.5-10-10v-40c0-5.5,4.5-10,10-10h40c5.5,0,10,4.5,10,10v40c0,5.5-4.5,10-10,10
				H714.5z"/>
		</g>
		<g>
			<path class="st1" d="M734.5,447.8c-5.5,0-10-4.5-10-10v-8c0-5.5,4.5-10,10-10h142c5.5,0,10,4.5,10,10v8c0,5.5-4.5,10-10,10H734.5
				z"/>
		</g>
		<g>
			<path class="st1" d="M734.5,464.8c-5.5,0-10-4.5-10-10v-8c0-5.5,4.5-10,10-10h142c5.5,0,10,4.5,10,10v8c0,5.5-4.5,10-10,10H734.5
				z"/>
		</g>
		<g>
			<path class="st1" d="M734.5,481.8c-5.5,0-10-4.5-10-10v-8c0-5.5,4.5-10,10-10h142c5.5,0,10,4.5,10,10v8c0,5.5-4.5,10-10,10H734.5
				z"/>
		</g>
		<g>
			<path class="st1" d="M734.5,498.8c-5.5,0-10-4.5-10-10v-8c0-5.5,4.5-10,10-10h142c5.5,0,10,4.5,10,10v8c0,5.5-4.5,10-10,10H734.5
				z"/>
		</g>
		<g>
			<path class="st1" d="M734.5,515.8c-5.5,0-10-4.5-10-10v-8c0-5.5,4.5-10,10-10h142c5.5,0,10,4.5,10,10v8c0,5.5-4.5,10-10,10H734.5
				z"/>
		</g>
		<g>
			<path class="st1" d="M734.5,532.8c-5.5,0-10-4.5-10-10v-8c0-5.5,4.5-10,10-10h142c5.5,0,10,4.5,10,10v8c0,5.5-4.5,10-10,10H734.5
				z"/>
		</g>
		<g>
			<path class="st1" d="M734.5,549.8c-5.5,0-10-4.5-10-10v-8c0-5.5,4.5-10,10-10h142c5.5,0,10,4.5,10,10v8c0,5.5-4.5,10-10,10H734.5
				z"/>
		</g>
		<g>
			<path class="st1" d="M942.4,716.8c-2.8,0-5.4-1.1-7.3-3.2c-2-2.2-3-5.1-2.6-8.1l2.8-22.5c0.6-5,4.9-8.8,9.9-8.8H957
				c5.3,0,9.6,4.1,10,9.3c0.4,6,1.2,12.6,1.8,14.9c1.6,2.7,2,6,0.8,9c-2.4,6.3-7.6,8.1-26.6,9.2
				C942.8,716.8,942.6,716.8,942.4,716.8z"/>
		</g>
		<g class="st3">
			<path class="st1" d="M942.4,716.8c-2.8,0-5.4-1.1-7.3-3.2c-2-2.2-3-5.1-2.6-8.1l2.8-22.5c0.6-5,4.9-8.8,9.9-8.8H957
				c5.3,0,9.6,4.1,10,9.3c0.4,6,1.2,12.6,1.8,14.9c1.6,2.7,2,6,0.8,9c-2.4,6.3-7.6,8.1-26.6,9.2
				C942.8,716.8,942.6,716.8,942.4,716.8z"/>
		</g>
		<g>
			<path class="st1" d="M945,734.4c-20.1,0-31.4-3.1-36.6-10.1c-5.4-7.3-4.8-13-3.3-16.6c3.4-8.1,12.7-9.5,17.8-10.2
				c1.8-1.5,5.3-6.2,7.8-10.3c1.8-3.1,5.1-4.9,8.6-4.9c0.4,0,0.8,0,1.2,0.1c4,0.5,7.3,3.3,8.4,7.1c0.2,0.8,0.5,1.4,0.7,1.9
				c7.8-3.6,10.7-3.6,11.8-3.6c1.7,0,3.3,0.4,4.7,1.2c2.9,1.6,10.7,5.8,9.2,35c-0.3,4.9-4.1,8.9-9,9.4
				C965.9,733.4,956.1,734.4,945,734.4C945,734.4,945,734.4,945,734.4z"/>
		</g>
		<g class="st3">
			<path class="st1" d="M945,734.4c-20.1,0-31.4-3.1-36.6-10.1c-5.4-7.3-4.8-13-3.3-16.6c3.4-8.1,12.7-9.5,17.8-10.2
				c1.8-1.5,5.3-6.2,7.8-10.3c1.8-3.1,5.1-4.9,8.6-4.9c0.4,0,0.8,0,1.2,0.1c4,0.5,7.3,3.3,8.4,7.1c0.2,0.8,0.5,1.4,0.7,1.9
				c7.8-3.6,10.7-3.6,11.8-3.6c1.7,0,3.3,0.4,4.7,1.2c2.9,1.6,10.7,5.8,9.2,35c-0.3,4.9-4.1,8.9-9,9.4
				C965.9,733.4,956.1,734.4,945,734.4C945,734.4,945,734.4,945,734.4z"/>
		</g>
		<g>
			<path class="st1" d="M952.7,728.6c-0.9,0-1.8-0.1-2.7-0.4l-18.2-5.1c-4.8-1.4-7.9-6-7.2-11l1-7.4l0.9-6.8c0.6-4,3.5-7.3,7.4-8.3
				c2.6-0.7,11.5-2.9,16.3-2.9c7.1,0,11,4.6,11.5,9.5c0.1,1,0.4,2.1,0.7,3.1c0,0.1,0.1,0.2,0.1,0.3c0.6,2.2,1.3,4.8,1.8,6.5
				c0,0.2,0.1,0.3,0.1,0.5c0.3,1,0.5,1.7,0.5,1.8c0.6,2.1,0.6,4.3-0.2,6.3l-2.8,7.5C960.6,726.1,956.8,728.6,952.7,728.6z"/>
		</g>
		<g>
			<path class="st1" d="M944,699.4c-4.6,0-8.6-3.1-9.7-7.6l-14.2-58.4c0-0.2-0.1-0.3-0.1-0.5c-0.1-0.4-2.1-11.1-3.7-22.8
				c-3.3-24.1-1.6-30.1,0.3-33.8c2-4.8,4.9-30,6.4-50.7c0.2-2.3,1.2-4.5,2.8-6.2l3.3-3.4l7.8-8c1.9-2,4.5-3.1,7.2-3.1h22.5
				c2.1,0,4.1,0.7,5.8,1.9c2.9,2.1,5.4,4.9,7.2,8c5.3,8.9,9.1,25.1-2.6,52.3c-15.5,35.9-21,44.1-22.3,45.7c-0.2,0.2-0.3,0.4-0.5,0.6
				c-0.1,0.2-0.1,0.5,0,0.7c0.1,0.1,0.1,0.2,0.2,0.3c0.4,0.7,0.8,1.3,1.4,1.9c0,0,0.1,0.1,0.1,0.1c10.6,11.5,13.3,33.9,13.6,36.4
				c0,0.4,0.1,0.7,0.1,1.1v34.3c0,5.2-4,9.6-9.2,10l-5.9,0.5l-9.5,0.7C944.5,699.4,944.3,699.4,944,699.4z"/>
		</g>
		<g class="st3">
			<path class="st1" d="M944.2,699.3c-4.6,0-8.6-3.1-9.7-7.6l-14.2-58.4c0-0.2-0.1-0.3-0.1-0.5c-0.1-0.4-2.1-11.1-3.7-22.8
				c-3.3-24.1-1.6-30.1,0.3-33.8c2-4.8,4.9-30,6.4-50.7c0.2-2.3,1.2-4.5,2.8-6.2l11-11.4c1.9-2,4.5-3.1,7.2-3.1h22.5
				c2.1,0,4.1,0.7,5.8,1.9c2.9,2.1,5.4,4.9,7.2,8c5.3,8.9,9.1,25.1-2.6,52.3c-15.5,35.9-21,44.1-22.3,45.7c-0.2,0.2-0.3,0.4-0.5,0.6
				c-0.1,0.2-0.1,0.5,0,0.7c0.1,0.1,0.1,0.2,0.2,0.3c0.4,0.7,0.8,1.3,1.4,1.9c0,0,0.1,0.1,0.1,0.1c10.6,11.5,13.3,33.9,13.6,36.4
				c0,0.4,0.1,0.7,0.1,1.1v34.3c0,5.2-4,9.6-9.2,10l-5.9,0.5l-9.5,0.7C944.7,699.2,944.4,699.3,944.2,699.3z"/>
		</g>
		<g class="st5">
			<path class="st1" d="M935.8,714.3c-2.7,0-5.2-1.1-7.1-3c-2.2-2.2-3.2-5.3-2.8-8.4l0.7-5c0.6-4,3.5-7.3,7.4-8.3
				c2.6-0.7,11.5-2.9,16.3-2.9c7.1,0,11,4.6,11.5,9.5c0.1,1,0.4,2.1,0.7,3.1c0.8,2.8,0.4,5.8-1.2,8.3c-1.6,2.5-4.2,4.1-7.1,4.4
				l-17.1,2.1C936.6,714.2,936.2,714.3,935.8,714.3z"/>
		</g>
		<g>
			<path class="st1" d="M934.5,713.6c-4,0-7.7-2.4-9.3-6.3c-0.9-2.3-0.9-4.7-0.2-7c-0.1-1.7-1-6.8-5.4-18.5c0,0,0-0.1,0-0.1
				c-4.5-12.2-6.7-25-6.7-38c0-3.4-0.7-6.8-2-9.9c0-0.1-0.1-0.2-0.1-0.3c-0.8-2.3-1.4-4.7-1.6-7.1c-0.6-5.5-2.9-12.9-3.8-15.3
				c0-0.1,0-0.1-0.1-0.2c-0.4-1.2-9.8-29.2-12.3-50.6c-1.2-10.7-1-21.4,0.6-32c0.4-2.7,0.9-5.5,1.6-8.3c0.6-2.5,2.2-4.7,4.4-6.1
				c2.4-1.5,24.3-14.9,43.6-14.9c11.9,0,18.8,5.1,22.5,9.4c2.2,2.6,3.9,5.4,5,8.4c1,2.5,1.8,5.1,2.3,7.8c4,19.8-8,32.7-18.5,39.1
				c0.3,10.2,0.8,30.4,0.9,44.4v11c0,2-0.1,4-0.5,6c-0.1,0.3-0.1,0.6-0.2,0.9c0,1.1,0.4,3.7,1,5.7c6.2,16.6,8.9,34.8,7.6,52.5v17
				c0,5-3.8,9.3-8.8,9.9l-18.9,2.4C935.4,713.6,934.9,713.6,934.5,713.6z"/>
		</g>
		<g>
			<path class="st1" d="M943.2,394.8c-16.6,0-30.1-13.5-30.1-30.1s13.5-30.1,30.1-30.1c16.6,0,30.1,13.5,30.1,30.1
				S959.8,394.8,943.2,394.8z"/>
		</g>
		<g>
			<path class="st1" d="M947.3,431.7c-9.3,0-20.5-1.1-24.8-9.3c-1.2-2.2-3.3-8.1,1.5-15.2c3.7-5.4,1.5-19.1-1.1-26.6
				c-1.2-3.3-0.5-7,1.7-9.6c3.9-4.8,14.1-16,24.6-16c4.7,0,15.8,2.1,16.4,22c0.4,12.9,4.5,17.3,6.9,17.9c0.3,0,0.6,0,1,0
				c3.5,0,6.4,2,8.2,5.2c2,3.6,0.9,8.1-1.7,11.2l-13.4,16.2c-1.6,2-4,3.3-6.6,3.6C959.5,431,953.7,431.7,947.3,431.7L947.3,431.7z"
				/>
		</g>
		<g class="st5">
			<path class="st1" d="M903.5,539.8c-2.4,0-4.7-0.9-6.6-2.5c-2.5-2.2-3.8-5.6-3.3-8.9c0.4-2.8,0.9-5.6,1.6-8.3
				c0.6-2.5,2.2-4.7,4.4-6.1c2.4-1.5,24.3-14.9,43.6-14.9c8.7,0,14.8,2.8,18.8,5.9h4.5c2.1,0,4.1,0.7,5.8,1.9c3,2.1,5.5,4.9,7.3,8.1
				c0.5,0.8,0.8,1.7,1,2.6c0.6,2.7,1,4,1,4.1c1.5,5.1-1.3,10.5-6.3,12.2c-3.4,1.2-6.9,2.1-10.5,2.6c-2.4,0.4-4.7,0.6-6.8,0.6
				c-5.8,0-10.7-1.4-14.4-4.2c-0.4-0.1-1.1-0.1-2.2-0.1c-1.2,0-2.7,0.1-4.3,0.2c-12.1,1.2-29.1,5.9-31,6.5
				C905.3,539.7,904.4,539.8,903.5,539.8z"/>
		</g>
		<g class="st5">
			<path class="st1" d="M952.7,728.6c-0.9,0-1.8-0.1-2.7-0.4l-18.2-5.1c-4.8-1.4-7.9-6-7.2-11l1-7.4c0.6-4.4,4-7.9,8.5-8.6
				c0.5-0.1,1-0.1,1.5-0.1c3.9,0,7.5,2.3,9.1,5.9c0.1,0.1,0.1,0.3,0.2,0.4c2.2-1,4.5-1.9,6.9-2.7c1-0.3,2.1-0.5,3.2-0.5
				c1.6,0,3.1,0.4,4.6,1.1c2.4,1.2,4.2,3.4,5,5.9c0.4,1.2,0.6,2,0.6,2c0.6,2.1,0.6,4.3-0.2,6.4l-2.8,7.5
				C960.6,726.1,956.8,728.6,952.7,728.6z"/>
		</g>
		<g>
			<path class="st1" d="M940.2,745.8c-20.1,0-31.4-3.1-36.6-10.1c-5.4-7.3-4.8-13-3.3-16.6c3.4-8.1,12.7-9.5,17.8-10.2
				c1.8-1.5,5.3-6.2,7.8-10.3c1.8-3.1,5.1-4.9,8.6-4.9c0.4,0,0.8,0,1.2,0.1c4,0.5,7.3,3.3,8.4,7.1c0.2,0.8,0.5,1.4,0.7,1.9
				c7.8-3.6,10.7-3.6,11.8-3.6c1.7,0,3.3,0.4,4.7,1.2c2.9,1.6,10.7,5.8,9.2,35c-0.3,4.9-4.1,8.9-9,9.4
				C961.2,744.8,951.4,745.8,940.2,745.8C940.2,745.8,940.2,745.8,940.2,745.8z"/>
		</g>
		<g>
			<path class="st1" d="M863,378.5c-2.3,0-4.6-0.8-6.4-2.3c-2.4-2-3.7-5-3.6-8.2c0.5-9.4,7.5-23.5,24.8-23.5c1,0,2,0,3.1,0.1
				c3.5,0.4,6.5,2,8.7,4.6s3.2,6,2.8,9.4c-0.2,1.6-0.6,3.1-1.3,4.5c0,0.1-3.4,6.4-3.4,6.4c-1.4,2.6-3.8,4.4-6.6,5.1l-15.8,3.6
				C864.5,378.4,863.7,378.5,863,378.5z"/>
		</g>
		<g>
			<path class="st1" d="M902.9,538.1c-2.1,0-4.3-0.7-6-2c-2.5-1.9-4-4.8-4-8v-19.3c0-0.5,0-1,0.1-1.6c0-0.3,4.4-28.7,1.6-47.9
				c-1.4-9.2-0.5-15.9,1.2-20.6c-4.6-4.1-11.2-9.5-17.2-13.7c-11.7-8.1-15-15.4-15.9-19.5l-6-16.5c-0.5-1.2-0.7-2.6-0.6-3.9
				c0.2-3.1,0-3.4-0.7-5.8c-0.6-1.9-1.4-4.5-2.3-8.8c-0.4-1.8-0.2-3.7,0.4-5.4c4.6-12.6,13.4-14,17-14c7.9,0,13.9,5.8,15,6.9
				c2.2,2.3,3.2,5.4,2.7,8.5c0.1,1.5,0.9,5.6,1.8,8.8c0.1,0.3,0.1,0.6,0.2,0.9c1.1,6.5,4.6,12.2,9.8,16.2c7.5,0.1,16.9,0.9,23.6,3.9
				c1.3-2,3.3-3.3,5.7-3.9c0.7-0.2,1.4-0.3,2.1-0.3c2.2,0,4.4,0.9,6.3,2.3c1.5,1,6.4,2.4,12,3.6c-0.1-0.5-0.2-1-0.3-1.6
				c-0.3-2.8,0.7-5.7,2.6-7.8c1.2-1.3,4.5-4.2,10.5-4.2c4.3,0,9,1.7,13.8,4.9c10.9,7.3,22.6,27.1,15.5,43.8
				c-4.1,9.6-12.7,32.3-14.5,37c-0.5,3.1-2.3,15.4-0.2,27.7c2.6,15.1,4.5,21.7,4.5,21.7c1.5,5.1-1.2,10.4-6.2,12.2
				c-0.9,0.3-9.1,3.2-17.4,3.2c-5.8,0-10.7-1.4-14.4-4.2c-0.4-0.1-1.1-0.1-2.2-0.1c-10,0-29.2,4.9-35.7,6.8
				C904.8,537.9,903.9,538.1,902.9,538.1z"/>
		</g>
		<g class="st3">
			<path class="st1" d="M967.9,476.7c-0.7,0-1.3-0.1-2-0.2c-7.2-1.4-28.5-4.8-40-3.1c-14.6,2.2-18,3-18.2,3c-5.4,1.3-10.7-2-12-7.4
				s2.1-10.8,7.4-12.1c0.6-0.1,4.4-1,19.8-3.3c17-2.6,43.9,2.6,46.9,3.2c5.4,1.1,8.9,6.4,7.8,11.8
				C976.7,473.4,972.5,476.7,967.9,476.7z"/>
		</g>
		<g class="st5">
			<path class="st1" d="M973,495.8c-11.6,0-22.8-5.5-29.3-14.5c-7.5-10.4-8.5-22.8-8.4-34.8c0-0.2,0-0.5,0-0.7c0-0.6,0-1.2-0.1-1.8
				c-0.2-0.3-0.4-0.6-0.6-0.9c-0.1-0.1-0.2-0.2-0.3-0.4l-16.4-20.7c-2.3-2.6-4-5.6-5.2-8.8c-0.1-0.2-0.1-0.4-0.2-0.7
				c-2.1-7.6,1-14.1,3.3-18.8c0.7-1.5,2-4.1,2-5c-0.1-0.2-0.2-0.5-0.3-0.8c-0.5-1.3-1.2-3.3-1.4-5.6c-0.6-6.2,2.5-10.8,4.5-13.8
				c0.5-0.8,1-1.6,1.3-2.1c0.3-0.5,0.2-1.8-0.6-3c-0.7-1.2-1.7-1.9-2.3-1.9c-4.7-0.1-8.7-2.9-10.1-7.2c-2.6-7.9,4.2-13.1,9.2-16.9
				l0,0c0.3-0.3,0.7-0.5,1-0.8c2.1-1.3,4.1-2.8,5.9-4.5c5.1-4.8,13.1-11.1,23.1-11.1c2.5,0,5.1,0.4,7.5,1.2c2.2,0.7,4,1.7,5.5,2.5
				c0.9,0.5,1.9,1,2.5,1.2c0.3,0.1,0.9,0.2,1.9,0.2c1,0,2-0.1,3.2-0.2c1.4-0.1,2.9-0.2,4.5-0.2c3.2,0,8,0.4,12.6,3.5
				c0.1,0.1,0.3,0.2,0.4,0.3c3.8,2.8,6.6,6.9,8,11.4c3.1,9.5,1.3,18.6-0.3,26.7c-0.9,4.4-1.7,8.5-1.7,12.2c0,0.2,0,0.4,0,0.5
				c0,0.1,0,0.2,0,0.3c0.3,0.2,0.6,0.5,0.9,0.8c0.8,0.7,1.7,1.5,2.7,2.6c8.1,8.8,6.4,20.2,5.2,28.5c-0.4,3.1-0.9,5.9-0.8,8.4
				c0,3.1,0.9,6.5,1.8,10.2c0.6,2.2,1.1,4.6,1.6,7c2,10.8,0.2,20-5.1,26.5c-1.9,2.4-4.1,4.1-5.9,5.6c-0.9,0.7-2.2,1.8-2.8,2.4
				c0.2,0.7,0.8,2.1,2.6,4.8c1.6,2.4,2.1,5.3,1.3,8.1c-0.7,2.8-2.6,5.1-5.2,6.4C983.9,494.6,978.5,495.8,973,495.8z"/>
		</g>
		<g>
			<path class="st1" d="M974,495.8c-11.6,0-22.8-5.5-29.3-14.5c-7.5-10.4-8.5-22.8-8.4-34.8c0-0.2,0-0.5,0-0.7c0-0.6,0-1.2-0.1-1.8
				c-0.2-0.3-0.4-0.6-0.6-0.9c-0.1-0.1-0.2-0.2-0.3-0.4l-16.4-20.7c-2.3-2.6-4-5.6-5.2-8.8c-0.1-0.2-0.1-0.4-0.2-0.7
				c-2.1-7.6,1-14.1,3.3-18.8c0.7-1.5,2-4.1,2-5c-0.1-0.2-0.2-0.5-0.3-0.8c-0.5-1.3-1.2-3.3-1.4-5.6c-0.6-6.2,2.5-10.8,4.5-13.8
				c0.5-0.8,1-1.6,1.3-2.1c0.3-0.5,0.2-1.8-0.6-3c-0.7-1.2-1.7-1.9-2.3-1.9c-4.7-0.1-8.7-2.9-10.1-7.2c-2.6-7.9,4.2-13.1,9.2-16.9
				l0,0c0.3-0.3,0.7-0.5,1-0.8c2.1-1.3,4.1-2.8,5.9-4.5c5.1-4.8,13.1-11.1,23.1-11.1c2.5,0,5.1,0.4,7.5,1.2c2.2,0.7,4,1.7,5.5,2.5
				c0.9,0.5,1.9,1,2.5,1.2c0.3,0.1,0.9,0.2,1.9,0.2c1,0,2-0.1,3.2-0.2c1.4-0.1,2.9-0.2,4.5-0.2c3.2,0,8,0.4,12.6,3.5
				c0.1,0.1,0.3,0.2,0.4,0.3c3.8,2.8,6.6,6.9,8,11.4c3.1,9.5,1.3,18.6-0.3,26.7c-0.9,4.4-1.7,8.5-1.7,12.2c0,0.2,0,0.4,0,0.5
				c0,0.1,0,0.2,0,0.3c0.3,0.2,0.6,0.5,0.9,0.8c0.8,0.7,1.7,1.5,2.7,2.6c8.1,8.8,6.4,20.2,5.2,28.5c-0.4,3.1-0.9,5.9-0.8,8.4
				c0,3.1,0.9,6.5,1.8,10.2c0.6,2.2,1.1,4.6,1.6,7c2,10.8,0.2,20-5.1,26.5c-1.9,2.4-4.1,4.1-5.9,5.6c-0.9,0.7-2.2,1.8-2.8,2.4
				c0.2,0.7,0.8,2.1,2.6,4.8c1.6,2.4,2.1,5.3,1.3,8.1c-0.7,2.8-2.6,5.1-5.2,6.4C984.9,494.6,979.5,495.8,974,495.8z"/>
		</g>
		<g>
			<path class="st1" d="M592.6,747c-16.8,0-37.6-1-38.5-1c-1.4-0.1-2.8-0.4-4-1c-3.1-1.6-5.6-4-7.2-6.9c-0.7-0.2-1.4-0.4-2.1-0.7
				c-3.5-1.6-7.8-5.4-9.2-11.2c-1.4-5.9,0.4-12.1,5.4-18.4l0.2-0.5v-4.5c-11-53.3-7.9-60.3-6.2-63.4c1.5-3.6,3.2-19.6,3.9-32.6
				l-1.1-31.4c-2.4-6-4.2-14.1-5.3-24.3c-1.2-4.1-2-8.3-2.3-12.5c-0.2-2-0.3-4-0.3-6.1c0-0.1,0-0.2,0-0.2c0-3.7,0.3-7.4,1.1-11
				c-3.4-4.7-6.5-8.5-8.8-10.8c-6.3-5.9-9.3-14.5-8-23.1l2.8-18.9c0-0.2,0.1-0.4,0.1-0.6l6.5-30.7c-0.5-7.1,0.4-13.2,2.7-18.2
				c-0.3-1.8-0.6-3.7-0.8-5.6c-1.6-13.8-0.9-27.6,2.2-41.1c1.2-5.3,3.1-11.5,7.7-16.5c1.8-1.9,3.6-3.4,5.3-4.6
				c0.9-0.7,2.1-1.6,2.7-2.2c0.2-1.2,0.5-2.3,0.8-3.5c0.1-0.3,0.2-0.7,0.3-1c1.4-3.5,5.4-9.7,16.7-11c4-0.5,7.5-0.7,10.7-0.7
				c6.1,0,11,0.8,15.1,2.5c5.7,2.3,13.4,8.2,17,15.8c2.4,4.1,3.2,8.8,2.3,13.5c0,0.3-0.1,0.5-0.2,0.8c0,0.1-0.1,0.2-0.1,0.3
				c0.5,2.3,0.8,4.6,0.8,6.9c-0.1,10.3-4.9,19.5-12.8,25.3c2.7,1.3,5.3,2.8,7.8,4.2c2.4,1.4,4.1,3.7,4.7,6.5c0.5,2.4,0.2,4.9-1,7
				c-0.5,2.4,0,9,0.9,15.5c6,4.8,10.3,11.5,11.9,18.7c1.8,8.1,0.2,16.4-4.9,23.8c-5.8,8.6-3,18.1-2.7,19c0.3,0.9,0.5,1.7,0.5,2.6
				l1.5,23.8c4.1,2.4,8.4,5.8,11.6,10.8c0,0,0.1,0.1,0.1,0.2c1.1,1.9,2.5,3.6,4.1,5.1c1.1,1,2.1,2.2,2.9,3.6
				c3.9,6.8,1.5,15.6-5.3,19.5c-4,2.4-8.4,3.6-12.9,3.6c0,0-0.3,0-0.5,0c-1.2,9.2-8.1,30.1-10.5,36.9l-6.7,23.1
				c-4.6,15.6-7,31.6-7,47.8c0,7.8-0.9,14.4-2.8,19.4c-1.5,4-0.2,10.1,1.7,15.4c2,0.6,4,1.1,5.9,1.5c0.2,0,0.4,0.1,0.6,0.2
				c0.6,0.1,1.2,0.3,1.8,0.5c3.7,1.5,8.4,2.8,10,2.8c0.5-0.1,1-0.1,1.5-0.1c5.3,0,10,3,12.3,7.9c0,0,0,0.1,0.1,0.1
				c5.5,1.2,10,5.8,10.7,11.7c0.8,6.4-2.9,14.5-13.1,17.1C611.1,746.3,606.6,747,592.6,747z"/>
		</g>
		<g>
			<path class="st1" d="M576.3,735.3c-0.8,0-1.5-0.1-2.3-0.3l-23.4-5.4c-1.8-0.4-3.5-1.3-4.8-2.7l-7.1-7.1
				c-2.7-2.7-3.6-6.6-2.4-10.2l2.2-6.5c1.1-3.2,3.6-5.6,6.8-6.5l15.8-4.4c0.9-0.2,1.8-0.4,2.7-0.4c3.4,0,6.6,1.7,8.5,4.7
				c1.2,1,5.9,3.5,16.7,6.1c6.3,1.5,11.2,6.3,12.8,12.6c0.1,0.2,0.1,0.4,0.1,0.7l1.1,6c0.5,2.8-0.2,5.6-1.9,7.8
				c-1.7,2.2-4.2,3.7-7,3.9l-16.8,1.6C577,735.2,576.6,735.3,576.3,735.3z"/>
		</g>
		<g class="st5">
			<path class="st1" d="M576.3,735.3c-0.8,0-1.5-0.1-2.3-0.3l-23.4-5.4c-1.8-0.4-3.5-1.3-4.8-2.7l-7.1-7.1
				c-2.7-2.7-3.6-6.6-2.4-10.2l2.2-6.5c1.1-3.2,3.6-5.6,6.8-6.5l15.8-4.4c0.9-0.2,1.8-0.4,2.7-0.4c3.4,0,6.6,1.7,8.5,4.7
				c1.2,1,5.9,3.5,16.7,6.1c6.3,1.5,11.2,6.3,12.8,12.6c0.1,0.2,0.1,0.4,0.1,0.7l1.1,6c0.5,2.8-0.2,5.6-1.9,7.8
				c-1.7,2.2-4.2,3.7-7,3.9l-16.8,1.6C577,735.2,576.6,735.3,576.3,735.3z"/>
		</g>
		<g>
			<path class="st1" d="M582.5,736.3c-16.1,0-36.2-0.9-37.1-1c-1.3-0.1-2.6-0.4-3.8-0.9c-3.4-1.6-7.6-5.4-8.9-11.1
				c-1.4-5.9,0.4-12.1,5.3-18.3c2-2.5,4.9-3.8,7.9-3.8c2.1,0,4.3,0.7,6.1,2.1l6.4,4.9c4,2.1,9.1,3.9,10.9,4c0.5-0.1,1-0.1,1.5-0.1
				l5.3,0l3.2-4.8c1.9-2.9,5.1-4.5,8.4-4.5c1.3,0,2.5,0.2,3.7,0.7c3.4,1.4,7.8,2.7,9.4,2.7c0.5-0.1,1-0.1,1.4-0.1
				c6.8,0,12.4,5,13.3,11.9c0.8,6.3-2.8,14.3-12.8,17C600.4,735.6,596.1,736.3,582.5,736.3z"/>
		</g>
		<g>
			<path class="st1" d="M585.5,742.9c-0.8,0-1.5-0.1-2.3-0.3l-23.3-5.5c-1.8-0.4-3.4-1.3-4.8-2.6l-7.1-7c-2.7-2.7-3.7-6.7-2.4-10.3
				l2.2-6.5c1.1-3.2,3.6-5.6,6.8-6.5l15.8-4.4c0.9-0.2,1.8-0.4,2.7-0.4c3.4,0,6.6,1.7,8.5,4.7c0.1,0.1,0.2,0.1,0.3,0.2
				c1.3,0.9,5.5,3.2,16.4,5.8c0.5,0.1,1.1,0.3,1.7,0.5c5.5,1.9,9.6,6.4,11.1,12.1c0.1,0.2,0.1,0.4,0.1,0.7l1.1,6
				c0.5,2.7-0.2,5.6-1.9,7.8s-4.2,3.6-7,3.9l-16.8,1.6C586.2,742.9,585.9,742.9,585.5,742.9z"/>
		</g>
		<g class="st5">
			<path class="st1" d="M585.5,742.9c-0.8,0-1.5-0.1-2.3-0.3l-23.3-5.5c-1.8-0.4-3.4-1.3-4.8-2.6l-7.1-7c-2.7-2.7-3.7-6.7-2.4-10.3
				l0.6-1.7c1-3.1,3.5-5.4,6.6-6.4c1-0.3,1.9-0.4,2.9-0.4c2.2,0,4.3,0.7,6.1,2.1l5.8,4.5c4,2.1,9.1,3.9,10.9,4
				c0.5-0.1,1-0.1,1.6-0.1h5.3l2.8-4.3c1.9-2.9,5.1-4.6,8.4-4.6c1.1,0,2.1,0.2,3.2,0.5c5.6,1.9,9.8,6.4,11.2,12.1
				c0.1,0.2,0.1,0.5,0.1,0.7l1.1,6c0.5,2.7-0.2,5.6-1.9,7.8c-1.7,2.2-4.2,3.6-7,3.9l-16.8,1.6C586.2,742.9,585.9,742.9,585.5,742.9z
				"/>
		</g>
		<g>
			<path class="st1" d="M591.7,743.9c-16.1,0-36.2-0.9-37.1-1c-1.3-0.1-2.6-0.4-3.8-0.9c-3.4-1.6-7.6-5.4-9-11.1
				c-1.4-5.9,0.4-12.1,5.3-18.3c2-2.5,4.9-3.8,7.9-3.8c2.1,0,4.3,0.7,6.1,2.1l6.4,4.9c4,2.1,9.1,3.9,10.9,4c0.5-0.1,1-0.1,1.5-0.1
				l5.3,0l3.2-4.8c1.9-2.9,5.1-4.5,8.4-4.5c1.3,0,2.5,0.2,3.7,0.7c3.4,1.4,7.8,2.7,9.4,2.7c0.5-0.1,1-0.1,1.4-0.1
				c6.8,0,12.4,5,13.3,11.9c0.8,6.3-2.8,14.4-12.8,17C609.6,743.2,605.3,743.9,591.7,743.9z"/>
		</g>
		<g>
			<path class="st1" d="M576.7,424.8c-12,0-19.4-2.6-23.4-8.2c-2.8-3.9-3.4-8.7-1.7-13.5c0.5-1.5,0.6-3.1,0.4-4.6
				c-0.4-2.4-1.4-4.8-2.9-6.9c-2.3-3.3-2.5-7.6-0.4-11.1c1.8-3,5.1-4.8,8.5-4.8c0.5,0,1,0,1.5,0.1l24.5,3.8c3.3,0.5,6.1,2.6,7.5,5.6
				s1.2,6.5-0.5,9.4c-1,1.6-1.7,3.4-2.2,5.2c-1,3.9,0.4,5.8,1.2,6.6c3.6,2.2,5.1,6.3,4.1,10.4c-0.9,4.2-4.8,7.1-9.1,7.6
				C584.1,424.5,580.9,424.8,576.7,424.8z"/>
		</g>
		<g>
			<path class="st1" d="M561.3,720.5c-7.9,0-15.9-2.9-16.8-3.2c-3.9-1.5-6.5-5.2-6.5-9.4v-7.7c-10.6-52.2-7.6-59.1-5.9-62.1
				c1.4-3.6,3.1-19.2,3.8-31.9l-1-30.8c-5.4-13.2-6-34.3-6.1-36.8c-0.1-3.5,1.7-6.8,4.6-8.7c1.6-1,3.5-1.6,5.4-1.6
				c1.5,0,3,0.3,4.4,1l28.8,14.1c3.5,1.7,5.7,5.3,5.6,9.2l-2.2,89.1l4.9,64.2c0.2,2.2-0.4,4.4-1.6,6.2
				C576.3,716,571.3,720.5,561.3,720.5C561.3,720.5,561.3,720.5,561.3,720.5z"/>
		</g>
		<g class="st5">
			<path class="st1" d="M561.3,720.5c-7.9,0-15.9-2.9-16.8-3.2c-3.9-1.5-6.5-5.2-6.5-9.4v-7.7c-10.6-52.2-7.6-59.1-5.9-62.1
				c1.4-3.6,3.1-19.2,3.8-31.9l-1-30.8c-5.4-13.2-6-34.3-6.1-36.8c-0.1-3.5,1.7-6.8,4.6-8.7c1.6-1,3.5-1.6,5.4-1.6
				c1.5,0,3,0.3,4.4,1l28.8,14.1c3.5,1.7,5.7,5.3,5.6,9.2l-2.2,89.1l4.9,64.2c0.2,2.2-0.4,4.4-1.6,6.2
				C576.3,716,571.3,720.5,561.3,720.5C561.3,720.5,561.3,720.5,561.3,720.5z"/>
		</g>
		<g>
			<path class="st1" d="M542.1,534.8c-3.4,0-6.6-1.7-8.4-4.6c-2.2-3.5-9.1-13.6-13.8-18.4c-6.1-5.9-9-14.3-7.8-22.7l2.7-18.5
				c0.1-0.7,0.3-1.4,0.5-2.1l3.3-8.7c1.5-3.9,5.2-6.5,9.4-6.5c0.3,0,0.6,0,0.9,0l16.8,1.6c5,0.5,8.8,4.5,9.1,9.5
				c0.1,1.3,0.4,11.4-0.7,19.3c2.9,0.4,5.4,2.1,6.9,4.6c1.6,2.5,1.8,5.6,0.9,8.4l-10.3,31c-1.2,3.7-4.4,6.3-8.3,6.8
				C542.9,534.8,542.5,534.8,542.1,534.8z"/>
		</g>
		<g class="st3">
			<path class="st1" d="M542.1,533.8c-3.4,0-6.6-1.7-8.4-4.6c-2.2-3.5-9.1-13.6-13.8-18.4c-6.1-5.9-9-14.3-7.8-22.7l2.7-18.5
				c0.1-0.7,0.3-1.4,0.5-2.1l3.3-8.7c1.5-3.9,5.2-6.5,9.4-6.5c0.3,0,0.6,0,0.9,0l16.8,1.6c5,0.5,8.8,4.5,9.1,9.5
				c0.1,1.3,0.4,11.4-0.7,19.3c2.9,0.4,5.4,2.1,6.9,4.6c1.6,2.5,1.8,5.6,0.9,8.4l-10.3,31c-1.2,3.7-4.4,6.3-8.3,6.8
				C542.9,533.8,542.5,533.8,542.1,533.8z"/>
		</g>
		<g class="st5">
			<path class="st1" d="M565.7,729.1c-6.9,0-12.5-3.1-14.6-4.5c-3.8-2.5-5.5-7.2-4.1-11.6l0.8-2.4c1.1-3.2,3.6-5.6,6.8-6.5l15.8-4.4
				c0.9-0.2,1.8-0.4,2.7-0.4c3.4,0,6.6,1.7,8.5,4.7c2.3,1.4,3.9,3.7,4.4,6.2c0.6,2.6,0.1,5.3-1.3,7.6
				C580.2,725.2,573.4,729.1,565.7,729.1z"/>
		</g>
		<g>
			<path class="st1" d="M565.7,728.6c-7.9,0-14.1-4.1-15.2-4.9c-2.6-1.9-4.2-4.9-4.2-8.2v-7.6c-4.1-18.7-10.1-50.4-7.2-60.4
				c1.7-5.8,3-22.4,3.4-31.6v-40.9c-8.7-9.9-13.9-22.4-14.9-35.6c-0.1-1.9-0.2-3.9-0.3-6c-0.5-14.4,7.8-29.7,12.8-37.5
				c0.9-1.4,1.5-2.2,1.6-2.3c1.9-2.7,5-4.2,8.2-4.2c1.2,0,2.5,0.2,3.7,0.7l47.2,18.7c4.2,1.2,7.2,5.1,7.2,9.6v6l0.2,35.3
				c0,0.3,0,0.5,0,0.8c-0.6,8.1-7.9,30.5-10.2,37.6l-6.5,22.6c-4.4,15.3-6.7,31-6.8,46.9c0,7.7-0.9,14.1-2.7,19
				c-2.1,5.8,1.7,16.2,3.8,20.1c1.6,3,1.6,6.6-0.1,9.6C581.1,724.1,574,728.6,565.7,728.6z"/>
		</g>
		<g class="st5">
			<path class="st1" d="M570.9,408.8c-4.5,0-9.1-1-13.2-2.9c-3-1.4-5.1-4.2-5.6-7.4c-0.4-2.5-1.4-4.9-2.9-6.9
				c-2.3-3.3-2.5-7.6-0.4-11.1c1.8-3,5.1-4.8,8.5-4.8c0.5,0,1,0,1.5,0.1l24.5,3.8c3.3,0.5,6.1,2.6,7.5,5.6s1.2,6.5-0.5,9.4
				c-1,1.7-1.7,3.4-2.2,5.3c-0.8,3.1-3.1,5.6-6.1,6.8C578.4,408.1,574.7,408.8,570.9,408.8z"/>
		</g>
		<g>
			<path class="st1" d="M570.9,407.7c-17.2,0-31.2-14-31.2-31.2s14-31.2,31.2-31.2s31.2,14,31.2,31.2S588.1,407.7,570.9,407.7z"/>
		</g>
		<g class="st5">
			<path class="st1" d="M591.6,534.9c-24.8,0-50.4-21.1-51.5-22c-3.8-3.2-4.7-8.6-2.2-12.9c0.5-0.8,0.9-1.7,1.3-2.6
				c0.2-0.6,0.5-1.1,0.8-1.6c0.9-1.4,1.5-2.2,1.6-2.4c1.9-2.7,5-4.2,8.2-4.2c1.2,0,2.5,0.2,3.7,0.7l48,19c3.6,1.4,6.1,4.8,6.3,8.7
				c0,0,0.1,2,0.1,2l0.2,4.1c0.1,2.7-0.8,5.4-2.7,7.4c-1.7,1.8-3.9,2.8-6.3,3.1C596.6,534.7,594.1,534.9,591.6,534.9
				C591.6,534.9,591.6,534.9,591.6,534.9z"/>
		</g>
		<g>
			<path class="st1" d="M591.6,533.3c-24.8,0-50.4-21.1-51.5-22c-3.8-3.1-4.7-8.5-2.2-12.8c3.5-5.9,2.2-10.3,0.8-12.7l-16.3-4.1
				c-5.2-1.3-8.5-6.5-7.4-11.7l6.2-30.1c-1.1-16.9,5.9-24.3,10.5-27.2l12.3-15.8c0.5-0.6,1.1-1.2,1.7-1.7c3.4-2.6,7.6-3.9,12.7-3.9
				c15.1,0,36.4,12.7,38.8,14.2c2.3,1.4,4,3.7,4.6,6.4c0.5,2.3,0.2,4.7-0.9,6.8c-0.2,1-0.6,4.9,0.9,15.2c5.7,4.7,9.8,11.2,11.4,18.2
				c1.8,8,0.2,16.1-4.7,23.5c-5.8,8.7-2.7,18.2-2.7,18.3c0.3,0.8,0.5,1.7,0.5,2.6l1.7,25.5c0.3,5-3,9.4-7.9,10.4
				C597.4,533,594.5,533.3,591.6,533.3C591.6,533.3,591.6,533.3,591.6,533.3z"/>
		</g>
		<g>
			<path class="st1" d="M608,561.8c-6.5,0-12.9-2.5-19-7.6c-9.4-7.7-11.1-15.4-10.8-20.5c0.5-10.5,9-16.5,9.9-17.2
				c1.7-1.1,3.6-1.7,5.6-1.7c0.6,0,1.2,0.1,1.9,0.2c1.6,0.3,15.9,3.3,23.5,15.4c0,0,0.1,0.1,0.1,0.1c1.1,1.8,2.4,3.5,4,5
				c2.8,2.6,4.4,6,4.5,9.8c0.2,3.8-1.1,7.5-3.7,10.3c-0.9,1-2,1.9-3.2,2.6C616.7,560.6,612.4,561.8,608,561.8z"/>
		</g>
		<g class="st5">
			<path class="st1" d="M583.1,547.2c-3.5,0-6.1-0.7-6.8-0.9c-2.3-0.6-4.3-2.1-5.6-4c-0.1-0.2-12.4-18.4-18.7-26.8
				c-8.9-11.9-6-29.2-5.6-31.2c0.3-1.6,0.4-2.3,1.3-3.5c0.7-1.6,3.6-9.1,5.6-30.4c1.3-13.2,4.3-22.6,9.4-28.8
				c4.6-5.6,9.6-7,12.6-7.3c1.4-0.3,2.7-0.5,4-0.5c6.6,0,12.3,4,15.4,10.9c7,15.3,3,49.6-4.8,58.7c-2.2,2.6-2,6.8-1.8,8.7l16.1,30.1
				c1.1,2,1.4,4.4,1,6.7C602.9,540.2,594.4,547.2,583.1,547.2C583.1,547.2,583.1,547.2,583.1,547.2z"/>
		</g>
		<g>
			<path class="st1" d="M584.2,545.6c-3.5,0-6.1-0.7-6.8-0.9c-2.3-0.6-4.3-2.1-5.6-4c-0.1-0.2-12.4-18.4-18.7-26.8
				c-8.9-11.9-6-29.2-5.6-31.2c0.3-1.6,0.4-2.3,1.3-3.5c0.7-1.6,3.6-9.1,5.6-30.4c1.3-13.2,4.3-22.6,9.4-28.8
				c4.6-5.6,9.6-7,12.6-7.3c1.3-0.3,2.7-0.5,4-0.5c6.6,0,12.3,4,15.4,10.9c7,15.3,3,49.6-4.8,58.8c-2.2,2.6-2,6.8-1.8,8.6l16.1,30.1
				c1.1,2,1.4,4.4,1,6.7C604,538.6,595.5,545.6,584.2,545.6C584.2,545.6,584.2,545.6,584.2,545.6z"/>
		</g>
		<g class="st5">
			<path class="st1" d="M583.1,506.8c-3,0-6-1.4-8-4c-7.2-9.6-7.5-25.7-0.8-38.4c2.4-4.6,3-14.9,2.7-20.8
				c-0.3-5.5,3.8-10.3,9.3-10.6c5.5-0.3,10.3,3.8,10.6,9.3c0.1,2,1.1,20-4.9,31.4c-3.3,6.3-3.1,14-0.8,17c3.3,4.4,2.4,10.7-2,14
				C587.3,506.2,585.2,506.8,583.1,506.8z"/>
		</g>
		<g class="st5">
			<path class="st1" d="M583.1,430c0,0-3-2.1-10.7-2.5c-14.7-0.6-21.9-5.2-23.2-6.2l11.5-16.4c0,0-0.1-0.1-0.3-0.2
				c0,0,4,2.4,12.9,2.7c15.2,0.7,21.8,6.1,23.5,7.8l-14.1,14.1C582.6,429.5,582.7,429.7,583.1,430z"/>
		</g>
		<g class="st5">
			<path class="st1" d="M543.8,492.5c-2.4,0-4.9,0-7.3-0.1c-3.6-0.1-11.3-0.3-17.4-5.2c-3.5-2.8-4.6-7.5-2.9-11.6
				c1.5-3.5,3.5-6.2,5.3-8.6c0.7-1,1.4-1.9,2-2.7c3.1-4.8,4.4-11.5,3.9-20c-0.3-4.8-1.1-9.6-2-14.8c-0.6-3.8-1.3-7.7-1.8-11.6
				c-1.6-13.5-0.9-27,2.1-40.3c1.2-5.3,3-11.4,7.5-16.3c1.7-1.9,3.5-3.2,5-4.5c0.8-0.6,2-1.6,2.6-2.1c0.2-1.1,0.5-2.3,0.8-3.4
				c0.1-0.3,0.2-0.7,0.3-1c1.3-3.5,5.3-9.6,16.4-11c3.9-0.5,7.3-0.7,10.5-0.7c5.9,0,10.7,0.8,14.7,2.5c9.5,4,21.1,16,18.2,28.2
				c-0.7,3-2.1,5.3-3.2,7c-0.3,0.4-0.6,0.9-0.7,1.2c0,0.2-0.1,0.6-0.1,0.9c-0.4,2.6-1.6,9.7-8.7,12.4c-0.3,0.1-0.6,0.2-0.9,0.3
				c-0.2,3.3,0,6.9,0.2,10.6c0.2,3.5,0.4,7.1,0.3,10.9c-0.3,12.3-4.2,22.1-11.4,28.4c-0.6,0.5-1.2,1-1.8,1.5
				c-0.4,0.3-0.8,0.7-1.1,0.9c-0.1,0.3-0.1,1-0.1,2.4c0,2.5,0.2,4.9,0.5,7.6c0.2,2.6,0.5,5.3,0.5,8.1c0.2,8.2-1.3,14.9-4.5,20.4
				c-1.7,3-4.1,5.6-7.1,7.5c-0.1,0.1-0.2,0.1-0.3,0.2c-4.1,2.4-8.3,2.7-11.8,2.8C548.7,492.5,546.3,492.5,543.8,492.5z"/>
		</g>
		<g>
			<path class="st1" d="M543.3,491.5c-2.4,0-4.9,0-7.3-0.1c-3.6-0.1-11.3-0.3-17.4-5.2c-3.5-2.8-4.6-7.5-2.9-11.6
				c1.5-3.5,3.5-6.2,5.3-8.6c0.7-1,1.4-1.9,2-2.7c3.1-4.8,4.4-11.5,3.9-20c-0.3-4.8-1.1-9.6-2-14.8c-0.6-3.8-1.3-7.7-1.8-11.6
				c-1.6-13.5-0.9-27,2.1-40.3c1.2-5.3,3-11.4,7.5-16.3c1.7-1.9,3.5-3.2,5-4.5c0.8-0.6,2-1.6,2.6-2.1c0.2-1.1,0.5-2.3,0.8-3.4
				c0.1-0.3,0.2-0.7,0.3-1c1.3-3.5,5.3-9.6,16.4-11c3.9-0.5,7.3-0.7,10.4-0.7c5.9,0,10.7,0.8,14.7,2.5c9.5,4,21.1,16,18.2,28.3
				c-0.7,3-2.1,5.3-3.2,7c-0.3,0.4-0.6,0.9-0.7,1.2c0,0.2-0.1,0.6-0.1,0.9c-0.4,2.6-1.6,9.7-8.7,12.4c-0.3,0.1-0.6,0.2-0.9,0.3
				c-0.2,3.3,0,6.9,0.2,10.6c0.2,3.5,0.4,7.1,0.3,10.9c-0.3,12.3-4.2,22.1-11.4,28.4c-0.6,0.5-1.2,1-1.8,1.5
				c-0.4,0.3-0.8,0.7-1.1,0.9c-0.1,0.3-0.1,1-0.1,2.4c0,2.5,0.2,4.9,0.5,7.6c0.2,2.6,0.5,5.3,0.5,8.1c0.2,8.2-1.3,14.9-4.5,20.4
				c-1.7,3-4.1,5.6-7.1,7.5c-0.1,0.1-0.2,0.1-0.3,0.2c-4.1,2.4-8.3,2.7-11.8,2.8C548.2,491.4,545.8,491.5,543.3,491.5z"/>
		</g>
	</g>
</g>
<g>
	<path class="st6" d="M27.7,463.9c-12,2-27,7.5-26.9,20.5c0.1,6.6,4.4,12.2,8.7,17c18.1,20.6,38.7,38.8,61.3,54.2
		c10.8,7.3,22.4,14.3,29.6,25.7s9,25.8,9.6,39.5c1.4,32.5-2.4,65-11.3,96.2c35.2,6.7,74.5,12.6,103.9-8.6
		c17.6-12.7,29.5-34,49.1-42.8c13.1-5.9,27.9-5.4,42.1-4.6c67.5,3.6,134.8,10.2,202,20c28.1,4.1,56.8,8.7,84.6,3.4
		c27.8-5.3,55.2-22.6,65.5-50.6c1.6-4.3,3-9.1,6.5-11.7c3.2-2.3,7.4-2.3,11.3-2.1l235.1,8.1c12.9,0.4,26.2,0.8,38-4.5
		c11.4-5.1,20.2-15,28.7-24.7c19.3-22.1,40.2-49.2,34.5-79.1c-4.6-24-24.9-40.8-45.1-52.5s-42.4-21.3-57.2-40.1
		c-22.5-28.6-21.7-69.5-23.1-106.5c-1.3-33.6-5.4-67-12.3-99.8c-6.1-28.9-14.6-57.8-30.5-82.2S791.4,94.6,763.9,91
		c-35.9-4.7-72.1,17.7-107.2,8.2c-29.7-8-50.1-36.4-74.8-56.1c-43.7-35-101.1-42.3-155.3-43c-57.5-0.7-116.5,5.1-167.8,32.1
		c-11.7,6.2-23.2,13.7-31.4,24.6C215,73.5,212,96,203.8,115.6C171,194.4,64.2,211.4,29.5,289.4c-12.3,27.7-12.2,59.9-3.2,89
		c9.6,31.3,36.8,48.5,47.6,75.8C62.3,461.7,41.7,461.6,27.7,463.9z"/>
	<g class="st2">
		<path class="st7" d="M885.6,370.9c0,0,4.8-63.8,40.8-98.4c15.2-14.4,25.3-33.4,28.8-54.1c1.6-9.8,2.2-19.8,2-29.7"/>
		<path class="st8" d="M979.8,166.7c-2.7,7-23.1,22.6-23.1,22.6s-5-25.2-2.4-32.2c2.7-7,10.5-10.6,17.6-7.9
			C979,151.8,982.5,159.7,979.8,166.7L979.8,166.7z"/>
		<path class="st8" d="M986.2,213.6c-6.1,4.5-31.7,6.4-31.7,6.4s9.5-23.9,15.5-28.4c6.1-4.5,14.6-3.2,19,2.9
			C993.5,200.6,992.2,209.2,986.2,213.6L986.2,213.6z"/>
		<path class="st8" d="M960.1,279.8c-7.5,0.8-30.6-10.5-30.6-10.5s20.2-15.8,27.7-16.6c7.5-0.8,14.2,4.6,15,12.1
			C973,272.3,967.5,279,960.1,279.8L960.1,279.8L960.1,279.8z"/>
		<path class="st8" d="M929.1,325.5c-7.2,2-31.9-5.1-31.9-5.1s17.3-19,24.5-21.1c7.2-2,14.8,2.2,16.8,9.4S936.3,323.5,929.1,325.5z"
			/>
		<path class="st8" d="M927.2,211.3c3.2,6.8,24.8,20.8,24.8,20.8s3.1-25.5-0.1-32.3c-3.2-6.8-11.3-9.7-18.1-6.5
			C927,196.4,924,204.5,927.2,211.3z"/>
		<path class="st8" d="M891.6,265.2c5.1,5.5,29.8,12.4,29.8,12.4s-4.7-25.3-9.8-30.8c-5.1-5.5-13.7-5.9-19.2-0.8
			C886.9,251,886.5,259.6,891.6,265.2L891.6,265.2z"/>
		<path class="st8" d="M864.2,322.2c4.1,6.3,27.3,17.3,27.3,17.3s-0.4-25.7-4.4-32c-4.1-6.3-12.5-8.1-18.8-4.1
			S860.1,315.9,864.2,322.2L864.2,322.2z"/>
	</g>
	
		<linearGradient id="SVGID_1_" gradientUnits="userSpaceOnUse" x1="534.54" y1="191.17" x2="534.54" y2="652.17" gradientTransform="matrix(1 0 0 -1 0 740)">
		<stop  offset="0" style="stop-color:#808080;stop-opacity:0.25"/>
		<stop  offset="0.54" style="stop-color:#808080;stop-opacity:0.12"/>
		<stop  offset="1" style="stop-color:#808080;stop-opacity:0.1"/>
	</linearGradient>
	<polygon class="st9" points="164.1,87.8 164.1,123.8 164.1,548.8 904.9,548.8 904.9,123.8 904.9,87.8 	"/>
	<rect x="172" y="92.7" class="st10" width="725.2" height="35.2"/>
	<g class="st2">
		<rect x="172" y="92.7" class="st8" width="725.2" height="35.2"/>
	</g>
	<rect x="172" y="127.9" class="st10" width="725.2" height="416"/>
	<circle class="st10" cx="189.4" cy="110.1" r="7.8"/>
	<circle class="st10" cx="210.2" cy="110.1" r="7.8"/>
	<circle class="st10" cx="231.1" cy="110.1" r="7.8"/>
	<g class="st2">
		<rect x="197.2" y="179.6" class="st8" width="373" height="26.9"/>
	</g>
	<g class="st2">
		<rect x="665.8" y="179.6" class="st8" width="195.6" height="26.9"/>
	</g>
	<g class="st2">
		<rect x="269.8" y="434.4" class="st8" width="26.1" height="86.1"/>
		<rect x="320.2" y="372.7" class="st8" width="26.1" height="147.8"/>
		<rect x="370.6" y="310.9" class="st8" width="26.1" height="209.5"/>
		<rect x="421.1" y="330.9" class="st8" width="26.1" height="189.5"/>
		<rect x="471.5" y="390.1" class="st8" width="26.1" height="130.4"/>
	</g>
	<g class="st2">
		<rect x="665.4" y="265.7" class="st8" width="195.6" height="240.4"/>
	</g>
	
		<linearGradient id="SVGID_00000166671341212664495470000009773537343882580415_" gradientUnits="userSpaceOnUse" x1="1028.8221" y1="-75.5525" x2="1028.8221" y2="332.6111" gradientTransform="matrix(1 0 0 -1 -99.6 659.41)">
		<stop  offset="0" style="stop-color:#808080;stop-opacity:0.25"/>
		<stop  offset="0.54" style="stop-color:#808080;stop-opacity:0.12"/>
		<stop  offset="1" style="stop-color:#808080;stop-opacity:0.1"/>
	</linearGradient>
	<path style="fill:url(#SVGID_00000166671341212664495470000009773537343882580415_);" d="M997.8,436.8c-1.2-6.4-3.7-12.6-3.7-19.1
		c-0.1-10.5,5.5-22.7-1.8-30.5c-1.7-1.8-3.9-3.1-5.2-5.2c-0.9-1.8-1.4-3.8-1.3-5.8c-0.1-12.3,6.6-24.7,2.6-36.4
		c-0.8-2.6-2.4-4.9-4.6-6.5c-2.3-1.5-5-1.8-7.9-1.8c-2.6,0-5.3,0.3-8,0.3c-1.5,0-3-0.2-4.5-0.6c-3.1-0.9-5.7-2.9-8.8-3.9
		c-1.6-0.5-3.3-0.8-5-0.7c-6.7-0.2-12.9,4.2-17.6,8.6c-2.4,2-4.9,3.8-7.6,5.5c0.4-0.3-9.3,6.4-5.7,6.5c2.6,0.1,5.1,1,7.2,2.5
		c-4.5,7-4.1,16.1,1,22.7c-1.6-1.6-3.3-3.3-5.2-5c-5.4-5.3-12.8-12.3-16.4-14.3c-5.8-3.1-14.1-9.9-14.1-9.9s-10.8,6-7.4,14.3
		c1.6,0.5,3.1,1.1,4.6,1.8c0,1.1,0.2,2.2,0.6,3.2c3.4,1.1,6.6,2.7,9.5,4.7c0.3,0.5,0.6,0.9,0.9,1.4c1.4,2.5,5.9,7,11.3,12.1
		c3.8,3.8,8.8,8.4,13.9,12.8c-1.5,3-3.1,6-3.4,9c-0.4-0.2-0.8-0.3-1.1-0.5c-7.4-4-24.8-3.6-24.8-3.6s-14.5-7.6-17.4-24.7
		c0,0-2.9-10.4-2.1-13.1h0l0.4-0.1l3.5-6.3c0.7-1.4,0.2-3-1.1-3.8c-0.3-0.2-0.7-0.3-1.1-0.3c-16.9-1.5-17.7,14-17.7,14h0.2l0,0.1
		c2.1,10,3.7,9.1,3.3,17.1l6.6,17.5c0,0,0.4,6,12.4,13.9s25.6,20.3,25.6,20.3s-7.2,3.8-4.5,21.1c3.3,21.2-1.7,51.3-1.7,51.3v19.5
		l0.9-0.2c-0.1,0.7-0.2,1.3-0.3,2.1c-1.5,9.8-1.7,19.8-0.6,29.6c2.5,20.7,12.4,49,12.4,49s3.7,9.9,4.5,17.9c0.1,1.6,0.5,3.1,1.1,4.6
		c1.9,4.4,2.8,9.1,2.9,13.8c0,11.9,2.1,23.8,6.4,34.9c4.2,10.6,5.8,16.9,6.2,20.5c-3,3.9-6.9,8.1-9.9,8.5c-5.8,0.8-17,1.6-9.5,11.1
		c0.3,0.3,0.5,0.6,0.9,0.9c-5.7,0.9-11.9,2.9-5.8,10.6c7.4,9.5,51.3,5.2,51.3,5.2s0.3-5.3,0-11.1c3.1-0.2,5-0.4,5-0.4
		s1.2-23.1-4.1-25.9c-1,0.1-2,0.3-2.9,0.7c-0.6-3.2-1-7.2-1.3-10.1l2.1-0.2v-0.2h0.1v-34.8c0,0-2.5-21.5-11.6-31
		c-1.2-1.2-2.2-2.5-3-4l-0.1-0.2c0.1-2.7,0.1-6.4,0-10.6l0.1-0.2c0.2-0.3,0.3-0.5,0.5-0.7c0.2-0.3,0.4-0.5,0.7-0.8l0.1-0.2l0,0
		c0,0,5-6,21.9-43.8c10.3-23.1,7.6-36,3.9-42.7c-0.8-3-2.4-9.7-4.4-21.2c-0.8-4.9-1.2-9.8-1.2-14.8c2.6,0.6,5.2,0.9,7.8,0.9
		c4.1,0.1,8.3-0.8,12-2.6c-2.7-3.9-5.5-8.6-4.2-13.1c1.5-5.2,7.6-7.5,11.2-11.7C999,450.4,999.1,443.2,997.8,436.8z"/>
	<path class="st12" d="M893.1,347.7c0,0-10.3,5.9-7.1,14.2c0,0,10.7,3.2,15,11s37.9,36.3,37.9,36.3l24.5-12.2
		c0,0-8.5-11.4-35.4-19.3c0,0-15.9-17-21.4-20.2S893.1,347.7,893.1,347.7z"/>
	<path class="st3" d="M898.1,352.7c0,0-10.3,5.9-7.1,14.2c0,0,10.7,3.2,15,11s37.9,36.3,37.9,36.3l24.5-12.2c0,0-8.5-11.4-35.4-19.3
		c0,0-15.9-17-21.4-20.2S898.1,352.7,898.1,352.7z"/>
	<path class="st8" d="M15.6,643.8c0,0-57.7,34.8,48.6,88.3c0,0,23.4-43.5-2.5-78.9c-10.4-14.3-29.9-18.6-45.3-9.9L15.6,643.8z"/>
	<path class="st13" d="M16.3,643.1c0,0,49.3,37.8,48,89.1"/>
	<path class="st7" d="M67,732.8c0,0-18.1-61.4,3.4-106.5c9.1-18.9,11.9-40.2,7.8-60.8c-2-9.8-4.9-19.3-8.6-28.5"/>
	<path class="st8" d="M83,508.4c0,7.5-13.6,29.3-13.6,29.3s-13.6-21.8-13.6-29.3c0-7.5,6.1-13.6,13.6-13.6
		C76.9,494.8,83,500.9,83,508.4L83,508.4L83,508.4z"/>
	<path class="st8" d="M105.5,550.1c-4.1,6.3-27.4,17.2-27.4,17.2s0.4-25.7,4.5-32c4.1-6.3,12.5-8.1,18.8-4S109.6,543.8,105.5,550.1
		L105.5,550.1z"/>
	<path class="st8" d="M104.5,621.2c-6.7,3.4-32.3,1-32.3,1s13.3-22,20.1-25.4c6.7-3.4,14.9-0.7,18.3,6
		C113.9,609.6,111.2,617.8,104.5,621.2L104.5,621.2L104.5,621.2z"/>
	<path class="st8" d="M91.7,674.9c-6,4.5-31.7,6.5-31.7,6.5s9.4-23.9,15.5-28.4c6-4.5,14.6-3.2,19,2.8S97.7,670.5,91.7,674.9
		L91.7,674.9z"/>
	<path class="st8" d="M49.6,568.8c5.4,5.2,30.5,10.7,30.5,10.7s-6.1-25-11.6-30.2c-5.4-5.2-14-5.1-19.3,0.3S44.1,563.5,49.6,568.8
		L49.6,568.8L49.6,568.8z"/>
	<path class="st8" d="M35.3,631.7c6.7,3.4,32.3,1,32.3,1s-13.3-22-20.1-25.4c-6.7-3.4-14.9-0.7-18.3,6
		C25.9,620.1,28.6,628.3,35.3,631.7L35.3,631.7z"/>
	<path class="st8" d="M29.9,694.8c6,4.5,31.7,6.5,31.7,6.5s-9.4-23.9-15.5-28.4c-6-4.5-14.6-3.2-19,2.8
		C22.5,681.8,23.8,690.4,29.9,694.8L29.9,694.8z"/>
	<path class="st4" d="M83,508.4c0,7.5-13.6,29.3-13.6,29.3s-13.6-21.8-13.6-29.3c0-7.5,6.1-13.6,13.6-13.6
		C76.9,494.8,83,500.9,83,508.4L83,508.4L83,508.4z"/>
	<path class="st4" d="M105.5,550.1c-4.1,6.3-27.4,17.2-27.4,17.2s0.4-25.7,4.5-32c4.1-6.3,12.5-8.1,18.8-4S109.6,543.8,105.5,550.1
		L105.5,550.1z"/>
	<path class="st4" d="M104.5,621.2c-6.7,3.4-32.3,1-32.3,1s13.3-22,20.1-25.4c6.7-3.4,14.9-0.7,18.3,6
		C113.9,609.6,111.2,617.8,104.5,621.2L104.5,621.2L104.5,621.2z"/>
	<path class="st4" d="M91.7,674.9c-6,4.5-31.7,6.5-31.7,6.5s9.4-23.9,15.5-28.4c6-4.5,14.6-3.2,19,2.8S97.7,670.5,91.7,674.9
		L91.7,674.9z"/>
	<path class="st4" d="M49.6,568.8c5.4,5.2,30.5,10.7,30.5,10.7s-6.1-25-11.6-30.2c-5.4-5.2-14-5.1-19.3,0.3S44.1,563.5,49.6,568.8
		L49.6,568.8L49.6,568.8z"/>
	<path class="st4" d="M35.3,631.7c6.7,3.4,32.3,1,32.3,1s-13.3-22-20.1-25.4c-6.7-3.4-14.9-0.7-18.3,6
		C25.9,620.1,28.6,628.3,35.3,631.7L35.3,631.7z"/>
	<path class="st4" d="M29.9,694.8c6,4.5,31.7,6.5,31.7,6.5s-9.4-23.9-15.5-28.4c-6-4.5-14.6-3.2-19,2.8
		C22.5,681.8,23.8,690.4,29.9,694.8L29.9,694.8z"/>
	<path class="st7" d="M108.8,734c0,0-18.1-61.3,3.4-106.5c9.1-18.9,11.9-40.2,7.8-60.8c-2-9.8-4.9-19.3-8.6-28.5"/>
	<path class="st8" d="M124.8,509.6c0,7.5-13.6,29.3-13.6,29.3s-13.6-21.8-13.6-29.3c0-7.5,6.1-13.6,13.6-13.6
		C118.7,496,124.8,502.1,124.8,509.6L124.8,509.6z"/>
	<path class="st8" d="M147.3,551.2c-4.1,6.3-27.4,17.2-27.4,17.2s0.4-25.7,4.5-32c4.1-6.3,12.5-8.1,18.8-4
		C149.6,536.5,151.4,545,147.3,551.2L147.3,551.2z"/>
	<path class="st8" d="M146.3,622.4c-6.7,3.4-32.3,1-32.3,1s13.3-22,20.1-25.4c6.7-3.4,14.9-0.7,18.3,6
		C155.8,610.8,153.1,619,146.3,622.4z"/>
	<path class="st8" d="M133.5,676.1c-6,4.5-31.7,6.5-31.7,6.5s9.4-23.9,15.5-28.4c6-4.5,14.6-3.2,19,2.8
		C140.8,663.1,139.5,671.6,133.5,676.1L133.5,676.1z"/>
	<path class="st8" d="M91.4,569.9c5.4,5.2,30.5,10.7,30.5,10.7s-6.1-25-11.6-30.2c-5.4-5.2-14-5.1-19.3,0.3S86,564.7,91.4,569.9
		L91.4,569.9L91.4,569.9z"/>
	<path class="st8" d="M77.1,632.9c6.7,3.4,32.3,1,32.3,1s-13.3-22-20.1-25.4c-6.7-3.4-14.9-0.7-18.3,6
		C67.7,621.3,70.4,629.5,77.1,632.9L77.1,632.9L77.1,632.9z"/>
	<path class="st8" d="M71.7,696c6,4.5,31.7,6.5,31.7,6.5s-9.4-23.9-15.5-28.4c-6-4.5-14.6-3.2-19,2.8C64.3,683,65.6,691.5,71.7,696
		L71.7,696z"/>
	<rect x="24.5" y="731.8" class="st8" width="953" height="7"/>
	
		<linearGradient id="SVGID_00000065040588370954752250000016545820856332198020_" gradientUnits="userSpaceOnUse" x1="799.215" y1="150.97" x2="799.215" y2="399.17" gradientTransform="matrix(1 0 0 -1 0 740)">
		<stop  offset="0" style="stop-color:#808080;stop-opacity:0.25"/>
		<stop  offset="0.54" style="stop-color:#808080;stop-opacity:0.12"/>
		<stop  offset="1" style="stop-color:#808080;stop-opacity:0.1"/>
	</linearGradient>
	
		<rect x="698.2" y="340.8" style="fill:url(#SVGID_00000065040588370954752250000016545820856332198020_);" width="202" height="248.2"/>
	<rect x="701.4" y="344.7" class="st8" width="195.6" height="240.4"/>
	<rect x="714.5" y="365.8" class="st15" width="40" height="40"/>
	<rect x="734.5" y="429.8" class="st15" width="142" height="8"/>
	<rect x="734.5" y="446.8" class="st15" width="142" height="8"/>
	<rect x="734.5" y="463.8" class="st15" width="142" height="8"/>
	<rect x="734.5" y="480.8" class="st15" width="142" height="8"/>
	<rect x="734.5" y="497.8" class="st15" width="142" height="8"/>
	<rect x="734.5" y="514.8" class="st15" width="142" height="8"/>
	<rect x="734.5" y="531.8" class="st15" width="142" height="8"/>
	<path class="st16" d="M957.1,684.3c0,0,1.2,17.4,3.2,19.3c2,2-17.8,3.2-17.8,3.2l2.8-22.5H957.1z"/>
	<path class="st3" d="M957.1,684.3c0,0,1.2,17.4,3.2,19.3c2,2-17.8,3.2-17.8,3.2l2.8-22.5H957.1z"/>
	<path class="st17" d="M961.4,697.7c0,0-2.8,0-12.6,5.1c0,0-6.7-1.2-9.5-10.7c0,0-8.3,14.2-13.8,15c-5.5,0.8-16.2,1.6-9.1,11
		s48.9,5.1,48.9,5.1S966.5,700.5,961.4,697.7z"/>
	<path class="st3" d="M961.4,697.7c0,0-2.8,0-12.6,5.1c0,0-6.7-1.2-9.5-10.7c0,0-8.3,14.2-13.8,15c-5.5,0.8-16.2,1.6-9.1,11
		s48.9,5.1,48.9,5.1S966.5,700.5,961.4,697.7z"/>
	<path class="st16" d="M955.5,711.1l-2.8,7.5l-18.2-5.1l1-7.4l0.2-1.8l0.7-5c0,0,15.4-4,15.4-2c0.2,1.6,0.5,3.2,1,4.8
		c0.6,2.4,1.4,5.2,2,7C955.2,710.3,955.5,711.1,955.5,711.1z"/>
	<path class="st18" d="M945.6,608.2c-2,3.4-2,7.6,0,11c0.8,1.4,1.7,2.7,2.8,3.9c8.7,9.5,11.1,30.8,11.1,30.8v34.3l-5.9,0.5l-9.5,0.7
		L929.9,631c0,0-8.3-42.6-4.3-50.1c3.9-7.5,7.5-54.5,7.5-54.5l3.3-3.4l7.8-8.1h22.5c1.8,1.3,3.3,3,4.4,4.9
		c3.8,6.2,7.2,19.2-3.2,43.2c-16.2,37.5-20.9,43.4-20.9,43.4C946.3,607.1,945.9,607.6,945.6,608.2z"/>
	<path class="st3" d="M945.7,608c-2,3.4-2,7.6,0,11c0.8,1.4,1.7,2.7,2.8,3.9c8.7,9.5,11.1,30.8,11.1,30.8v34.3l-5.9,0.4l-9.5,0.7
		L930,630.9c0,0-8.3-42.6-4.3-50.1c4-7.5,7.5-54.5,7.5-54.5l3.3-3.4l7.8-8h22.5c1.8,1.3,3.3,3,4.4,4.9c3.8,6.2,7.2,19.2-3.2,43.2
		c-16.2,37.5-20.9,43.4-20.9,43.4C946.5,606.9,946,607.4,945.7,608z"/>
	<path class="st5" d="M952.9,702.1l-17.1,2.1l0.7-5c0,0,15.4-4,15.4-2C952.1,698.9,952.5,700.5,952.9,702.1z"/>
	<path class="st18" d="M944.4,557.6c0,0,1,31.1,1.1,50.6c0,4.4,0,8.2,0,11c0,1.4-0.1,2.9-0.3,4.3c-1.2,3.6,1.2,11.4,1.2,11.4
		c5.9,15.6,8.3,32.3,7.1,48.9v17.4l-18.9,2.4c0,0,3.2-2.4-5.5-25.3c-4.1-11.1-6.1-22.8-6.1-34.6c0-4.7-1-9.4-2.8-13.7
		c-0.5-1.5-0.9-3-1-4.6c-0.8-7.9-4.3-17.8-4.3-17.8s-9.5-28-11.8-48.5c-1.1-9.8-0.9-19.6,0.5-29.4c0.3-2.5,0.8-4.9,1.4-7.3
		c0,0,38.6-24.3,53.1-7.5c1.4,1.6,2.5,3.5,3.3,5.5c0.8,2,1.4,4,1.9,6.2C967.8,548.9,944.4,557.6,944.4,557.6z"/>
	<circle class="st16" cx="943.2" cy="364.6" r="20.1"/>
	<path class="st16" d="M932.2,377.3c0,0,8.3,23.3,0,35.5s26.4,8.3,26.4,8.3l13.4-16.2c0,0-15.8,0-16.6-27.6S932.2,377.3,932.2,377.3
		z"/>
	<path class="st5" d="M972,524.5c-2.9,1-5.8,1.7-8.8,2.2c-4.9,0.8-10.7,0.8-14.1-2.2c-2-1.8-7-2-12.9-1.4
		c-12.5,1.2-29.5,5.9-32.7,6.8c0.3-2.5,0.8-4.9,1.4-7.3c0,0,38.6-24.3,53.1-7.5h8.4c1.8,1.3,3.3,3,4.4,4.9
		C971.6,523,972,524.5,972,524.5z"/>
	<path class="st5" d="M955.5,711.1l-2.8,7.5l-18.2-5.1l1-7.4c3.1,6.9,8.4,7.8,8.4,7.8c3.5-1.9,7.1-3.5,10.9-4.8
		C955.2,710.3,955.5,711.1,955.5,711.1z"/>
	<path class="st17" d="M956.7,709.2c0,0-2.8,0-12.6,5.1c0,0-6.7-1.2-9.5-10.7c0,0-8.3,14.2-13.8,15c-5.5,0.8-16.2,1.6-9.1,11.1
		s48.9,5.1,48.9,5.1S961.8,711.9,956.7,709.2z"/>
	<path class="st16" d="M863,368.5c0,0,0.8-15.4,16.9-13.9c1.5,0.2,2.6,1.5,2.5,3c0,0.3-0.1,0.7-0.3,1l-3.3,6.2L863,368.5z"/>
	<path class="st12" d="M956.3,409.6c0,0-19.3-3.2-24.5-7.1c0,0-3.9,7.5-11,3.5s-23.7-3.5-23.7-3.5c-8.8-5.4-14.8-14.3-16.6-24.5
		c0,0-2.8-10.3-2-13c0,0-10.3-10.7-15.4,3.5c2,9.9,3.5,9.1,3.2,17l6.3,17.4c0,0,0.4,5.9,11.8,13.8s24.5,20.1,24.5,20.1
		s-6.9,3.8-4.3,20.9c3.1,21-1.6,50.9-1.6,50.9v19.3c0,0,39.5-11.4,46.2-5.5c6.7,5.9,22.9,0,22.9,0s-2-6.7-4.7-22.9
		c-2.7-16.2,0.4-32,0.4-32s10.3-27.2,15-38.3s-3.6-26-11.8-31.6s-11.4-2.2-11.4-2.2S974,406.1,956.3,409.6z"/>
	<path class="st3" d="M905.6,466.6c0,0,3.2-0.8,18.9-3.1s43.4,3.2,43.4,3.2"/>
	<path class="st5" d="M919.2,351.6c9,0.2,15.7,11.3,11.7,19.3c-1.8,3.5-5.1,6.6-4.8,10.5c0.2,1.8,1.1,3.4,1.5,5.1
		c1.9,8-7.7,15.5-5.5,23.4c0.7,2.1,1.9,4.1,3.4,5.7l16.6,20.9c1,1.2,1.8,2.4,2.5,3.8c0.6,2,0.9,4.1,0.7,6.2
		c-0.1,10,0.6,20.7,6.5,28.8c7.1,9.7,21.5,13.2,32.3,7.8c-2.6-3.9-5.3-8.5-4-13c1.5-5.1,7.3-7.5,10.7-11.6c4.1-5,4.2-12.1,3-18.4
		s-3.5-12.5-3.5-18.9c-0.1-10.4,5.3-22.5-1.8-30.2c-1.6-1.8-3.8-3.1-4.9-5.1c-0.9-1.8-1.3-3.8-1.2-5.8c-0.1-12.2,6.3-24.5,2.5-36.1
		c-0.7-2.6-2.3-4.8-4.4-6.4c-5.5-3.7-13.1-0.1-19.4-2c-3-0.9-5.5-2.9-8.4-3.9c-7.9-2.7-15.2,2.7-20.7,7.8c-2.3,2-4.7,3.8-7.2,5.4
		C925,344.9,915.7,351.5,919.2,351.6z"/>
	<path class="st19" d="M920.2,351.6c9,0.2,15.7,11.3,11.7,19.3c-1.8,3.5-5.1,6.6-4.8,10.5c0.2,1.8,1.1,3.4,1.5,5.1
		c1.9,8-7.7,15.5-5.5,23.4c0.7,2.1,1.9,4.1,3.4,5.7l16.6,20.9c1,1.2,1.8,2.4,2.5,3.8c0.6,2,0.9,4.1,0.7,6.2
		c-0.1,10,0.6,20.7,6.5,28.8c7.1,9.7,21.5,13.2,32.3,7.8c-2.6-3.9-5.3-8.5-4-13c1.5-5.1,7.3-7.5,10.7-11.6c4.1-5,4.2-12.1,3-18.4
		s-3.5-12.5-3.5-18.9c-0.1-10.4,5.3-22.5-1.8-30.2c-1.6-1.8-3.8-3.1-4.9-5.1c-0.9-1.8-1.3-3.8-1.2-5.8c-0.1-12.2,6.3-24.5,2.5-36.1
		c-0.7-2.6-2.3-4.8-4.4-6.4c-5.5-3.7-13.1-0.1-19.4-2c-3-0.9-5.5-2.9-8.4-3.9c-7.9-2.7-15.2,2.7-20.7,7.8c-2.3,2-4.7,3.8-7.2,5.4
		C926,344.9,916.7,351.5,920.2,351.6z"/>
	
		<linearGradient id="SVGID_00000023990596265381013600000009418044449805016497_" gradientUnits="userSpaceOnUse" x1="2225.3577" y1="-77.5466" x2="2225.3577" y2="316.8424" gradientTransform="matrix(1 0 0 -1 -1655.6 659.41)">
		<stop  offset="0" style="stop-color:#808080;stop-opacity:0.25"/>
		<stop  offset="0.54" style="stop-color:#808080;stop-opacity:0.12"/>
		<stop  offset="1" style="stop-color:#808080;stop-opacity:0.1"/>
	</linearGradient>
	<path style="fill:url(#SVGID_00000023990596265381013600000009418044449805016497_);" d="M618.1,541.9c-2.3-2.1-4.3-4.6-5.9-7.2
		c-3.5-5.4-9.2-8.4-13.2-9.8v-1.8h0.2l-0.1-1.6h0.1l-0.3-4.3l0,0l0,0l-1.4-21.7c0,0-5.1-14.5,3.9-27.8s0.6-26.1-7.9-31
		c0,0-4-21.1-0.6-26.1c-4.6-2.7-9.3-5.1-14.2-7.2c-0.1-0.3-0.1-0.5-0.2-0.8c-0.1-2-0.2-3.9-0.3-5.9c0.1-1,0.3-2,0.6-3
		c0.1-0.4,0.2-0.8,0.4-1.3c8.3-3.2,13.8-11.2,13.8-20.1c0-2.5-0.5-5.1-1.3-7.4c0.4-0.7,0.8-1.5,1-2.4c0.4-2.4,0-4.9-1.3-6.9
		c-2.2-5-7.9-9.6-12-11.2c-5.9-2.4-14.7-1.8-20.8-1.1c-3.4,0.4-7.3,1.6-8.6,4.7c-0.3,1.2-0.6,2.4-0.8,3.6
		c-1.3,4.8-6.8,7.1-10.3,10.8c-3,3.3-4.4,7.7-5.3,12c-2.8,12.4-3.5,25.1-2,37.7c0.3,2.9,0.8,5.8,1.3,8.7c-2.1,2.9-3.9,8-3.1,17
		l-6.8,32.2l-2.8,18.8c-0.8,5.3,1.1,10.7,5.1,14.4c4.3,4.2,9.6,11.4,12.8,16.1c-1.4,4.1-2.1,8.4-2.1,12.8c0.1,2,0.2,3.9,0.3,5.7
		c0.3,3.8,1,7.6,2.2,11.3c0.8,7.7,2.4,17.6,5.4,24l1.1,33.8c0,0-1.7,31-5.1,37.2c-3.4,6.1,7.3,57.7,7.3,57.7v7.2l-1.8,5.3l-0.5-0.3
		c-8.5,10.5,0,14.4,0,14.4s2.3,0.1,6,0.2c-0.6,3,0.8,6.1,3.6,7.5c0,0,48,2.2,56.5,0s6.2-10,1.7-9.4c-2.3,0.1-4.6-0.2-6.8-0.9
		c2.6-3.1,0.5-7.3-2.8-6.9c-4.5,0.6-14.7-3.5-14.7-3.5v0.1c-0.3-0.1-0.7-0.2-1-0.3c-3.8-0.9-7.5-1.9-11.2-3.2
		c-2.2-4.7-7.2-17.2-3.6-27c1.6-4.4,2.2-10.3,2.2-15.9c0.1-17.1,2.6-34.2,7.4-50.6l6.8-23.3c0,0,9.6-28.3,10.2-36l-0.1-11.3
		c7.9,5.1,14.2,3.6,18.3,1.2c2.1-1.2,2.8-3.8,1.6-5.9C618.8,542.7,618.4,542.3,618.1,541.9z M542.7,483.1c0.2-0.8,0.3-1.7,0.5-2.6
		c1.3,0,2.7,0,4,0c1.7,3.4,2.3,7.2,2,10.9C546.2,490.4,541.6,488,542.7,483.1z"/>
	<path class="st21" d="M548.1,706.3l-2.2,6.5l7.1,7.1l23.4,5.4l16.8-1.6l-1.1-6l0,0c-0.7-2.6-2.7-4.6-5.3-5.3
		c-6.9-1.6-20.1-5.3-22.9-10.5L548.1,706.3z"/>
	<path class="st5" d="M548.1,706.3l-2.2,6.5l7.1,7.1l23.4,5.4l16.8-1.6l-1.1-6l0,0c-0.7-2.6-2.7-4.6-5.3-5.3
		c-6.9-1.6-20.1-5.3-22.9-10.5L548.1,706.3z"/>
	<path class="st22" d="M587.8,722l-3.3-4.3l3.3-5c0,0,9.8,3.9,14.1,3.4c4.3-0.6,6.5,7.1-1.6,9.2c-8.2,2.2-54.3,0-54.3,0
		s-8.2-3.8,0-14.1l7.1,5.4c0,0,12,6.5,17.9,5.4L587.8,722z"/>
	<path class="st21" d="M602.4,731.2l-16.8,1.6l-23.3-5.5l-7.1-7l0.6-1.7l0.8-2.4l0.8-2.4l15.8-4.3c0.8,1.3,1.9,2.4,3.2,3.2
		c5.1,3.5,14.3,6,19.7,7.3c0.2,0.1,0.5,0.1,0.7,0.2c2.3,0.8,4.1,2.7,4.7,5.1L602.4,731.2z"/>
	<path class="st5" d="M602.4,731.2l-16.8,1.6l-23.3-5.5l-7.1-7l0.6-1.7l6.5,5c0,0,12,6.5,17.9,5.4H597l-3.3-4.3l2.9-4.5
		c2.3,0.8,4.1,2.7,4.7,5.1L602.4,731.2z"/>
	<path class="st22" d="M597,729.6l-3.3-4.3l3.3-5c0,0,9.8,4,14.1,3.4c4.3-0.5,6.5,7.1-1.6,9.2c-8.2,2.2-54.3,0-54.3,0
		s-8.2-3.8,0-14.1l7.1,5.4c0,0,12,6.5,17.9,5.4L597,729.6z"/>
	<path class="st21" d="M583.4,414.5c0,0-26.1,2.7-22.3-8.1c1.1-3.1,1.3-6.4,0.8-9.6c-0.7-4-2.3-7.8-4.6-11l24.5,3.8
		c-1.5,2.4-2.6,5.1-3.3,7.9C575.6,408.9,583.4,414.5,583.4,414.5z"/>
	<path class="st22" d="M538.9,538.4c0,0,0.5,23.4,6,34.8l1.1,33.1c0,0-1.6,30.4-4.9,36.4c-3.3,6,7.1,56.5,7.1,56.5v8.7
		c0,0,17.4,6.5,22.3-1.1l-4.9-64.7l2.2-89.6L538.9,538.4z"/>
	<path class="st5" d="M538.9,538.4c0,0,0.5,23.4,6,34.8l1.1,33.1c0,0-1.6,30.4-4.9,36.4c-3.3,6,7.1,56.5,7.1,56.5v8.7
		c0,0,17.4,6.5,22.3-1.1l-4.9-64.7l2.2-89.6L538.9,538.4z"/>
	<path class="st23" d="M528,463.4l-3.3,8.7l-2.7,18.5c-0.7,5.2,1.1,10.5,4.9,14.1c6.5,6.5,15.2,20.1,15.2,20.1l10.3-31
		c0,0-10.3-1.6-8.7-8.7s1.1-20.1,1.1-20.1L528,463.4z"/>
	<path class="st3" d="M528,462.4l-3.3,8.7l-2.7,18.5c-0.7,5.2,1.1,10.5,4.9,14.1c6.5,6.5,15.2,20.1,15.2,20.1l10.3-31
		c0,0-10.3-1.6-8.7-8.7s1.1-20.1,1.1-20.1L528,462.4z"/>
	<path class="st5" d="M576.3,712.7c-7,11-17.8,4.8-19.7,3.5l0.8-2.4l15.8-4.3C573.9,710.8,575,711.9,576.3,712.7z"/>
	<path class="st22" d="M598.1,559.6c-0.5,7.6-9.8,35.3-9.8,35.3l-6.5,22.8c-4.7,16.1-7.1,32.8-7.2,49.6c0,5.6-0.5,11.3-2.1,15.6
		c-4.3,12,4.3,28.2,4.3,28.2c-7.6,13.6-20.6,4.3-20.6,4.3v-8.7c0,0-10.3-47.3-7.6-56.5s3.8-34.2,3.8-34.2V571
		c-8.7-8.7-14-20.2-14.9-32.4c-0.1-1.8-0.2-3.7-0.3-5.6c-0.4-12.3,7.9-26.6,11.2-31.7c0.8-1.2,1.3-1.9,1.3-1.9l48,19h0.1v1.9v4.1
		L598.1,559.6z"/>
	<path class="st5" d="M581.8,389.5c-1.5,2.4-2.6,5.1-3.3,7.9c-5.4,2-11.3,1.8-16.5-0.6c-0.7-4-2.3-7.8-4.6-11L581.8,389.5z"/>
	<circle class="st21" cx="570.9" cy="376.5" r="21.2"/>
	<path class="st5" d="M598.1,524.3h-0.2c-22.8,4.7-51.4-19.1-51.4-19.1c0.8-1.3,1.4-2.6,2-4c0.8-1.2,1.3-1.9,1.3-1.9l48,19l0.1,1.9
		L598.1,524.3z"/>
	<path class="st23" d="M592.1,414c0,0-30.4-18.5-40.2-10.9l-13.6,17.4c0,0-8.7,2.7-7.1,20.1l-6.5,31.5l19.6,4.9
		c0,0,11.4,10.9,2.2,26.6c0,0,28.8,23.9,51.6,19l-1.7-25.5c0,0-4.9-14.1,3.8-27.2s0.5-25.5-7.6-30.4
		C592.7,439.5,588.8,418.9,592.1,414z"/>
	<path class="st21" d="M593.7,524.8c0,0,11.4,2.2,16.8,10.9c1.6,2.6,3.5,5,5.7,7.1c1.8,1.6,1.9,4.3,0.3,6.1c-0.3,0.3-0.6,0.6-1,0.8
		c-4.3,2.6-11.3,4.2-20.2-3.1C580.2,534.1,593.7,524.8,593.7,524.8z"/>
	<path class="st5" d="M576.9,424.3c0,0-10.9-1.1-13.6,27.2s-7.1,34.8-7.1,34.8s-2.7,14.7,3.8,23.4c6.5,8.7,19,27.2,19,27.2
		s13.6,3.8,16.3-9.8l-16.8-31.5c0,0-2.7-10.9,3.8-18.5S593.7,418.9,576.9,424.3z"/>
	<path class="st23" d="M578,422.7c0,0-10.9-1.1-13.6,27.2s-7.1,34.8-7.1,34.8s-2.7,14.7,3.8,23.4c6.5,8.7,19,27.2,19,27.2
		s13.6,3.8,16.3-9.8l-16.8-31.5c0,0-2.7-10.9,3.8-18.4S594.8,417.2,578,422.7z"/>
	<path class="st5" d="M586.9,443.1c0,0,1.1,16.8-3.8,26.1s-4.9,21.2,0,27.7"/>
	<path class="st5" d="M589.7,422.4c0,0-4.3-4.4-16.8-4.9s-17.9-4.4-17.9-4.4"/>
	<path class="st5" d="M559.4,349.1c-3.3,0.4-7.1,1.5-8.3,4.6c-0.3,1.2-0.6,2.4-0.8,3.6c-1.2,4.8-6.6,7-9.9,10.6
		c-2.9,3.2-4.2,7.5-5.1,11.8c-2.7,12.1-3.4,24.6-1.9,36.9c1.1,9,3.2,17.9,3.8,26.9s-0.5,18.6-5.5,26.2c-2.1,3.3-4.9,6.1-6.4,9.7
		c3.1,2.5,7.4,2.9,11.4,3c4.7,0.2,9.3,0.2,14,0c2.5-0.1,5-0.2,7.1-1.5c1.6-1,2.9-2.4,3.7-4c2.7-4.5,3.3-10,3.2-15.2s-1-10.5-1-15.8
		c0-2.9,0.2-5.9,1.8-8.3c1.2-1.7,3-2.8,4.5-4.2c5.8-5.1,7.8-13.4,8-21.2s-1.1-15.5-0.4-23.3c0.3-3,1.4-6.7,4.4-7.3
		c1,0,1.9-0.2,2.8-0.4c2.4-0.9,2.2-4.3,2.8-6.8c0.8-2.8,3.1-4.9,3.8-7.7c1.6-6.6-6.8-14.4-12.3-16.7
		C573.8,347.8,565.3,348.4,559.4,349.1z"/>
	<path class="st24" d="M558.9,348c-3.3,0.4-7.1,1.5-8.3,4.6c-0.3,1.2-0.6,2.4-0.8,3.6c-1.2,4.8-6.6,7-9.9,10.6
		c-2.9,3.2-4.2,7.5-5.1,11.8c-2.7,12.1-3.4,24.6-1.9,36.9c1.1,9,3.2,17.9,3.8,26.9s-0.5,18.6-5.5,26.2c-2.1,3.3-4.9,6.1-6.4,9.7
		c3.1,2.5,7.4,2.9,11.4,3c4.7,0.2,9.3,0.2,14,0c2.5-0.1,5-0.2,7.1-1.5c1.6-1,2.9-2.4,3.7-4c2.7-4.5,3.3-10,3.2-15.2s-1-10.5-1-15.8
		c0-2.9,0.2-5.9,1.8-8.3c1.2-1.7,3-2.8,4.5-4.2c5.8-5.1,7.8-13.4,8-21.2s-1.1-15.5-0.4-23.3c0.3-3,1.4-6.7,4.4-7.3
		c1,0,1.9-0.2,2.8-0.4c2.4-0.9,2.2-4.3,2.8-6.8c0.8-2.8,3.1-4.9,3.8-7.7c1.6-6.6-6.8-14.4-12.3-16.7
		C573.3,346.8,564.8,347.3,558.9,348z"/>
</g>
</svg>
