<?xml version="1.0" encoding="utf-8"?>
<!-- Generator: Adobe Illustrator 25.4.1, SVG Export Plug-In . SVG Version: 6.00 Build 0)  -->
<svg version="1.1" id="e4da07c6-3f45-486e-a553-879e7f222c67"
	 xmlns="http://www.w3.org/2000/svg" xmlns:xlink="http://www.w3.org/1999/xlink" x="0px" y="0px" viewBox="0 0 926 749"
	 style="enable-background:new 0 0 926 749;" xml:space="preserve">
<style type="text/css">
	.st0{fill:#FFFFFF;}
	.st1{opacity:0.1;}
	.st2{fill:#FF6584;}
	.st3{fill:#3F3D56;}
	.st4{fill:#F2F2F2;}
	.st5{fill:#E6E6E6;}
	.st6{fill:#6C63FF;}
</style>
<g>
	<g>
		<g>
			<g>
				
					<ellipse transform="matrix(0.9239 -0.3827 0.3827 0.9239 -68.7351 108.3168)" class="st0" cx="237.9" cy="226.9" rx="95" ry="95"/>
			</g>
			<g>
				<path class="st0" d="M0,758.8c-6.1,0-11-4.9-11-11V527c0-58.9,15.4-116.8,44.6-167.6c28.3-49.2,68.9-90.9,117.4-120.4
					c16.7-10.2,34.4-18.9,52.6-26c10.6-4.2,21.6-7.8,32.6-10.8c0.3-0.1,0.7-0.2,1-0.3c3.2-0.9,6.4-1.7,9.7-2.5
					c0.3-0.1,0.5-0.1,0.8-0.2c20.4-4.9,41.4-7.8,62.4-8.8c2.8-0.1,5.2-0.2,7.5-0.3c0.9,0,1.9-0.1,2.8-0.1c1.9,0,3.8-0.1,5.7-0.1h600
					c6.1,0,11,4.9,11,11v220.9c0,90-35,174.6-98.7,238.3C774.7,723.8,690,758.8,600,758.8H0z"/>
			</g>
			<g>
				<path class="st0" d="M0,760c-2.9,0-5.8-1.2-7.8-3.3s-3.2-4.9-3.2-7.9c0.2-22.9,13.2-44.6,38.6-64.4c22.8-17.9,55.1-33.8,96-47.4
					c82.6-27.5,192.2-42.6,308.4-42.6s225.8,15.1,308.4,42.6c40.8,13.6,73.1,29.5,96,47.4c25.4,19.9,38.3,41.5,38.6,64.4
					c0,2.9-1.1,5.8-3.2,7.9c-2.1,2.1-4.9,3.3-7.8,3.3H0z"/>
			</g>
			<g class="st1">
				<g>
					<path class="st0" d="M352,725.2c-22.3,0-43.5-2.5-59.5-6.9c-20.9-5.8-31.5-14.7-31.5-26.3s10.6-20.5,31.5-26.3
						c16-4.5,37.2-6.9,59.5-6.9s43.5,2.5,59.5,6.9c20.9,5.8,31.5,14.7,31.5,26.3s-10.6,20.5-31.5,26.3
						C395.5,722.8,374.3,725.2,352,725.2z"/>
				</g>
			</g>
			<g class="st1">
				<g>
					<path class="st0" d="M525,685.2c-22.3,0-43.5-2.5-59.5-6.9c-20.9-5.8-31.5-14.7-31.5-26.3s10.6-20.5,31.5-26.3
						c16-4.5,37.2-6.9,59.5-6.9s43.5,2.5,59.5,6.9c20.9,5.8,31.5,14.7,31.5,26.3s-10.6,20.5-31.5,26.3
						C568.5,682.8,547.3,685.2,525,685.2z"/>
				</g>
			</g>
			<g class="st1">
				<g>
					<ellipse class="st0" cx="352" cy="692" rx="83" ry="31"/>
				</g>
			</g>
			<g class="st1">
				<g>
					<ellipse class="st0" cx="525" cy="652" rx="83" ry="31"/>
				</g>
			</g>
			<g>
				<circle class="st0" cx="138" cy="290" r="18"/>
			</g>
			<g>
				<circle class="st0" cx="740" cy="564" r="18"/>
			</g>
			<g>
				<circle class="st0" cx="410" cy="339" r="18"/>
			</g>
			<g>
				<circle class="st0" cx="757" cy="297" r="15"/>
			</g>
			<g>
				<circle class="st0" cx="154" cy="497" r="15"/>
			</g>
			<g>
				<path class="st0" d="M91.8,594.5c-3.5,0-6.6-1.6-8.6-4.2c-2.5-2-4.2-5.1-4.2-8.6v-0.4c0-3.5,1.6-6.6,4.2-8.6
					c2-2.6,5.1-4.2,8.6-4.2h0.4c3.5,0,6.6,1.6,8.6,4.2c2.5,2,4.2,5.1,4.2,8.6v0.4c0,3.5-1.6,6.6-4.2,8.6c-2,2.6-5.1,4.2-8.6,4.2
					H91.8z"/>
			</g>
			<g>
				<path class="st0" d="M676.8,446.5c-3.5,0-6.6-1.6-8.6-4.2c-2.5-2-4.2-5.1-4.2-8.6v-0.4c0-3.5,1.6-6.6,4.2-8.6
					c2-2.5,5.1-4.2,8.6-4.2h0.4c3.5,0,6.6,1.6,8.6,4.2c2.5,2,4.2,5.1,4.2,8.6v0.4c0,3.5-1.6,6.6-4.2,8.6c-2,2.5-5.1,4.2-8.6,4.2
					H676.8z"/>
			</g>
			<g>
				<path class="st0" d="M827.8,416.5c-3.5,0-6.6-1.6-8.6-4.2c-2.5-2-4.2-5.1-4.2-8.6v-0.4c0-3.5,1.6-6.6,4.2-8.6
					c2-2.5,5.1-4.2,8.6-4.2h0.4c3.5,0,6.6,1.6,8.6,4.2c2.5,2,4.2,5.1,4.2,8.6v0.4c0,3.5-1.6,6.6-4.2,8.6c-2,2.5-5.1,4.2-8.6,4.2
					H827.8z"/>
			</g>
			<g>
				<path class="st0" d="M502.8,496.5c-3.5,0-6.6-1.6-8.6-4.2c-2.5-2-4.2-5.1-4.2-8.6v-0.4c0-3.5,1.6-6.6,4.2-8.6
					c2-2.5,5.1-4.2,8.6-4.2h0.4c3.5,0,6.6,1.6,8.6,4.2c2.5,2,4.2,5.1,4.2,8.6v0.4c0,3.5-1.6,6.6-4.2,8.6c-2,2.5-5.1,4.2-8.6,4.2
					H502.8z"/>
			</g>
			<g>
				<path class="st0" d="M783.8,506.5c-3.5,0-6.6-1.6-8.6-4.2c-2.5-2-4.2-5.1-4.2-8.6v-0.4c0-3.5,1.6-6.6,4.2-8.6
					c2-2.5,5.1-4.2,8.6-4.2h0.4c3.5,0,6.6,1.6,8.6,4.2c2.5,2,4.2,5.1,4.2,8.6v0.4c0,3.5-1.6,6.6-4.2,8.6c-2,2.5-5.1,4.2-8.6,4.2
					H783.8z"/>
			</g>
			<g>
				<path class="st0" d="M444.8,549.5c-3.5,0-6.6-1.6-8.6-4.2c-2.5-2-4.2-5.1-4.2-8.6v-0.4c0-3.5,1.6-6.6,4.2-8.6
					c2-2.6,5.1-4.2,8.6-4.2h0.4c3.5,0,6.6,1.6,8.6,4.2c2.5,2,4.2,5.1,4.2,8.6v0.4c0,3.5-1.6,6.6-4.2,8.6c-2,2.6-5.1,4.2-8.6,4.2
					H444.8z"/>
			</g>
			<g>
				<path class="st0" d="M572.8,551.5c-3.5,0-6.6-1.6-8.6-4.2c-2.5-2-4.2-5.1-4.2-8.6v-0.4c0-3.5,1.6-6.6,4.2-8.6
					c2-2.5,5.1-4.2,8.6-4.2h0.4c3.5,0,6.6,1.6,8.6,4.2c2.5,2,4.2,5.1,4.2,8.6v0.4c0,3.5-1.6,6.6-4.2,8.6c-2,2.5-5.1,4.2-8.6,4.2
					H572.8z"/>
			</g>
			<g>
				<path class="st0" d="M93.8,381.5c-3.5,0-6.6-1.6-8.6-4.2c-2.5-2-4.2-5.1-4.2-8.6v-0.4c0-3.5,1.6-6.6,4.2-8.6
					c2-2.5,5.1-4.2,8.6-4.2h0.4c3.5,0,6.6,1.6,8.6,4.2c2.5,2,4.2,5.1,4.2,8.6v0.4c0,3.5-1.6,6.6-4.2,8.6c-2,2.5-5.1,4.2-8.6,4.2
					H93.8z"/>
			</g>
			<g>
				<path class="st0" d="M677,299.8c-6.1,0-11-4.9-11-11v-58.1c0-6.1,4.9-11,11-11h2.9c6.1,0,11,4.9,11,11v58.1c0,6.1-4.9,11-11,11
					H677z"/>
			</g>
			<g>
				<path class="st0" d="M600.8,474.8c-1.8,0-3.5-0.4-5.1-1.3l-12.1-6.3c-2.7-1.4-4.7-3.9-5.5-6.8c-0.5-1.7-0.5-3.5-0.2-5.3
					l-2.1-3.5c-1.8-3-2.1-6.8-0.7-10l26.4-60.9c1.7-4,5.7-6.6,10.1-6.6c0.1,0,0.3,0,0.4,0c4.5,0.2,8.5,3.1,10,7.4l13.2,38.5
					c1,2.9,0.7,6.1-0.8,8.9l-19.5,35.6c-1,1.9-2.6,3.4-4.5,4.4c-0.9,1.7-2.3,3.2-4,4.3C604.8,474.3,602.8,474.8,600.8,474.8z"/>
			</g>
			<g>
				<path class="st0" d="M596.8,503.4c-1.8,0-3.7-0.2-5.7-0.6c-8.2-1.7-14.4-6.5-17.2-13.3c-6.3-15,5.5-34.6,7.9-38.4
					c2.1-3.2,5.6-5.1,9.3-5.1c1.5,0,3.1,0.3,4.5,1l6.3,2.9c2.3,1.1,4.2,2.9,5.3,5.2c4,8.2,12.4,28.5,4.9,40.3
					C608.9,500.5,603.5,503.4,596.8,503.4C596.8,503.4,596.8,503.4,596.8,503.4z"/>
			</g>
			<g>
				<path class="st0" d="M624.8,687c-3.5-0.1-6.7-1.2-9.5-3.2c-7.8-5.5-9.7-16.4-4.1-24.2l10-14.2l-7.4-12.9c-1-1.7-1.5-3.6-1.5-5.5
					v-20.2l-3.6-41.5l-6.4-6.4c-1.7-1.7-2.8-4-3.1-6.4l-5.7-46.6c-0.3-2.1,0.1-4.3,1.1-6.3l4.3-8.5l2.7-26.7
					c0.1-0.7,0.2-1.4,0.4-2.1l6.9-22.4c0.8-2.6,2.5-4.8,4.9-6.2c10.4-6.2,23.5-9.4,38.7-9.4c20.7,0,38.6,5.8,39.3,6.1
					c3.1,1,5.6,3.3,6.8,6.4l9.2,23c0.4,0.9,0.6,1.9,0.7,2.8l1.6,13.9l5.4,16.8c0.4,1.1,0.5,2.2,0.5,3.4v46c0,2.5-0.8,4.9-2.4,6.9
					l-4.6,5.7c-0.2,0.2-0.4,0.4-0.6,0.7l-5.2,5.5l4.4,40l2.3,5.4c0.6,1.3,0.8,2.8,0.8,4.2v32.2c0,1.8-0.4,3.5-1.2,5.1l-3.6,6.9
					c6.2,4.6,10.4,11.1,8.5,19.3c-1,4.3-4.7,11.5-18.6,11.5c0,0,0,0,0,0c-11.5,0-28.3-4.5-30.1-5c-4.4-1.2-7.5-5-8-9.5
					c-3.3,3.6-8.1,7.3-15,10.9c-6.1,3.2-11.9,4.8-17.2,4.8C625.3,687,625,687,624.8,687z"/>
			</g>
			<g>
				<path class="st0" d="M650.3,367.9c-30.2,0-54.7-24.5-54.7-54.7c0-11.7,3.8-23.3,10.8-32.6c0-0.1,0.1-0.1,0.1-0.2
					c10.3-13.7,26.6-21.9,43.8-21.9c11.8,0,23.1,3.7,32.6,10.8c13.8,10.3,22.1,26.7,22.1,43.9c0,14.6-5.7,28.3-16,38.7
					C678.6,362.2,664.9,367.9,650.3,367.9C650.3,367.9,650.3,367.9,650.3,367.9z"/>
			</g>
			<g class="st1">
				<g>
					<path class="st0" d="M684.2,326.5c-4.5,0-8.6-2.8-10.3-7c-5.7-14.9-15.6-32.7-30-32.7c-9.6,0-19.2,7.5-22.1,10.4
						c-2.1,2.1-5,3.2-7.8,3.2c-2.6,0-5.1-0.9-7.2-2.7c-4.4-3.8-5.1-10.2-1.7-14.9c10.3-13.8,26.7-22.1,43.9-22.1
						c11.8,0,23.1,3.7,32.6,10.8c6.5,4.8,11.9,11.2,15.7,18.3c1.1,2.2,1.5,4.6,1.1,7l-3.6,20.4c-0.9,4.9-4.8,8.6-9.8,9.1
						C684.9,326.5,684.5,326.5,684.2,326.5z"/>
				</g>
			</g>
			<g>
				<path class="st0" d="M685.3,324.2c-4.5,0-8.6-2.8-10.3-7c-5.7-14.9-15.6-32.7-30-32.7c-9.6,0-19.2,7.5-22.1,10.4
					c-2.1,2.1-5,3.2-7.8,3.2c-2.6,0-5.1-0.9-7.2-2.7c-4.4-3.8-5.1-10.2-1.7-14.9c10.3-13.8,26.7-22.1,43.9-22.1
					c11.8,0,23.1,3.7,32.6,10.8c6.5,4.8,11.9,11.2,15.7,18.3c1.1,2.2,1.5,4.6,1.1,7l-3.6,20.4c-0.9,4.9-4.8,8.6-9.8,9.1
					C686,324.2,685.7,324.2,685.3,324.2z"/>
			</g>
			<g>
				<path class="st0" d="M617.5,457c-4.9,0-9.1-2.2-11.6-6.1c-2.9-4.6-2.4-9.7-1.3-13.2l-7.8-74c-0.1-1.2,0-2.5,0.2-3.7l2.9-12.1
					c0.9-3.9,3.9-7,7.8-8.1l0.8-0.2c1.6-4.2,5.6-7.1,10.1-7.2c40.2-0.9,54.6-20.9,58.7-28.4l-4.9-16.9c-0.8-2.9-0.4-6.1,1.1-8.7
					c1.6-2.6,4.1-4.5,7.1-5.1c1.4-0.3,2.9-0.5,4.4-0.5c14.3,0,27.2,14.5,32.5,21.5c13.4,8.7,11.1,29.5,10.4,34.3
					c-1.4,27.6-2.9,71.9-1.8,82.1c1.9,16.6-13,30.3-21.5,36.6c-0.5,1.6-1.3,3-2.1,4c-2.5,3.2-6.4,5.1-10.7,5.1c0,0,0,0,0,0
					c-3,0-5.6-0.8-6.9-1.3c-7.9-2.7-17-4.1-27.1-4.1c-19.7,0-36.2,5.4-36.3,5.4c-0.8,0.3-1.6,0.4-2.4,0.5
					C618.6,457,618,457,617.5,457z"/>
			</g>
			<g>
				<path class="st0" d="M651.5,469.9c-4.1,0-11.8-1.6-17-12c-3.8-7.5-3.8-15.3-0.3-21.8c7.9-14.2,30.6-17.2,35-17.7
					c0.4,0,0.7-0.1,1.1-0.1c5,0,9.4,3.4,10.7,8.3l1.7,6.7c0.6,2.5,0.3,5.1-0.8,7.4c-0.1,0.3-3.2,6.5-7.5,12.9
					C666.8,464.7,659.3,469.9,651.5,469.9C651.5,469.9,651.5,469.9,651.5,469.9z"/>
			</g>
			<g>
				<path class="st0" d="M674.4,450.7c-3.4,0-6.8-1.6-8.9-4.5l-9.2-12.6c-3.3-4.5-2.7-10.8,1.4-14.5l25.4-23.5
					c-2.8-9-7.5-24.8-9.2-33.7c-3.2-16.7,5.4-27.5,6.4-28.7c1-1.1,2.1-2.1,3.5-2.7c3.2-1.6,7-2.4,11.2-2.4c7.8,0,15,3,15.9,3.3
					c2.7,1.1,4.8,3.3,5.9,5.9l1.5,3.6c9.3,22.6,15.3,46.4,17.7,70.8c0.4,4.2-1.6,8.2-5.1,10.4l-9.2,5.7c-0.3,0.2-0.5,0.3-0.8,0.5
					l-41.4,21.3C677.8,450.3,676.1,450.7,674.4,450.7z"/>
			</g>
			<g>
				<path class="st0" d="M685.9,330.8c-11.9,0-21.6-9.7-21.6-21.6c0-11.9,9.7-21.6,21.6-21.6s21.6,9.7,21.6,21.6
					C707.5,321.1,697.8,330.8,685.9,330.8z"/>
			</g>
			<g>
				<path class="st0" d="M678.4,249.2c-10.3,0-18.8-8.4-18.8-18.8c0-10.3,8.4-18.8,18.8-18.8c10.3,0,18.8,8.4,18.8,18.8
					C697.2,240.7,688.8,249.2,678.4,249.2z"/>
			</g>
			<g>
				<path class="st0" d="M478.8,365.5c-3.5,0-6.6-1.6-8.6-4.2c-2.6-2-4.2-5.1-4.2-8.6v-0.4c0-3.5,1.6-6.6,4.2-8.6
					c2-2.5,5.1-4.2,8.6-4.2h0.4c3.5,0,6.6,1.6,8.6,4.2c2.6,2,4.2,5.1,4.2,8.6v0.4c0,3.5-1.6,6.6-4.2,8.6c-2,2.5-5.1,4.2-8.6,4.2
					H478.8z"/>
			</g>
			<g>
				<path class="st0" d="M642.8,309.5c-3.5,0-6.6-1.6-8.6-4.2c-2.6-2-4.2-5.1-4.2-8.6v-0.4c0-3.5,1.6-6.6,4.2-8.6
					c2-2.5,5.1-4.2,8.6-4.2h0.4c3.5,0,6.6,1.6,8.6,4.2c2.6,2,4.2,5.1,4.2,8.6v0.4c0,3.5-1.6,6.6-4.2,8.6c-2,2.5-5.1,4.2-8.6,4.2
					H642.8z"/>
			</g>
			<g>
				<path class="st0" d="M624.8,326.5c-3.5,0-6.6-1.6-8.6-4.2c-2.6-2-4.2-5.1-4.2-8.6v-0.4c0-3.5,1.6-6.6,4.2-8.6
					c2-2.5,5.1-4.2,8.6-4.2h0.4c3.5,0,6.6,1.6,8.6,4.2c2.6,2,4.2,5.1,4.2,8.6v0.4c0,3.5-1.6,6.6-4.2,8.6c-2,2.5-5.1,4.2-8.6,4.2
					H624.8z"/>
			</g>
			<g>
				<circle class="st0" cx="556" cy="267" r="15"/>
			</g>
			<g>
				<path class="st0" d="M280.6,585.2c-23.5,0-50.2,0-67.1-45.7c-4.5-12.3-8.2-27.2-11.3-45.8c-7.3-44.4-10.9-109.3-10.9-198.5
					c0-33.7,3.7-69.3,11-106c3-15.2,6.7-30.8,10.9-46.4c4.6-16.7,9.9-33.8,15.8-50.7c3.4-9.7,7-19.5,10.9-29.3
					c16.4-41.4,30.5-67,31.1-68.1c1.9-3.5,5.6-5.7,9.6-5.7c0,0,0,0,0,0c4,0,7.7,2.2,9.6,5.7c0.8,1.5,20.2,36.7,39.9,91.4
					C348.3,136.7,370,214,370,295.2c0,129.5-7.6,208.4-23.8,248.3C329.2,585.2,302.3,585.2,280.6,585.2z"/>
			</g>
			<g class="st1">
				<g>
					<path class="st0" d="M239.3,564.3c-6.1,0-11-4.9-11-11V95.7c0-1.2,0.2-2.5,0.6-3.6c3.4-9.7,7.1-19.5,10.9-29.3
						c1.7-4.3,5.8-7,10.2-7c0.7,0,1.4,0.1,2.1,0.2c5.2,1,8.9,5.5,8.9,10.8v486.5c0,6.1-4.9,11-11,11H239.3z"/>
				</g>
			</g>
			<g>
				<circle class="st0" cx="278.2" cy="192.6" r="54.1"/>
			</g>
			<g>
				<path class="st0" d="M363.1,663c-0.9,0-1.9-0.1-2.8-0.4c-5.4-1.4-8.9-6.7-8.1-12.2h0c3.1-21.2,3.4-60.1-8.7-74.4
					c-2.1-2.4-4.3-4-7-4.8c-3.4,3.6-7.3,6.9-11.5,9.6V597c0,6.1-4.9,11-11,11h-72c-6.1,0-11-4.9-11-11v-18.9
					c-2.7-2.1-5.2-4.3-7.5-6.8c-2.7,0.8-5,2.4-7,4.8c-12.2,14.3-11.8,53.2-8.7,74.4c0.8,5.5-2.7,10.8-8.1,12.2
					c-0.9,0.2-1.9,0.4-2.8,0.4c-4.5,0-8.6-2.7-10.3-7.1c-1.1-2.9-26.5-70.3-9.5-112.1c8.9-22,20.8-30.5,31-33.1
					c2-2.9,5.3-4.8,9.1-4.8h125.6c3.8,0,7.1,1.9,9.1,4.8c10.2,2.7,22,11.1,31,33.1c17,41.8-8.4,109.3-9.5,112.1
					C371.8,660.3,367.6,663,363.1,663z"/>
			</g>
			<g>
				
					<ellipse transform="matrix(0.7071 -0.7071 0.7071 0.7071 -54.7108 253.1349)" class="st0" cx="278.2" cy="192.6" rx="44.5" ry="44.5"/>
			</g>
			<g>
				<path class="st0" d="M926,293.5c-24.7,0-48-9.6-65.5-27.1C842.9,249,833.2,225.8,833,201c0-2.9,1.1-5.7,3.2-7.8
					c2.1-2.1,4.9-3.2,7.8-3.2h2c6,0,11,4.9,11,10.9c0.3,37.8,31.2,68.6,69,68.6c6.1,0,11,4.9,11,11v2c0,2.9-1.2,5.7-3.2,7.8
					C931.7,292.3,928.9,293.5,926,293.5C926,293.5,926,293.5,926,293.5z"/>
			</g>
			<g>
				<path class="st0" d="M926,330.5c-34.6,0-67.2-13.5-91.7-37.9c-24.5-24.4-38.1-56.9-38.3-91.6c0-2.9,1.1-5.7,3.2-7.8
					c2.1-2.1,4.9-3.2,7.8-3.2h2c6.1,0,11,4.9,11,10.9c0.3,58.2,47.8,105.5,106,105.6c6.1,0,11,4.9,11,11v2c0,2.9-1.2,5.7-3.2,7.8
					C931.7,329.3,928.9,330.5,926,330.5C926,330.5,926,330.5,926,330.5z"/>
			</g>
			<g>
				<path class="st0" d="M926,368.5c-92.4,0-167.7-75.1-168-167.5c0-2.9,1.1-5.7,3.2-7.8c2.1-2.1,4.9-3.2,7.8-3.2h2
					c6.1,0,11,4.9,11,11c0.2,79.2,64.8,143.6,144,143.6c6.1,0,11,4.9,11,11v2C937,363.6,932.1,368.5,926,368.5z"/>
			</g>
		</g>
	</g>
	<g>
		<circle class="st2" cx="237.9" cy="226.9" r="84"/>
		<path class="st3" d="M926,201v220.9c0,180-145.9,326-326,326c0,0,0,0,0,0H0V527c0-118,62.7-221.4,156.7-278.6
			c16.2-9.9,33.2-18.3,50.9-25.2c10.4-4.1,21-7.6,31.8-10.5c0.2-0.1,0.4-0.1,0.6-0.2c3.2-0.9,6.4-1.7,9.6-2.5c0.2,0,0.4-0.1,0.5-0.1
			c19.8-4.7,40.1-7.6,60.5-8.5c2.4-0.1,4.8-0.2,7.2-0.2c0.9,0,1.8,0,2.6,0c1.8,0,3.7-0.1,5.5-0.1L926,201z"/>
		<path class="st4" d="M432,605.5C193.9,605.5,0.8,669.7,0,749h864C863.2,669.7,670.1,605.5,432,605.5z"/>
		<g class="st1">
			<ellipse cx="352" cy="692" rx="80" ry="22.2"/>
		</g>
		<g class="st1">
			<ellipse cx="525" cy="652" rx="80" ry="22.2"/>
		</g>
		<g class="st1">
			<ellipse cx="352" cy="692" rx="72" ry="20"/>
		</g>
		<g class="st1">
			<ellipse cx="525" cy="652" rx="72" ry="20"/>
		</g>
		<circle class="st4" cx="138" cy="290" r="7"/>
		<circle class="st4" cx="740" cy="564" r="7"/>
		<circle class="st4" cx="410" cy="339" r="7"/>
		<circle class="st2" cx="757" cy="297" r="4"/>
		<circle class="st2" cx="154" cy="497" r="4"/>
		<polygon class="st4" points="94,581.3 92.2,581.3 92.2,579.5 91.8,579.5 91.8,581.3 90,581.3 90,581.7 91.8,581.7 91.8,583.5 
			92.2,583.5 92.2,581.7 94,581.7 		"/>
		<polygon class="st4" points="679,433.3 677.2,433.3 677.2,431.5 676.8,431.5 676.8,433.3 675,433.3 675,433.7 676.8,433.7 
			676.8,435.5 677.2,435.5 677.2,433.7 679,433.7 		"/>
		<polygon class="st4" points="830,403.3 828.2,403.3 828.2,401.5 827.8,401.5 827.8,403.3 826,403.3 826,403.7 827.8,403.7 
			827.8,405.5 828.2,405.5 828.2,403.7 830,403.7 		"/>
		<polygon class="st4" points="505,483.3 503.2,483.3 503.2,481.5 502.8,481.5 502.8,483.3 501,483.3 501,483.7 502.8,483.7 
			502.8,485.5 503.2,485.5 503.2,483.7 505,483.7 		"/>
		<polygon class="st4" points="786,493.3 784.2,493.3 784.2,491.5 783.8,491.5 783.8,493.3 782,493.3 782,493.7 783.8,493.7 
			783.8,495.5 784.2,495.5 784.2,493.7 786,493.7 		"/>
		<polygon class="st4" points="447,536.3 445.2,536.3 445.2,534.5 444.8,534.5 444.8,536.3 443,536.3 443,536.7 444.8,536.7 
			444.8,538.5 445.2,538.5 445.2,536.7 447,536.7 		"/>
		<polygon class="st4" points="575,538.3 573.2,538.3 573.2,536.5 572.8,536.5 572.8,538.3 571,538.3 571,538.7 572.8,538.7 
			572.8,540.5 573.2,540.5 573.2,538.7 575,538.7 		"/>
		<polygon class="st4" points="96,368.3 94.2,368.3 94.2,366.5 93.8,366.5 93.8,368.3 92,368.3 92,368.7 93.8,368.7 93.8,370.5 
			94.2,370.5 94.2,368.7 96,368.7 		"/>
		<rect x="677" y="230.7" class="st5" width="2.9" height="58.1"/>
		<polygon class="st5" points="611.7,385 585.3,446 590.5,454.6 588.8,457.5 600.8,463.8 600.8,460.4 605.4,459.2 625,423.6 		"/>
		<path class="st5" d="M591.1,456.9c0,0-19.5,30.5,2.3,35.1s4-32.2,4-32.2L591.1,456.9z"/>
		<path class="st0" d="M619.2,443.1l-6.9,22.4l-2.9,28.7l-5.2,10.3l5.7,46.6l9.2,9.2l4,46v20.7l10.9,19l-14.1,20
			c-2,2.9-1.3,6.8,1.5,8.9c1,0.7,2.2,1.1,3.5,1.2c3.1,0.1,7.2-0.8,12.5-3.6c16.7-8.6,16.1-16.7,16.1-16.7s10.3,0,10.9-8
			s-6.3-65.5-6.3-65.5l-6.3-24.7v-67.3h2.3l1.1,57.5l5.2,21.3l0.6,9.2l7.5,92c0,0,33.3,9.2,35.1,1.7s-12.6-12.1-12.6-12.1l8.6-16.7
			V611l-2.9-6.9l-5.2-46.6l8.6-9.2l4.6-5.7v-46l-5.7-17.8l-1.7-14.9l-9.2-23C688.2,440.8,646.2,427,619.2,443.1z"/>
		<path class="st6" d="M694,313.2c0,24.1-19.6,43.7-43.7,43.7c-24.1,0-43.7-19.6-43.7-43.7c0-9.4,3-18.5,8.6-26.1l0,0
			c14.4-19.4,41.8-23.4,61.1-9C687.4,286.4,694,299.4,694,313.2z"/>
		<g class="st1">
			<path d="M687.7,295.1l-3.6,20.4c-26.8-69.5-69.4-26.8-70.1-26.1c14.4-19.4,41.8-23.4,61.1-9C680.4,284.3,684.7,289.3,687.7,295.1
				z"/>
		</g>
		<path class="st0" d="M688.9,292.8l-3.6,20.4c-26.8-69.5-69.4-26.8-70.1-26.1c14.4-19.4,41.8-23.4,61.1-9
			C681.6,282,685.9,287,688.9,292.8L688.9,292.8z"/>
		<path class="st0" d="M682.9,284.2l6,20.8c0,0-12.4,37.3-70.1,38.6l-1.9,5.3l-6.3,1.7l-2.9,12.1l8,76.5c0,0-3.4,7.5,2.3,6.9
			c0,0,37.9-12.6,70.7-1.1c0,0,6.9,2.9,5.2-3.4c0,0,23-14.4,21.3-29.3s1.7-84.5,1.7-84.5s3.4-20.1-6.9-24.7
			C710.1,302.8,694.9,281.6,682.9,284.2z"/>
		<path class="st5" d="M670.3,429.4c0,0-36,3.6-26,23.6c10,20,27.7-16.9,27.7-16.9L670.3,429.4z"/>
		<path class="st5" d="M688.8,340.2c0,0-6.3,7.5-4,19.5s10.9,39.1,10.9,39.1L665.2,427l9.2,12.6l41.4-21.3l9.2-5.7l0,0
			c-2.3-23.3-8-46-16.9-67.6l-1.5-3.6C706.6,341.4,695.7,336.8,688.8,340.2z"/>
		<circle class="st5" cx="685.9" cy="309.2" r="10.6"/>
		<circle class="st5" cx="678.4" cy="230.4" r="7.8"/>
		<polygon class="st4" points="481,352.3 479.2,352.3 479.2,350.5 478.8,350.5 478.8,352.3 477,352.3 477,352.7 478.8,352.7 
			478.8,354.5 479.2,354.5 479.2,352.7 481,352.7 		"/>
		<polygon class="st4" points="645,296.3 643.2,296.3 643.2,294.5 642.8,294.5 642.8,296.3 641,296.3 641,296.7 642.8,296.7 
			642.8,298.5 643.2,298.5 643.2,296.7 645,296.7 		"/>
		<polygon class="st4" points="627,313.3 625.2,313.3 625.2,311.5 624.8,311.5 624.8,313.3 623,313.3 623,313.7 624.8,313.7 
			624.8,315.5 625.2,315.5 625.2,313.7 627,313.7 		"/>
		<circle class="st4" cx="556" cy="267" r="4"/>
		<path class="st4" d="M359,295.2c0,279-35.1,279-78.4,279c-22.4,0-42.6,0-56.8-38.5c-4.1-11.1-7.7-25.4-10.8-43.7
			c-6.8-41.3-10.8-103.4-10.8-196.7c0-35.9,4.2-71.1,10.8-103.9c3.1-15.8,6.8-31.1,10.8-45.6c4.9-17.8,10.2-34.6,15.6-49.9
			c3.6-10.3,7.2-20,10.8-28.9C266.4,25.6,280.6,0,280.6,0S359,141.1,359,295.2z"/>
		<g class="st1">
			<path d="M250.1,66.8v486.5h-10.8V95.7C242.9,85.4,246.6,75.7,250.1,66.8z"/>
		</g>
		
			<ellipse transform="matrix(0.1602 -0.9871 0.9871 0.1602 43.5198 436.3698)" class="st3" cx="278.2" cy="192.6" rx="43.1" ry="43.1"/>
		<path class="st6" d="M372.7,547.9c-9.6-23.6-21.9-27.6-29.9-27.3v-3.8H217.2v3.8c-8-0.4-20.3,3.7-29.9,27.3
			c-15.6,38.3,9.6,104.1,9.6,104.1s-13.4-91.8,31.2-92.4c3.9,5,8.6,9.3,14,12.7V597h72v-22.4c7-3.6,13.2-8.7,18-14.9
			c44.6,0.6,31.2,92.4,31.2,92.4S388.3,586.2,372.7,547.9z"/>
		<circle class="st6" cx="278.2" cy="192.6" r="33.5"/>
		<path class="st6" d="M846,201h-2c0.3,45.1,36.9,81.5,82,81.5v-2C882,280.5,846.3,244.9,846,201z"/>
		<path class="st6" d="M809,201h-2c0.3,65.5,53.5,118.5,119,118.5v-2C861.6,317.4,809.3,265.4,809,201z"/>
		<path class="st6" d="M771,201h-2c0.2,86.4,70.6,156.5,157,156.5v-2C840.7,355.5,771.2,286.2,771,201z"/>
	</g>
</g>
</svg>
