<?xml version="1.0" encoding="utf-8"?>
<!-- Generator: Adobe Illustrator 25.4.1, SVG Export Plug-In . SVG Version: 6.00 Build 0)  -->
<svg version="1.1" id="b5ecd551-b8d9-47b1-bd91-255ff33e7450"
	 xmlns="http://www.w3.org/2000/svg" xmlns:xlink="http://www.w3.org/1999/xlink" x="0px" y="0px" viewBox="0 0 1058 682.6"
	 style="enable-background:new 0 0 1058 682.6;" xml:space="preserve">
<style type="text/css">
	.st0{fill:#FFFFFF;}
	.st1{fill:#E6E6E6;}
	.st2{fill:#3F3D56;}
	.st3{fill:#2F2E41;}
	.st4{fill:#FFB8B8;}
	.st5{fill:#6C63FF;}
	.st6{fill:#A0616A;}
	.st7{fill:#D0CDE1;}
	.st8{fill:#F2F2F2;}
</style>
<g>
	<g>
		<g>
			<path class="st0" d="M-757.3,148.9c-1.5,0-2.9-0.9-3.6-2.3c-1-2.1-2-4.3-2.9-6.4c-0.9-2,0.1-4.4,2.1-5.3l2.1-0.9
				c0.5-0.2,1-0.3,1.6-0.3c0.5,0,1,0.1,1.5,0.3c1,0.4,1.8,1.2,2.2,2.1c0.9,2,1.8,4.1,2.8,6.1c0.9,2,0.1,4.4-1.9,5.3l-2.1,1
				C-756.2,148.7-756.8,148.9-757.3,148.9z"/>
		</g>
		<g>
			<path class="st0" d="M-481.9,245.6c-0.4,0-0.9-0.1-1.3-0.2c-1-0.3-1.8-1.1-2.3-2l-1-2.1c-1-2-0.2-4.4,1.8-5.4
				c4.1-2,8.1-4.1,12-6.4c0.6-0.4,1.3-0.5,2-0.5c0.3,0,0.7,0,1,0.1c1,0.3,1.9,0.9,2.4,1.9l1.1,2c1.1,1.9,0.4,4.4-1.5,5.5
				c-4.1,2.4-8.3,4.6-12.6,6.7C-480.7,245.5-481.3,245.6-481.9,245.6z M-457.6,231.6c-1.3,0-2.5-0.6-3.3-1.8l-1.3-1.9
				c-0.6-0.9-0.8-2-0.6-3c0.2-1,0.8-2,1.7-2.6c3.7-2.5,7.4-5.2,11-8c0.7-0.6,1.6-0.8,2.5-0.8c1.2,0,2.4,0.5,3.2,1.5l1.4,1.8
				c0.7,0.8,0.9,1.9,0.8,3c-0.1,1.1-0.7,2-1.5,2.7c-3.8,2.9-7.6,5.7-11.6,8.4C-456.1,231.4-456.8,231.6-457.6,231.6z M-435.7,214.4
				c-1.1-0.1-2.1-0.5-2.8-1.3l-1.5-1.7c-1.5-1.6-1.3-4.2,0.3-5.6c3.4-3,6.7-6.2,9.8-9.4c0.8-0.8,1.8-1.2,2.9-1.2c1,0,2,0.4,2.8,1.1
				l1.6,1.6c1.6,1.5,1.6,4.1,0.1,5.7c-3.3,3.4-6.8,6.7-10.3,9.9c-0.7,0.7-1.7,1-2.7,1C-435.6,214.4-435.6,214.4-435.7,214.4z
				 M-416,194.3c-0.9,0-1.9-0.3-2.6-0.9l-1.8-1.5c-1.7-1.4-1.9-4-0.5-5.6c2.9-3.4,5.7-7,8.4-10.7c0.6-0.9,1.6-1.4,2.6-1.6
				c0.2,0,0.4,0,0.6,0c0.8,0,1.7,0.3,2.4,0.8l1.9,1.4c1.8,1.3,2.2,3.8,0.9,5.6c-2.8,3.8-5.8,7.6-8.9,11.2c-0.7,0.8-1.7,1.3-2.7,1.4
				C-415.7,194.3-415.8,194.3-416,194.3z M-399.4,171.7c-0.7,0-1.5-0.2-2.1-0.6l-1.9-1.2c-0.9-0.6-1.5-1.5-1.8-2.5
				c-0.2-1,0-2.1,0.5-3c2.4-3.8,4.7-7.7,6.9-11.7c0.5-0.9,1.4-1.6,2.4-1.9c0.4-0.1,0.8-0.2,1.1-0.2c0.7,0,1.3,0.2,1.9,0.5l2,1.1
				c1.9,1.1,2.7,3.5,1.6,5.4c-2.3,4.2-4.7,8.3-7.2,12.3C-396.8,171.1-398,171.7-399.4,171.7z M-386,147.1c-0.6,0-1.1-0.1-1.7-0.4
				l-2.1-1c-2-0.9-2.9-3.3-2-5.3c1.9-4.1,3.6-8.3,5.2-12.5c0.6-1.6,2.1-2.6,3.7-2.6c0.5,0,0.9,0.1,1.4,0.3l2.2,0.8
				c1,0.4,1.8,1.1,2.2,2.1c0.4,1,0.5,2.1,0.1,3.1c-1.7,4.4-3.5,8.9-5.5,13.2c-0.4,1-1.2,1.7-2.2,2.1
				C-385.1,147-385.5,147.1-386,147.1z M-765.3,129.5c-1.7,0-3.2-1-3.8-2.7c-1.6-4.5-3-9.1-4.3-13.6c-0.6-2.1,0.7-4.3,2.8-4.9
				l2.2-0.6c0.3-0.1,0.7-0.1,1.1-0.1c0.7,0,1.4,0.2,2,0.5c0.9,0.5,1.6,1.4,1.9,2.4c1.2,4.4,2.6,8.7,4.1,13c0.4,1,0.3,2.1-0.2,3.1
				c-0.5,1-1.3,1.7-2.3,2l-2.2,0.8C-764.4,129.4-764.8,129.5-765.3,129.5z M-376.1,120.9c-0.4,0-0.8-0.1-1.2-0.2l-2.2-0.7
				c-2.1-0.6-3.3-2.9-2.7-5c1.3-4.3,2.5-8.7,3.5-13.1c0.2-1,0.9-1.9,1.8-2.5c0.6-0.4,1.4-0.6,2.1-0.6c0.3,0,0.6,0,0.9,0.1l2.2,0.5
				c2.2,0.5,3.5,2.6,3,4.8c-1.1,4.6-2.3,9.3-3.7,13.8c-0.3,1-1,1.9-1.9,2.4C-374.8,120.7-375.5,120.9-376.1,120.9z M-772.7,102.4
				c-0.8,0-1.5-0.2-2.2-0.7c-0.9-0.6-1.5-1.5-1.7-2.5c-0.9-4.7-1.7-9.4-2.4-14.1c-0.3-2.2,1.3-4.2,3.4-4.5l2.3-0.3
				c0.2,0,0.3,0,0.5,0c0.9,0,1.7,0.3,2.4,0.8c0.8,0.6,1.4,1.6,1.5,2.7c0.6,4.5,1.3,9,2.2,13.4c0.4,2.2-1,4.3-3.1,4.7l-2.3,0.5
				C-772.2,102.4-772.4,102.4-772.7,102.4z M-369.9,93.5c-0.2,0-0.4,0-0.6,0l-2.3-0.4c-2.2-0.3-3.7-2.4-3.3-4.6
				c0.7-4.5,1.3-9,1.7-13.5c0.1-1.1,0.6-2,1.4-2.7c0.7-0.6,1.6-0.9,2.6-0.9c0.1,0,0.2,0,0.4,0l2.3,0.2c2.2,0.2,3.8,2.1,3.6,4.3
				c-0.4,4.7-1,9.5-1.7,14.2c-0.2,1-0.7,2-1.6,2.6C-368.2,93.2-369,93.5-369.9,93.5z M-776.4,74.6c-2.1,0-3.9-1.6-4-3.8
				c-0.3-4.7-0.4-9.6-0.4-14.3c0-1.1,0.4-2.1,1.2-2.8c0.7-0.7,1.8-1.2,2.8-1.2c0,0,2.3,0,2.3,0c1.1,0,2.1,0.4,2.8,1.2
				c0.7,0.8,1.2,1.8,1.2,2.8c0,4.5,0.1,9.1,0.4,13.6c0.1,1.1-0.3,2.1-1,2.9c-0.7,0.8-1.7,1.3-2.8,1.3l-2.3,0.1
				C-776.2,74.6-776.3,74.6-776.4,74.6z M-369.8,65.5c-1.1,0-2.1-0.5-2.8-1.2s-1.1-1.8-1.1-2.9c0.1-4.5,0-9.1-0.2-13.6
				c-0.1-1.1,0.3-2.1,1-2.9s1.7-1.3,2.8-1.3l2.3-0.1c0.1,0,0.1,0,0.2,0c1,0,1.9,0.4,2.7,1c0.8,0.7,1.3,1.7,1.3,2.8
				c0.2,4.8,0.3,9.6,0.2,14.3c0,2.2-1.8,3.9-4,3.9C-367.5,65.6-369.8,65.5-369.8,65.5z M-773.9,46.7c-0.1,0-0.2,0-0.3,0l-2.3-0.2
				c-1.1-0.1-2-0.6-2.7-1.4s-1-1.9-1-2.9c0.4-4.7,0.9-9.5,1.6-14.2c0.2-1,0.7-2,1.6-2.6c0.7-0.5,1.5-0.8,2.4-0.8c0.2,0,0.4,0,0.6,0
				l2.3,0.3c2.2,0.3,3.7,2.3,3.4,4.5c-0.7,4.5-1.2,9-1.5,13.5C-770.1,45.1-771.8,46.7-773.9,46.7z M-371.1,37.8
				c-0.9,0-1.8-0.3-2.5-0.9c-0.8-0.7-1.4-1.6-1.5-2.7c-0.5-4.5-1.2-9-2.1-13.4c-0.2-1,0-2.1,0.6-3c0.6-0.9,1.5-1.5,2.6-1.7l2.3-0.4
				c0.3,0,0.5-0.1,0.8-0.1c1.9,0,3.6,1.3,3.9,3.3c0.9,4.7,1.6,9.4,2.2,14.1c0.3,2.2-1.3,4.2-3.5,4.4l-2.3,0.3
				C-370.8,37.8-371,37.8-371.1,37.8z M-769.9,19.3c-0.3,0-0.6,0-0.8-0.1l-2.2-0.5c-1-0.2-1.9-0.9-2.5-1.7c-0.6-0.9-0.8-2-0.5-3
				c1-4.6,2.2-9.3,3.5-13.9c0.5-1.8,2.1-2.9,3.8-2.9c0.4,0,0.7,0.1,1.1,0.2l2.2,0.6c2.1,0.6,3.3,2.8,2.7,5
				c-1.3,4.3-2.4,8.8-3.3,13.2C-766.4,18-768,19.3-769.9,19.3z M-376.3,10.6c-1.8,0-3.4-1.2-3.9-3c-1.1-4.4-2.5-8.7-3.9-13
				c-0.3-1-0.3-2.1,0.2-3.1s1.3-1.7,2.3-2l2.2-0.7c0.4-0.1,0.8-0.2,1.3-0.2c0.6,0,1.2,0.1,1.8,0.4c1,0.5,1.7,1.3,2,2.3
				c1.5,4.5,2.9,9.1,4.1,13.7c0.3,1,0.1,2.1-0.4,3c-0.5,0.9-1.4,1.6-2.4,1.9l-2.2,0.6C-375.6,10.5-376,10.6-376.3,10.6z M-762.2-7.3
				c-0.5,0-0.9-0.1-1.4-0.2l-2.2-0.8c-2.1-0.8-3.1-3.1-2.4-5.1c1.6-4.5,3.4-8.9,5.3-13.3c0.4-1,1.2-1.7,2.2-2.1
				c0.5-0.2,1-0.3,1.4-0.3c0.6,0,1.1,0.1,1.6,0.3l2.1,0.9c1,0.4,1.7,1.2,2.1,2.2c0.4,1,0.4,2.1-0.1,3.1c-1.8,4.1-3.5,8.4-5.1,12.6
				C-759-8.4-760.6-7.3-762.2-7.3z M-385.2-15.7c-0.5,0-1-0.1-1.5-0.3c-1-0.4-1.8-1.2-2.2-2.2c-1.7-4.2-3.6-8.3-5.6-12.4
				c-0.5-1-0.5-2-0.2-3.1c0.3-1,1.1-1.8,2-2.3l2.1-1c0.6-0.3,1.2-0.4,1.8-0.4c1.5,0,2.9,0.8,3.6,2.2c0.7,1.4,1.4,2.9,2.1,4.4
				c1.3,2.8,2.6,5.8,3.8,8.6c0.4,1,0.4,2.1,0,3.1c-0.4,1-1.2,1.8-2.2,2.2l-2.1,0.9C-384.2-15.8-384.7-15.7-385.2-15.7z M-751-32.7
				c-0.6,0-1.3-0.1-1.9-0.5l-2-1.1c-2-1-2.7-3.5-1.7-5.4c2.2-4.2,4.6-8.4,7.1-12.4c0.6-0.9,1.5-1.5,2.5-1.8c0.3-0.1,0.6-0.1,0.9-0.1
				c0.7,0,1.5,0.2,2.1,0.6l2,1.2c1.9,1.2,2.5,3.6,1.3,5.5c-2.4,3.8-4.6,7.8-6.8,11.8C-748.1-33.5-749.5-32.7-751-32.7z M-397.6-40.5
				c-0.3,0-0.7,0-1-0.1c-1-0.3-1.9-0.9-2.4-1.8c-2.3-3.9-4.7-7.8-7.3-11.5c-0.6-0.9-0.8-2-0.6-3c0.2-1,0.8-2,1.7-2.6l1.9-1.3
				c0.7-0.5,1.5-0.7,2.2-0.7c1.3,0,2.5,0.6,3.3,1.7c2.7,3.9,5.2,8,7.6,12.1c1.1,1.9,0.5,4.4-1.4,5.5l-2,1.2
				C-396.1-40.7-396.8-40.5-397.6-40.5z M-736.4-56.2c-0.8,0-1.6-0.2-2.3-0.8l-1.9-1.3c-0.9-0.6-1.4-1.6-1.6-2.6
				c-0.2-1,0.1-2.1,0.7-3c2.8-3.9,5.7-7.7,8.7-11.3c0.8-1,1.9-1.5,3.1-1.5c0.9,0,1.8,0.3,2.5,0.9l1.8,1.5c0.8,0.7,1.3,1.6,1.4,2.7
				c0.1,1.1-0.2,2.1-0.9,2.9c-2.9,3.5-5.7,7.1-8.3,10.8C-733.9-56.8-735.1-56.2-736.4-56.2z M-413.2-63.4c-1.2,0-2.4-0.5-3.1-1.5
				c-2.8-3.5-5.7-7-8.8-10.4c-1.5-1.6-1.4-4.2,0.3-5.6l1.7-1.5c0.7-0.7,1.7-1,2.7-1c0.1,0,0.1,0,0.2,0c1.1,0.1,2.1,0.5,2.8,1.3
				c3.2,3.5,6.3,7.2,9.2,10.9c0.7,0.8,1,1.9,0.8,2.9s-0.7,2-1.5,2.7l-1.8,1.4C-411.4-63.7-412.3-63.4-413.2-63.4z M-718.7-77.6
				c-1,0-2-0.4-2.8-1.1l-1.7-1.6c-0.8-0.7-1.2-1.7-1.2-2.8c0-1.1,0.4-2.1,1.1-2.9c3.3-3.4,6.7-6.8,10.2-10c0.8-0.7,1.7-1.1,2.7-1.1
				c1.1,0,2.2,0.4,2.9,1.3l1.6,1.7c0.7,0.8,1.1,1.8,1,2.9c0,1.1-0.5,2.1-1.3,2.8c-3.3,3-6.6,6.2-9.7,9.5
				C-716.6-78-717.7-77.6-718.7-77.6z M-431.8-83.9c-1,0-2-0.4-2.8-1.1c-3.3-3.1-6.7-6.2-10.1-9.1c-0.8-0.7-1.3-1.7-1.4-2.7
				s0.2-2.1,0.9-2.9l1.5-1.8c0.8-0.9,1.9-1.4,3.1-1.4c0.9,0,1.8,0.3,2.6,0.9c3.6,3,7.2,6.3,10.6,9.5c1.6,1.5,1.6,4.1,0.1,5.7
				l-1.6,1.7C-429.6-84.4-430.6-84-431.8-83.9C-431.7-83.9-431.7-83.9-431.8-83.9z M-698.3-96.3c-0.1,0-0.3,0-0.5,0
				c-1.1-0.1-2-0.7-2.7-1.5l-1.4-1.8c-1.4-1.7-1.1-4.2,0.6-5.6c3.7-3,7.6-5.8,11.5-8.5c0.7-0.5,1.5-0.7,2.3-0.7c0.2,0,0.5,0,0.7,0.1
				c1,0.2,2,0.8,2.6,1.7l1.3,1.9c1.3,1.8,0.8,4.3-1,5.6c-3.7,2.6-7.4,5.3-10.9,8.1C-696.5-96.6-697.4-96.3-698.3-96.3z M-453-101.7
				c-0.8,0-1.6-0.2-2.3-0.8c-3.7-2.7-7.5-5.2-11.3-7.6c-1.9-1.2-2.4-3.6-1.3-5.5l1.2-1.9c0.6-0.9,1.5-1.5,2.5-1.8
				c0.3-0.1,0.6-0.1,0.9-0.1c0.7,0,1.5,0.2,2.1,0.6c4,2.5,8,5.2,11.8,8c0.9,0.6,1.4,1.6,1.6,2.6s-0.1,2.1-0.7,3l-1.4,1.9
				C-450.5-102.3-451.8-101.7-453-101.7z M-675.5-112c-1.4,0-2.7-0.7-3.4-2l-1.2-2c-0.5-0.9-0.7-2-0.4-3c0.3-1,0.9-1.9,1.8-2.5
				c4.1-2.4,8.3-4.7,12.5-6.9c0.6-0.3,1.2-0.4,1.8-0.4c1.5,0,2.9,0.8,3.6,2.2l1,2.1c0.5,0.9,0.6,2,0.2,3.1c-0.3,1-1.1,1.8-2,2.3
				c-4,2-8,4.2-11.9,6.5C-674.1-112.2-674.8-112-675.5-112z M-476.5-116.4c-0.7,0-1.3-0.2-1.9-0.5c-4-2.1-8.1-4.1-12.2-6
				c-2-0.9-2.9-3.3-2-5.3l0.9-2.1c0.4-1,1.2-1.7,2.2-2.1c0.5-0.2,0.9-0.3,1.4-0.3c0.6,0,1.1,0.1,1.6,0.4c4.3,1.9,8.6,4.1,12.8,6.3
				c1.9,1,2.7,3.5,1.6,5.4l-1.1,2c-0.5,0.9-1.4,1.6-2.4,1.9C-475.7-116.5-476.1-116.4-476.5-116.4z M-650.7-124.5
				c-1.6,0-3-0.9-3.7-2.4l-0.9-2.1c-0.9-2,0.1-4.4,2.1-5.2c4.4-1.8,8.9-3.6,13.3-5.1c0.4-0.1,0.9-0.2,1.3-0.2c0.6,0,1.2,0.1,1.8,0.4
				c1,0.5,1.7,1.3,2,2.3l0.7,2.2c0.7,2.1-0.4,4.4-2.5,5.1c-4.3,1.5-8.5,3.1-12.7,4.9C-649.7-124.6-650.2-124.5-650.7-124.5z
				 M-501.7-127.8c-0.5,0-0.9-0.1-1.4-0.2c-4.2-1.6-8.6-3-12.9-4.3c-1-0.3-1.9-1-2.4-1.9c-0.5-0.9-0.6-2-0.3-3l0.7-2.2
				c0.5-1.7,2.1-2.9,3.8-2.9c0.4,0,0.8,0.1,1.1,0.2c4.6,1.3,9.1,2.9,13.6,4.5c2.1,0.8,3.1,3.1,2.4,5.1l-0.8,2.2
				C-498.6-128.8-500.1-127.8-501.7-127.8z M-624.5-133.5c-0.7,0-1.4-0.2-2-0.5c-0.9-0.5-1.6-1.4-1.9-2.4l-0.6-2.2
				c-0.6-2.1,0.7-4.3,2.8-4.9c4.6-1.2,9.3-2.3,13.9-3.2c0.3-0.1,0.5-0.1,0.8-0.1c0.8,0,1.6,0.2,2.2,0.7c0.9,0.6,1.5,1.5,1.7,2.5
				l0.4,2.3c0.2,1,0,2.1-0.6,3s-1.5,1.5-2.5,1.7c-4.4,0.9-8.9,1.9-13.2,3.1C-623.8-133.6-624.2-133.5-624.5-133.5z M-528.3-135.6
				c-0.3,0-0.6,0-0.9-0.1c-4.4-1-8.9-1.8-13.4-2.5c-1-0.2-2-0.7-2.6-1.6c-0.6-0.9-0.9-1.9-0.7-3l0.3-2.3c0.3-2,2-3.4,3.9-3.4
				c0.2,0,0.4,0,0.6,0c4.7,0.7,9.4,1.6,14.1,2.6c1,0.2,1.9,0.9,2.5,1.8c0.6,0.9,0.8,2,0.5,3l-0.5,2.2
				C-524.8-136.9-526.5-135.6-528.3-135.6z M-597.3-138.9c-0.9,0-1.7-0.3-2.5-0.8c-0.8-0.7-1.4-1.6-1.5-2.7l-0.3-2.3
				c-0.3-2.2,1.3-4.2,3.5-4.5c4.7-0.6,9.5-1,14.3-1.3c0.1,0,0.2,0,0.2,0c2.1,0,3.9,1.6,4,3.8l0.1,2.3c0.1,1.1-0.3,2.1-1,2.9
				c-0.7,0.8-1.7,1.3-2.8,1.3c-4.5,0.3-9.1,0.7-13.6,1.2C-597-138.9-597.2-138.9-597.3-138.9z M-555.7-139.8c-0.1,0-0.2,0-0.3,0
				c-4.5-0.4-9.1-0.6-13.6-0.6c-1.1,0-2.1-0.4-2.8-1.2c-0.7-0.8-1.1-1.8-1.1-2.8l0-2.3c0-2.2,1.8-3.9,4-3.9c0,0,0,0,0.1,0
				c4.8,0.1,9.6,0.3,14.3,0.7c2.2,0.2,3.8,2.1,3.7,4.3l-0.2,2.3C-551.9-141.4-553.7-139.8-555.7-139.8z"/>
		</g>
		<g>
			<path class="st0" d="M-501.5,254c-1.6,0-3.2-1-3.8-2.6l-0.8-2.2c-0.8-2.1,0.3-4.4,2.4-5.1c2.1-0.8,4.2-1.6,6.3-2.4
				c0.5-0.2,1-0.3,1.5-0.3c0.5,0,1.1,0.1,1.6,0.3c1,0.4,1.8,1.2,2.2,2.2l0.9,2.1c0.4,1,0.4,2.1,0,3.1c-0.4,1-1.2,1.8-2.2,2.2
				c-2.2,0.9-4.4,1.8-6.6,2.6C-500.5,253.9-501,254-501.5,254z"/>
		</g>
		<g>
			<path class="st0" d="M-948.4-85.3c-2.8,0-5.6-0.1-8.4-0.3c-1.8-0.1-3.3-1.5-3.6-3.3l-0.3-1.8l-0.4,1.1c-0.5,1.7-2.1,2.8-3.8,2.8
				c-0.3,0-0.6,0-0.9-0.1c-8.4-1.9-14.1-5.7-16.7-11.3c-5.4-11.4,2.5-26.9,11.6-44.8c1.8-3.5,3.6-7.2,5.4-10.8
				c13.1-27.2,33-29.3,38.7-29.3c0.9,0,1.6,0.1,1.9,0.1c2.3,0.1,25.5,1.9,37.7,22.5c8.5,14.4,7.5,31.6,6.7,45.5
				c-0.3,5.4-0.6,10.5-0.3,14.6c0.2,2.6-0.6,5.1-2.4,7c-5.9,6.6-21.1,7.2-47.5,7.8c-4.4,0.1-8.9,0.2-13.5,0.3
				C-945.4-85.3-946.9-85.3-948.4-85.3z"/>
		</g>
		<g>
			<path class="st0" d="M-983.4,306.3c-0.2,0-0.3,0-0.5,0l-16-2c-2-0.2-3.5-2-3.5-4v-26c0-1.9,1.4-3.6,3.3-3.9l16-3
				c0.2,0,0.5-0.1,0.7-0.1c0.9,0,1.8,0.3,2.6,0.9c0.9,0.8,1.4,1.9,1.4,3.1v31c0,1.1-0.5,2.2-1.4,3
				C-981.5,305.9-982.5,306.3-983.4,306.3z"/>
		</g>
		<g>
			<path class="st0" d="M-866.4,319.3c-0.7,0-1.3-0.2-1.9-0.5c-1-0.5-1.7-1.5-2-2.6l-6-24c-0.5-1.9,0.5-3.9,2.4-4.7l10-4
				c0.5-0.2,1-0.3,1.5-0.3c1.5,0,3,0.9,3.7,2.4l10,23c0.4,1,0.4,2.2,0,3.2c-0.4,1-1.3,1.8-2.3,2.2l-14,5
				C-865.5,319.2-866,319.3-866.4,319.3z"/>
		</g>
		<g>
			<path class="st0" d="M-965.4,2.3c-0.4,0-0.8-0.1-1.2-0.2l-13-4c-1.6-0.5-2.8-2-2.8-3.7l-2-55c0-1.3,0.5-2.5,1.6-3.3
				c0.7-0.5,1.6-0.8,2.4-0.8c0.4,0,0.8,0.1,1.2,0.2l19,6c1.8,0.6,2.9,2.3,2.8,4.1l-4,53c-0.1,1.2-0.7,2.3-1.7,3
				C-963.9,2.1-964.6,2.3-965.4,2.3z"/>
		</g>
		<g>
			<path class="st0" d="M-1004.4,33.3c-1.3,0-2.5-0.6-3.3-1.7c-6.8-9.6,6.6-21.6,8.6-23.3l17.4-16.4l1.7-3.4c0.5-1,1.3-1.7,2.4-2
				c0.4-0.1,0.8-0.2,1.2-0.2c0.7,0,1.3,0.2,1.9,0.5l15,8c1.2,0.7,2,1.9,2.1,3.3c0.1,1.4-0.6,2.7-1.7,3.5l-28.3,19.8v1.9
				c0,1.6-0.9,3-2.3,3.6l-13,6C-1003.3,33.2-1003.9,33.3-1004.4,33.3z"/>
		</g>
		<g>
			<path class="st0" d="M-903.4,33.3c-0.2,0-0.4,0-0.6,0l-77-12c-1.3-0.2-2.4-1-3-2.2c-0.6-1.2-0.6-2.5,0-3.7l9-17
				c0.7-1.3,2.1-2.1,3.5-2.1c0.1,0,0.2,0,0.4,0l68,6c2.1,0.2,3.6,1.9,3.6,4v23c0,1.2-0.5,2.3-1.4,3C-901.6,33-902.5,33.3-903.4,33.3
				z"/>
		</g>
		<g>
			<path class="st0" d="M-810.3,82.3c-15,0-24.8-20-26.6-24l-29.7-38.6c-0.2-0.3-0.4-0.7-0.6-1l-28-74c-0.8-2,0.2-4.3,2.3-5.1l23-9
				c0.5-0.2,1-0.3,1.5-0.3c0.6,0,1.1,0.1,1.6,0.4c1,0.4,1.7,1.3,2.1,2.3c2.9,7.8,7.2,19.3,7.8,20.6c1,1.9,7.6,27.1,13.1,48.2
				l29.5,47.2c5.1,6.1,16.1,20.5,12.8,28.5c-0.7,1.7-2.6,4.5-7.7,4.9C-809.5,82.3-809.9,82.3-810.3,82.3z"/>
		</g>
		<g>
			<circle class="st0" cx="-925.9" cy="-137.2" r="33"/>
		</g>
		<g>
			<path class="st0" d="M-936.4-64.7c-1.1,0-2.2-0.5-3-1.3c-3.7-4-15.4-17.8-13-26.1c0.8-2.7,2.9-4.7,5.9-5.5
				c6.5-1.8,8-15.5,8.1-20.1c0-2.2,1.8-4,4-4h26c1.2,0,2.4,0.5,3.1,1.5c0.8,0.9,1.1,2.2,0.8,3.4c-4.1,18.8,8.1,23.9,9.5,24.4
				c1.5,0.6,2.5,1.9,2.6,3.5s-0.8,3.1-2.2,3.8l-40,20C-935.2-64.8-935.8-64.7-936.4-64.7z"/>
		</g>
		<g>
			<path class="st0" d="M-902.4,18.3c-1,0-2.1-0.4-2.8-1.2c-4.3-3.7-40.9-7.5-72.4-8.8c-1.2-0.1-2.3-0.6-3-1.6c-0.7-1-1-2.2-0.7-3.4
				c0.1-0.5,1-3.9,3.6-6.7c-0.3-0.4-0.5-0.8-0.6-1.2c-0.3-1.1-0.2-2.2,0.4-3.1c1.5-2.6,4-7.4,4.7-9.3c0,0,0-0.1,0-0.1
				c-0.3-0.6-0.7-1.3-1-2.3c-1.5-4.6,0.9-7.2,2.2-8.5c0-0.6-0.1-1.5-0.2-2.4c-2.9-2-8.3-7-13-17.9c-1.7-4.2-2.3-8.8-1.9-13.2
				c1.2-14.1,10.2-26.3,23.4-31.6c0.1,0,0.2-0.1,0.2-0.1l21.2-7c0.4-0.1,0.8-0.2,1.3-0.2c1.3,0,2.6,0.7,3.4,1.8
				c3.1,4.8,8.1,7.8,13.8,8.3c2,0.2,3.9,0.3,5.6,0.3c10.4,0,12.8-3,13-3.4c0.4-1,1.1-1.8,2.1-2.2c0.5-0.2,1.1-0.3,1.6-0.3
				c0.6,0,1.2,0.1,1.7,0.4c0.2,0.1,17,8,23.9,11c8.5,3.7,15.3,14.9,16.4,27.3c1.1,12.1-19.8,22-27.6,25.3l-11.5,47
				c-0.3,1.4-1.4,2.5-2.8,2.9C-901.7,18.2-902.1,18.3-902.4,18.3z"/>
		</g>
		<g>
			<path class="st0" d="M-871.1,304.4c-3.5,0-5.3-2.7-6.9-5.2c-1.1-1.6-2.3-3.4-4-4.8c-1.6-1.3-4-3.2-38.6-94.2
				c-11.4-30.1-22.7-60.2-28.9-76.7c-8.9,41.8-20.4,98-20.1,104.7c2.6,7.8,3.1,42.7,3.1,43c0,1.4,0,2.2,0,2.8
				c-0.3,3.4-2.8,4.4-4.3,4.4c-1.4,0-2.4-0.7-2.9-1.1c-0.5-0.3-0.7-0.5-1.3-0.5c-0.4,0-0.8,0.1-1.4,0.2c-0.7,0.2-1.1,0.4-1.3,0.5
				c0,0.2,0.1,0.4,0.1,0.6c0.2,1.2,0.6,3-0.3,4.8c-1.4,2.9-5,3.1-8.5,3.1c-3.4,0-7.8-0.4-11-0.6c-1.7-0.1-3.4-0.3-4-0.3
				c-1.5,0-2.8-0.6-3.9-1.7c-2.5-2.7-2.5-8.8-2.1-13.5l1-221.5l-2.9-16.6c-0.2-1.3,0.2-2.7,1.2-3.6l28-27c0.7-0.7,1.7-1.1,2.8-1.1
				c0.1,0,0.2,0,0.4,0c1.2,0.1,2.2,0.7,2.9,1.7c6.5,9.1,48.2,14.8,73,16.3c1.9,0.1,3.4,1.5,3.7,3.3l2.8,16.6
				c10.9,10.3,6.1,25.9,4.4,30.4c11.3,58.8,36.9,192.6,36.9,195.6c0,2.9,1.4,6.4,4.3,10.8c2.3,3.4,3.4,5.1,2.3,7.4
				c-0.3,0.6-0.8,1.4-1.9,2c0,1.3,0.2,3.3,0.3,4.5c0.4,3.8,0.6,6.3-1.2,8.2c-1.2,1.2-2.8,1.9-15.4,5.7c-1.8,0.6-3.4,1-4.1,1.3
				C-869.8,304.3-870.4,304.4-871.1,304.4L-871.1,304.4z"/>
		</g>
		<g>
			<path class="st0" d="M-1022.4,333.3c-9.1,0-10.9-5.3-11.3-7.7c-1.4-8.7,10.1-22.5,14.4-24.9c1.7-1.6,6.7-10.6,10.2-18.2
				c0.7-1.4,2.1-2.3,3.6-2.3h10c4.9,0,12.7,7,16.8,11.2c0.8,0.8,1.2,1.8,1.2,2.8v21c0,1.5-0.9,2.9-2.2,3.6l-15.6,7.8
				C-997.3,328.2-1005.4,333.3-1022.4,333.3z"/>
		</g>
		<g>
			<path class="st0" d="M-824.6,350.6c-6,0-13.2-2.3-18.1-4.1c-6.7-2.5-9.5-4.2-10.8-5.5c-2.4-1.3-11-5-18.4-7.9
				c-1.7-0.7-2.7-2.4-2.5-4.2l2.3-20.6c0.1-1.2,0.8-2.2,1.8-2.9l8-5.3c0.5-3.7,2.3-7.5,6.3-8.5c0.4-0.1,0.8-0.1,1.2-0.1
				c1.7,0,5.7,0,25.1,22.8c3.4,2.2,19.5,13.5,17.3,27.7C-812.9,344.5-814.9,350.6-824.6,350.6C-824.6,350.6-824.6,350.6-824.6,350.6
				z"/>
		</g>
		<g>
			<path class="st0" d="M-941.9,202.5c-2.2,0-4-1.8-4-4V73.7c0-1.4,0.7-2.6,1.8-3.4c0.7-0.4,1.4-0.6,2.2-0.6c0.6,0,1.1,0.1,1.6,0.4
				l138.4,62.2l138.4-62.2c0.5-0.2,1.1-0.4,1.6-0.4c0.8,0,1.5,0.2,2.2,0.6c1.1,0.7,1.8,2,1.8,3.4v124.8c0,2.2-1.8,4-4,4H-941.9z"/>
		</g>
		<g>
			<path class="st0" d="M-801.7,149.8c-0.6,0-1.3-0.1-1.8-0.4l-140.3-72.1c-1.6-0.8-2.5-2.7-2.1-4.5c0.4-1.8,2-3.1,3.9-3.1h280
				c1.8,0,3.5,1.3,3.9,3.1c0.4,1.8-0.4,3.7-2.1,4.5l-139.7,72.1C-800.4,149.6-801,149.8-801.7,149.8z"/>
		</g>
		<g>
			<circle class="st0" cx="-801.7" cy="145.8" r="15.6"/>
		</g>
		<g>
			<path class="st0" d="M-922.4-158.3c-11.4,0-20.6-9.2-20.6-20.6s9.2-20.6,20.6-20.6c11.4,0,20.6,9.2,20.6,20.6
				S-911-158.3-922.4-158.3z"/>
		</g>
		<g>
			<path class="st0" d="M-927.6-162.7c-0.7,0-1.5,0-2.2-0.1c-5.5-0.6-10.4-3.3-13.8-7.5s-5-9.7-4.5-15.1
				c1.1-10.5,9.9-18.4,20.5-18.4c0.7,0,1.5,0,2.2,0.1c2,0.2,3.6,1.9,3.6,4c0,2-1.5,3.8-3.6,4c-6.4,0.7-11.3,6.1-11.3,12.5
				c0,6.5,4.8,11.9,11.3,12.5c2,0.2,3.6,1.9,3.6,4c0,2-1.5,3.8-3.6,4C-926.2-162.7-926.9-162.7-927.6-162.7z"/>
		</g>
		<g>
			<path class="st0" d="M-921.1-134.8c-1.7,0-3.2-1.1-3.8-2.7c-0.7,1-1.8,1.6-3.1,1.6c0,0-7.5,0.3-7.6,0.3c-0.8,0-1.5-0.2-2.1-0.6
				c-0.6,0.5-1.4,0.8-2.2,0.8c0,0-16.2,0.6-16.3,0.6c-1.2,0-2.3-0.5-3.1-1.4c-0.8-1-1.1-2.2-0.8-3.4l6.5-28.6
				c0.4-1.6,1.7-2.8,3.3-3.1l31.3-4.9c0.2,0,0.4,0,0.6,0c0.6,0,1.3,0.2,1.9,0.5l22.7,11.9c1.3,0.7,2.1,1.9,2.1,3.3l1.1,21.1
				c0.1,1.1-0.3,2.1-1.1,2.9c-0.7,0.8-1.8,1.3-2.8,1.3C-894.6-135.3-921.1-134.8-921.1-134.8z"/>
		</g>
		<g>
			<path class="st0" d="M-550.9,403.8c-2.2,0-4-1.8-4-4v-235c0-2.2,1.8-4,4-4h483c2.2,0,4,1.8,4,4v235c0,2.2-1.8,4-4,4H-550.9z"/>
		</g>
		<g>
			<path class="st0" d="M-550.9,198.8c-2.2,0-4-1.8-4-4v-30c0-2.2,1.8-4,4-4h483c2.2,0,4,1.8,4,4v30c0,2.2-1.8,4-4,4H-550.9z"/>
		</g>
		<g>
			<circle class="st0" cx="-480.9" cy="281.8" r="48"/>
		</g>
		<g>
			<path class="st0" d="M-364.9,268.3c-2.2,0-4-1.8-4-4v-7c0-2.2,1.8-4,4-4h240c2.2,0,4,1.8,4,4v7c0,2.2-1.8,4-4,4H-364.9z"/>
		</g>
		<g>
			<path class="st0" d="M-364.9,289.3c-2.2,0-4-1.8-4-4v-7c0-2.2,1.8-4,4-4h240c2.2,0,4,1.8,4,4v7c0,2.2-1.8,4-4,4H-364.9z"/>
		</g>
		<g>
			<path class="st0" d="M-364.9,310.3c-2.2,0-4-1.8-4-4v-7c0-2.2,1.8-4,4-4h145c2.2,0,4,1.8,4,4v7c0,2.2-1.8,4-4,4H-364.9z"/>
		</g>
		<g>
			<path class="st0" d="M-254.6,3.9c-3.2,0-6.6-0.7-9.9-2c-18.1-7-20-15.6-20.2-17.2c-0.1-0.9,0.1-1.9,0.6-2.6
				c0.1-0.1,6-9.9,7.8-29.9c0.1-1.1,0.6-2.1,1.4-2.7c0.7-0.6,1.6-0.9,2.5-0.9c0.1,0,0.3,0,0.4,0l35.5,3.7c1.2,0.1,2.3,0.8,2.9,1.8
				c0.7,1,0.8,2.2,0.5,3.4c-2.9,9.6-4.9,21.8-3.2,24.8c2,3.4,1.7,7.9-0.7,12.1C-239.7-1-245.7,3.9-254.6,3.9z"/>
		</g>
		<g>
			<path class="st0" d="M-205.6,337.7c-1.2,0-2.2-0.5-3-1.4l-19.6-22.4c-1.1-1.3-1.3-3.1-0.5-4.5c11.8-21.7,28.4-55.2,28.4-61.5
				c0-9.5,15-32.2,21.7-41.8l-19.8-12.7c-1-0.6-1.6-1.7-1.8-2.8s0.2-2.3,0.9-3.2c0.9-1,22.6-25.6,42.1-25.6c2.5,0,4.8,0.4,7,1.2
				c0.2,0.1,0.3,0.1,0.5,0.2c0.8,0.4,19.9,10.1,23.9,25.4c1.8,6.6,0.5,13.2-3.7,19.6c-8.6,13-25.2,38.3-37.6,57.2
				c-10.1,15.5-17.9,32.4-23,50.2l-2.4,8.1c-0.2,0.5-0.4,1-0.8,1.4l-9.3,11.2C-203.3,337.2-204.4,337.7-205.6,337.7
				C-205.6,337.7-205.6,337.7-205.6,337.7z"/>
		</g>
		<g>
			<path class="st0" d="M-282.2,411.4c-2,0-3.7-1.5-4-3.5l-9.3-76.5c-0.2-2.3-5.6-54.2-2.8-72.6l-0.9-37c0-1.7,1-3.3,2.6-3.9
				c0.3-0.1,8-2.9,17.4-2.9c8.3,0,15.3,2.1,20.9,6.2c1.1,0.8,1.7,2,1.6,3.4c0,1.1-0.9,26.4-1.9,36.6c-0.2,2.5,0.6,7.6,1.5,13.4
				c1.8,11.7,4.4,27.7,2.6,45.2c-1.6,16.7-1.4,33.7,0.6,50.4l3.7,33.9c0.1,1.1-0.2,2.1-0.9,3c-0.7,0.8-1.6,1.4-2.7,1.5l-28,2.8
				C-281.9,411.4-282,411.4-282.2,411.4z"/>
		</g>
		<g>
			<path class="st0" d="M-258.5,239.3c-1.8,0-3-1-5.4-2.9c-3.8-3-10.8-8.6-18-8.6c-4.9,0-9.3,2.6-13.4,8c-0.8,1-2,1.6-3.2,1.6
				c-0.3,0-0.6,0-0.9-0.1c-1.5-0.4-2.7-1.6-3-3.2l-12.1-64.4c0-0.1,0-0.2-0.1-0.4c0-0.4-1-10.1-1-20.3c0-16.2,2.2-23.9,7.3-25.8
				l52.3-19.6c0.5-0.2,0.9-0.3,1.4-0.3c0.3,0,0.5,0,0.8,0.1l43.9,8.4c0.5,0.1,1,0.3,1.4,0.6c0.2,0.1,16.6,10.7,33,22.8
				c30.5,22.5,34.8,30.7,35.1,35.4c0.1,1.2-0.4,2.3-1.2,3.2c-0.8,0.7-1.8,1.1-2.8,1.1c-0.1,0-0.3,0-0.4,0c0,0-1.2-0.1-3-0.1
				c-11.3,0-30.2,3.3-30.9,25.2c0,1.3-0.7,2.5-1.8,3.2c-0.7,0.4-1.4,0.7-2.2,0.7c-0.5,0-0.9-0.1-1.4-0.3
				c-0.2-0.1-22.4-8.4-27.9-10.2c-5.1-1.7-25.5-14.8-33.8-20.2c-3.1,3.1-8.5,10-8.5,19.2c0,5,0.1,11.4,0.2,17.5
				c0.4,22.9,0.2,25.4-0.6,27.2C-255.5,238.5-256.9,239.3-258.5,239.3C-258.5,239.3-258.5,239.3-258.5,239.3z"/>
		</g>
		<g>
			<path class="st0" d="M-250.4-28.1c-17.6,0-32-14.4-32-32s14.4-32,32-32s32,14.4,32,32S-232.8-28.1-250.4-28.1z"/>
		</g>
		<g>
			<path class="st0" d="M-311,142.3c-0.7,0-1.3-0.1-1.9-0.3c-1.1-0.4-4-1.3-4.8-4.2c-0.7-2.9,1.2-5,2.9-6.9c1-1.1,2.1-2.3,3.2-3.9
				c-2.4-0.1-6.1-0.7-9.7-3.2c-3.1-2-3.8-4.6-3.9-6.4c-0.4-5.9,5.9-11.3,10.5-15.3c0.5-0.4,1-0.9,1.5-1.3c-0.3-0.9-0.7-2.1-1-3.3
				c-8.6-26.8-19.4-64.7-14.3-84.5c7.1-27.3,46.8-35.3,48.4-35.6c0.3,0,0.5-0.1,0.8-0.1c1.8,0,3.4,1.2,3.9,3c1.2,4.5,6.3,6.7,15,6.7
				c5.8,0,11.5-1.1,14.2-1.7l2.3-4.5c0.7-1.4,2.1-2.2,3.6-2.2c0.1,0,0.1,0,0.2,0c0.9,0,1.8,0.4,2.5,1c0.7,0.3,3.7,1.5,13.7,3.4
				c6.9,1.3,14.6,5.4,22.9,12.3c7.2,6,10.8,15,9.7,24.3l-11.7,101.3c-0.2,1.4-1.1,2.7-2.4,3.2c-0.6,0.2-5.7,2.3-15.7,2.3
				c-8,0-16.8-1.4-26.2-4c-2.5-0.7-5.2-1.1-8.1-1.1c-14.4,0-30.5,8.9-41.2,14.8C-304.2,140.3-307.9,142.3-311,142.3z"/>
		</g>
		<g>
			<path class="st0" d="M-231.1,197.9c-1.4,0-2.8-0.4-4.1-1.2c-13.5-7.9-1.4-39.7,1.1-46c0.6-1.5,2.1-2.5,3.7-2.5h16.8
				c1.2,0,2.3,0.5,3.1,1.4c0.8,0.9,1.1,2.1,0.9,3.3c-0.1,0.4-1.9,10.8-5,21.3C-219.6,190.6-224.6,197.9-231.1,197.9z"/>
		</g>
		<g>
			<path class="st0" d="M-250.7,207.8c-0.1,0-0.3,0-0.4,0c-15.6-0.7-19.6-34.5-20.3-41.3c-0.2-1.6,0.7-3.2,2.1-3.9l14.9-7.8
				c0.6-0.3,1.2-0.5,1.8-0.5c0.5,0,1,0.1,1.5,0.3c1.1,0.5,1.9,1.4,2.3,2.5c2.8,8.8,11.3,38.2,4.6,47.4
				C-245.7,206.6-248.1,207.8-250.7,207.8z"/>
		</g>
		<g>
			<path class="st0" d="M-171.1,376.9c-16.9,0-38.4-21.8-40.1-23.6l-26-24.2c-1.2-1.1-1.6-2.9-1-4.5c9.6-23.5,14.3-23.7,16.2-23.8
				c0.1,0,0.2,0,0.2,0c4.1,0,5.5,4.1,6.8,8c1.8,5.5,3.5,9.7,7,9.7c1.3,0,2.8-0.4,4.6-1.3c1.2-1.2,3.9-3.4,7.4-3.4
				c2.8,0,6.7,1.4,9.1,8.1c3.3,9.1,12.4,21,13.3,22.1c3.9,4.4,15.9,19,12.5,27.4c-0.9,2.2-3.2,5-8.8,5.3
				C-170.3,376.9-170.7,376.9-171.1,376.9z"/>
		</g>
		<g>
			<path class="st0" d="M-287.7,452.3c-3.2,0-4.7-1.7-5.3-2.7c-3.6-6-3.5-16.7-1.1-21.6c0.8-1.6,2.2-3.2,3.8-5
				c1.8-2,5.3-5.9,4.6-7.3c-2.8-5.6-1-16.3,2.4-21.8c2.3-3.7,5-4.5,6.8-4.5c5,0,13.6,3.7,16.2,4.8c0.1,0,0.2,0,0.4,0c0,0,0,0,0,0
				c0.1,0,0.2,0,0.3,0c0.1-0.2,0.3-0.8,0.2-2c-0.1-1.4,0.6-2.8,1.8-3.6c0.7-0.4,1.4-0.6,2.2-0.6c0.6,0,1.3,0.2,1.9,0.5
				c3,1.6,17.9,9.9,20.2,19.4c0.7,3,0.2,5.9-1.5,8.3l-0.2,0.3c-9.6,13.7-22.8,24.5-38.1,31.3C-282.3,451.8-285.9,452.3-287.7,452.3z
				"/>
		</g>
		<g>
			<path class="st0" d="M-232-43.1c-0.3,0-0.7,0-1-0.1c-1.6-0.4-2.8-1.8-3-3.4l-2.6-23.1c-2.8,0.2-6.8,0.5-11.2,0.5
				c-6.8,0-12.5-0.6-17-1.7c-0.8-0.2-1.6-0.3-2.3-0.3c-5.5,0-6.6,7.5-6.7,7.9c-0.3,2-2,3.4-4,3.4c0,0,0,0-0.1,0
				c-2,0-3.7-1.5-3.9-3.5c0-0.4-1.2-10.7-0.4-17.8c1-8.9,11.9-16.5,30.7-21.4c2-0.5,4.1-0.8,6.1-0.8c14,0,22,12.8,24.2,16.8
				c9.3,6.1,8.2,23,6.2,31.5c-1.7,7.2-4.1,10.5-7.6,10.5c0,0,0,0,0,0c-1.1,0-2.1-0.4-3-1.1c0,0-0.1-0.1-0.1-0.1
				c-0.3,0.1-0.9,0.7-1.3,1.1C-229.5-43.7-230.7-43.1-232-43.1z"/>
		</g>
		<g>
			<path class="st0" d="M-266.2,177.7c-0.5,0-1-0.1-1.5-0.2c-2.1-0.5-3.2-1.7-3.7-2.6c-1-1.7-0.7-3.3-0.5-4.4
				c-2.8-1.2-7.7-4-7.9-7.9c0-0.8,0.1-1.5,0.4-2.2c-8.8-4.8-23.6-15.8-29.4-28.9c-3.5-8-13-34.8-19.2-60.5c-8.4-34.8-8-55.2,1.2-62
				c1.3-1.4,5-5.1,10.1-5.1c2.9,0,7.2,1.2,11.1,7.1c0.2,0.3,0.3,0.5,0.4,0.8c0.1,0.2,5.7,15.4,11,31.4c11.1,33.3,10.1,37.2,9.7,39.1
				c-0.9,3.5-0.6,4.5-0.5,4.7c0.1,0.2,0.8,0.7,1.4,1.1l0.3,0.2c2.6,1.7,6.5,9.5,11.8,23.3c2,4.9,5.3,11,7.1,12.3c4,3,5,8.8,5.2,11.7
				c9.5,9.9,8.6,13.5,6.4,15.7c0.1,0.2,0.5,0.7,1.4,1.4c8.1,6,7.8,9.2,7.7,10.3c-0.2,1.7-1.2,3.1-2.7,3.9c-0.3,0.2-1.5,1-2.6,1.8
				C-257.2,174.6-262.5,177.7-266.2,177.7z"/>
		</g>
		<g>
			<path class="st0" d="M-212.6,162.7c-0.4,0-0.8-0.1-1.2-0.2c-0.1,0-9.9-3.1-17.5-3.1c-1.5,0-2.7,0.1-3.8,0.3
				c-0.3,0.1-0.6,0.1-0.9,0.1c-1.3,0-2.5-0.6-3.2-1.6c-0.9-1.3-1-3-0.3-4.4c2.7-4.8,5.1-10.2,5.3-12.2c-0.2-0.3-0.5-0.6-0.8-0.9
				c-1.2-1.3-5-5.4-0.2-10.2c0.4-0.4,0.8-0.7,1.2-1c-1.5-3.3-1.3-9,0.6-18.5c1.4-7.2,3.4-13.9,3.7-15L-209.1,2
				c0.3-1.2,1-2.1,2.1-2.7c0.6-0.3,1.2-0.5,1.8-0.5c0.5,0,1,0.1,1.5,0.3l0.4,0.2c8.4,3.5,14.5,10.9,16.3,19.8
				c2.1,9.9,4.2,24.5,2.5,38.4c-2.7,22.6-4.6,34-8.8,42.4c-1.5,3.1-2.7,4.7-3.4,5.6c-0.1,0.1-0.2,0.2-0.2,0.3c0,0.4,0.1,1,0.3,1.9
				c0,0.2,0.1,0.3,0.1,0.4c0,0,0,0,0,0c0.6,0.3,2.2,1.2,2.8,3.2c0.6,2.4-0.6,4.5-2.5,7.6c-2,3.2-3.8,5-5,6.1
				c0.2,0.4,0.5,0.7,0.8,1.1c2.4,3.1,3.2,6.1-0.7,11c-2.4,3-2.9,4.5-3.4,5.8c-0.2,0.6-0.4,1.2-0.8,1.9c-0.5,1.2-2.1,8.7-3.4,14.9
				c-0.2,1.1-0.9,2.1-1.9,2.7C-211.2,162.5-211.9,162.7-212.6,162.7z"/>
		</g>
		<g>
			<path class="st0" d="M-481,332.5c-0.3,0-0.7,0-1,0c-0.7,0-1.3,0-2-0.1c-16.1-1.1-25-11.2-25-28.4c0-18.9,22.6-41.5,25.2-44
				c0,0,0.1-0.1,0.1-0.1c0.8-0.7,1.8-1.1,2.8-1.1c1,0,2,0.4,2.8,1.1c1,1,25.3,24.5,25.3,44.1C-452.9,322.2-463.2,332.5-481,332.5z"
				/>
		</g>
		<g>
			<path class="st0" d="M-482,332.5c-0.7,0-1.4,0-2-0.1c-2.2-0.2-3.8-2-3.7-4.2l0.9-17.9c0-0.2,0-0.5,0-0.7l0-0.1l-8.1-12.6
				c-1.2-1.8-0.7-4.3,1.1-5.5c0.7-0.5,1.5-0.7,2.2-0.7c1.2,0,2.5,0.6,3.3,1.7l2.3,3.2l0-0.9l-7-13.2c-1-1.9-0.4-4.2,1.5-5.3
				c0.6-0.4,1.3-0.6,2-0.6c1.3,0,2.6,0.6,3.4,1.8l0.7,1c0,0,0.4-15.7,0.4-15.7c0.1-2.2,1.8-3.9,4-3.9c0,0,0,0,0.1,0
				c2.2,0,3.9,1.8,3.9,4c0,0-0.1,11.5-0.1,11.5l0.4-0.5c0.8-0.9,1.9-1.4,3.1-1.4c0.9,0,1.7,0.3,2.4,0.8c1.7,1.3,2.1,3.7,0.8,5.5
				l-3.5,5c0.5,0.1,1,0.2,1.5,0.5c1.3,0.8,2.1,2.2,2,3.6c0.4,0.1,0.7,0.2,1.1,0.4c1.9,1.1,2.5,3.5,1.5,5.4l-9.8,17.9l0,1.4l1.3-1.9
				c0.8-1.1,2-1.7,3.3-1.7c0.8,0,1.6,0.2,2.2,0.7c1.8,1.2,2.3,3.7,1.1,5.5l-8.2,12.7l0,0.3c0,1.1-0.5,2.1-1.2,2.8
				C-479.9,332.1-480.9,332.5-482,332.5C-482,332.5-482,332.5-482,332.5z"/>
		</g>
		<g>
			<path class="st0" d="M-1077.9,260.4c-1.3,0-2.7-0.7-3.4-1.9c-0.5-0.8-5-8.6-6.6-24.3c-1.4-14.2-0.5-38.2,11.8-71.4
				c22.1-59.4-5-107.9-5.3-108.4c-1.1-1.9-0.4-4.4,1.5-5.5l1.4-0.8c0.6-0.4,1.3-0.5,2-0.5c1.4,0,2.7,0.7,3.5,2
				c0.1,0.1,7.6,13.3,12.1,34.1c5.8,27.5,3.7,56-6.1,82.4c-21.9,58.9-6.2,87.1-6,87.4c1.1,1.9,0.5,4.3-1.4,5.4l-1.4,0.8
				C-1076.4,260.2-1077.1,260.4-1077.9,260.4z"/>
		</g>
		<g>
			<circle class="st0" cx="-1086.8" cy="38.3" r="14.4"/>
		</g>
		<g>
			<circle class="st0" cx="-1053.9" cy="76.9" r="14.4"/>
		</g>
		<g>
			<circle class="st0" cx="-1076.4" cy="102.6" r="14.4"/>
		</g>
		<g>
			<circle class="st0" cx="-1049.1" cy="124.3" r="14.4"/>
		</g>
		<g>
			<circle class="st0" cx="-1084.4" cy="158" r="14.4"/>
		</g>
		<g>
			<path class="st0" d="M-1071.6,260.8c-1.6,0-3-1-3.6-2.5c-0.1-0.3-11.3-29.1,22.5-49.9c0.6-0.4,1.4-0.6,2.1-0.6c1,0,1.9,0.3,2.7,1
				c1.3,1.2,1.7,3.1,1,4.7l-20.9,45C-1068.6,259.9-1070,260.8-1071.6,260.8C-1071.6,260.8-1071.6,260.8-1071.6,260.8z"/>
		</g>
		<g>
			<path class="st0" d="M-1084.4,260.3c-0.8,0-1.5-0.2-2.2-0.6l-41.5-27.1c-1.5-1-2.1-2.8-1.7-4.5c0.5-1.7,2-2.9,3.8-2.9l0.5,0
				c39.3,0,44.9,30.1,45,30.4c0.3,1.6-0.4,3.1-1.7,4C-1082.9,260.1-1083.6,260.3-1084.4,260.3z"/>
		</g>
		<g>
			<path class="st0" d="M-674.9-77.8c-2.2,0-4-1.8-4-4v-152.6c0-2.2,1.8-4,4-4h274c2.2,0,4,1.8,4,4v152.6c0,2.2-1.8,4-4,4H-674.9z"
				/>
		</g>
		<g>
			<path class="st0" d="M-624.6-166.9c-2.2,0-4-1.8-4-4v-5.1c0-2.2,1.8-4,4-4h172.7c2.2,0,4,1.8,4,4v5.1c0,2.2-1.8,4-4,4H-624.6z"/>
		</g>
		<g>
			<path class="st0" d="M-624.6-146.7c-2.2,0-4-1.8-4-4v-5.1c0-2.2,1.8-4,4-4h172.7c2.2,0,4,1.8,4,4v5.1c0,2.2-1.8,4-4,4H-624.6z"/>
		</g>
		<g>
			<path class="st0" d="M-624.6-126.4c-2.2,0-4-1.8-4-4v-5.1c0-2.2,1.8-4,4-4h172.7c2.2,0,4,1.8,4,4v5.1c0,2.2-1.8,4-4,4H-624.6z"/>
		</g>
		<g>
			<path class="st0" d="M-674.9-213.2c-2.2,0-4-1.8-4-4v-17c0-2.2,1.8-4,4-4h274c2.2,0,4,1.8,4,4v17c0,2.2-1.8,4-4,4H-674.9z"/>
		</g>
		<g>
			<circle class="st0" cx="-663.7" cy="-225.2" r="10.2"/>
		</g>
		<g>
			<circle class="st0" cx="-646.9" cy="-225.2" r="10.2"/>
		</g>
		<g>
			<circle class="st0" cx="-630.1" cy="-225.2" r="10.2"/>
		</g>
		<g>
			<circle class="st0" cx="-535.9" cy="179.8" r="11"/>
		</g>
		<g>
			<circle class="st0" cx="-515.9" cy="179.8" r="11"/>
		</g>
		<g>
			<circle class="st0" cx="-495.9" cy="179.8" r="11"/>
		</g>
	</g>
</g>
<g>
	<path class="st1" d="M-757.4,136.5c0.9,2.1,1.8,4.2,2.8,6.3l-2.1,1c-1-2.1-1.9-4.2-2.8-6.3L-757.4,136.5z"/>
	<path class="st2" d="M-386.1-30.1c1.3,2.8,2.6,5.6,3.7,8.5l-2.1,0.9c-1.8-4.2-3.7-8.5-5.8-12.6l2.1-1
		C-387.5-33-386.8-31.6-386.1-30.1z M-394.9-46.7l-2,1.2c-2.3-4-4.8-7.9-7.4-11.7l1.9-1.3C-399.8-54.8-397.2-50.8-394.9-46.7z
		 M-377.5-8.5c1.5,4.4,2.9,8.9,4,13.4l-2.2,0.6c-1.2-4.4-2.5-8.9-4-13.3L-377.5-8.5z M-410.7-69.9l-1.8,1.4
		c-2.8-3.6-5.9-7.2-8.9-10.6l1.7-1.5C-416.6-77.2-413.5-73.6-410.7-69.9z M-370.3,18.6c0.9,4.6,1.6,9.2,2.2,13.9l-2.3,0.3
		c-0.6-4.6-1.3-9.2-2.1-13.7L-370.3,18.6z M-429.5-90.7l-1.6,1.7c-3.3-3.2-6.8-6.3-10.3-9.3l1.5-1.8
		C-436.3-97.1-432.8-93.9-429.5-90.7z M-367,46.4c0.2,4.7,0.3,9.4,0.2,14l-2.3,0c0.1-4.6,0-9.3-0.2-13.9L-367,46.4z M-451-108.7
		l-1.4,1.9c-3.7-2.7-7.6-5.3-11.5-7.8l1.2-1.9C-458.6-114-454.7-111.4-451-108.7z M-367.5,74.5c-0.4,4.6-1,9.3-1.7,13.9l-2.3-0.4
		c0.7-4.5,1.3-9.2,1.7-13.8L-367.5,74.5z M-474.7-123.5l-1.1,2c-4.1-2.2-8.2-4.2-12.4-6.1l0.9-2.1
		C-483-127.8-478.8-125.7-474.7-123.5z M-371.8,102.2c-1,4.5-2.2,9.1-3.6,13.6l-2.2-0.7c1.3-4.4,2.5-8.9,3.5-13.4L-371.8,102.2z
		 M-500.3-135l-0.8,2.2c-4.3-1.6-8.7-3.1-13.2-4.4l0.7-2.2C-509.1-138.2-504.6-136.7-500.3-135z M-379.9,129.1
		c-1.6,4.4-3.5,8.7-5.4,12.9l-2.1-1c1.9-4.2,3.7-8.5,5.3-12.8L-379.9,129.1z M-527.1-143l-0.5,2.2c-4.5-1-9.1-1.9-13.6-2.5l0.3-2.3
		C-536.3-144.9-531.7-144-527.1-143z M-391.6,154.5c-2.2,4.1-4.6,8.2-7.1,12.1l-1.9-1.2c2.5-3.9,4.8-7.9,7-12L-391.6,154.5z
		 M-554.9-147.2l-0.2,2.3c-4.6-0.4-9.3-0.6-13.9-0.7l0-2.3C-564.2-147.8-559.5-147.6-554.9-147.2z M-406.6,178.2
		c-2.8,3.7-5.7,7.4-8.7,11l-1.8-1.5c3-3.5,5.9-7.2,8.6-10.9L-406.6,178.2z M-582.9-147.5l0.1,2.3c-4.6,0.3-9.3,0.7-13.8,1.3
		l-0.3-2.3C-592.3-146.9-587.6-147.3-582.9-147.5z M-424.7,199.6c-3.2,3.3-6.7,6.6-10.1,9.7l-1.5-1.7c3.4-3.1,6.8-6.3,10-9.6
		L-424.7,199.6z M-610.8-144l0.4,2.3c-4.5,0.9-9.1,1.9-13.5,3.1l-0.6-2.2C-619.9-142.1-615.3-143.1-610.8-144z M-445.6,218.3
		c-3.7,2.9-7.5,5.6-11.4,8.2l-1.3-1.9c3.8-2.6,7.6-5.3,11.2-8.1L-445.6,218.3z M-637.8-136.7l0.7,2.2c-4.3,1.5-8.7,3.2-12.9,5
		l-0.9-2.1C-646.6-133.5-642.2-135.2-637.8-136.7L-637.8-136.7z M-468.8,233.9c-4,2.3-8.2,4.5-12.4,6.6l-1-2.1
		c4.1-2,8.3-4.2,12.2-6.5L-468.8,233.9z M-662.6-123.8c-4.1,2.1-8.2,4.3-12.2,6.7l-1.2-2c4-2.4,8.1-4.6,12.3-6.7L-662.6-123.8z
		 M-686.5-109.6c-3.8,2.6-7.5,5.4-11.1,8.3l-1.4-1.8c3.6-2.9,7.4-5.7,11.3-8.4L-686.5-109.6z M-708.1-92.4c-3.4,3.1-6.7,6.4-9.9,9.7
		l-1.7-1.6c3.2-3.4,6.6-6.7,10-9.8L-708.1-92.4z M-727.2-72.3c-2.9,3.5-5.8,7.2-8.5,11l-1.9-1.3c2.7-3.8,5.6-7.5,8.6-11.1
		L-727.2-72.3z M-743.4-49.8c-2.4,3.9-4.7,8-6.9,12l-2-1.1c2.2-4.1,4.5-8.2,7-12.2L-743.4-49.8z M-756.3-25.3
		c-1.9,4.2-3.6,8.5-5.2,12.9l-2.2-0.8c1.6-4.4,3.4-8.8,5.2-13L-756.3-25.3z M-765.8,0.8c-1.3,4.4-2.4,9-3.4,13.5l-2.2-0.5
		c1-4.5,2.1-9.1,3.4-13.6L-765.8,0.8z M-771.7,27.9c-0.7,4.6-1.2,9.2-1.5,13.8l-2.3-0.2c0.4-4.6,0.9-9.3,1.5-13.9L-771.7,27.9z
		 M-773.8,55.5c0,4.6,0.1,9.3,0.4,13.9l-2.3,0.1c-0.3-4.6-0.4-9.4-0.4-14L-773.8,55.5z M-772.1,83.2c0.6,4.6,1.4,9.2,2.3,13.7
		l-2.3,0.5c-0.9-4.6-1.7-9.2-2.3-13.8L-772.1,83.2z M-766.6,110.4c1.2,4.4,2.6,8.9,4.1,13.2l-2.2,0.8c-1.5-4.4-3-8.9-4.2-13.4
		L-766.6,110.4z"/>
	<path class="st1" d="M-495.2,244.3l0.9,2.1c-2.1,0.9-4.3,1.7-6.5,2.5l-0.8-2.2C-499.5,246-497.3,245.1-495.2,244.3z"/>
	<path class="st3" d="M-889.9-159.6c-11.6-19.6-34.6-20.5-34.6-20.5s-22.4-2.9-36.7,27c-13.4,27.8-31.8,54.7-3,61.2l5.2-16.2
		l3.2,17.4c4.1,0.3,8.2,0.4,12.4,0.2c30.9-1,60.4,0.3,59.4-10.8C-885.3-116-878.8-140.7-889.9-159.6z"/>
	<polygon class="st4" points="-982.8,270.2 -982.8,301.2 -998.8,299.2 -998.8,273.2 	"/>
	<polygon class="st4" points="-871.8,290.2 -865.8,314.2 -851.8,309.2 -861.8,286.2 	"/>
	<polygon class="st4" points="-979.8,-61.8 -977.8,-6.8 -964.8,-2.8 -960.8,-55.8 	"/>
	<path class="st4" d="M-975.8-10.8l-2,4l-18,17c0,0-13,11-8,18l13-6v-4l30-21L-975.8-10.8z"/>
	<polygon class="st4" points="-902.8,5.2 -902.8,28.2 -979.8,16.2 -970.8,-0.8 	"/>
	<path class="st4" d="M-867.8-66.8c0,0,7,19,8,21s13,48,13,48l30,48c0,0,22,26,8,27s-24-22-24-22l-30-39l-28-74L-867.8-66.8z"/>
	<circle class="st4" cx="-925.3" cy="-138.3" r="29"/>
	<path class="st4" d="M-933.8-118.8c0,0,0,21-11,24s9,25,9,25l40-20c0,0-17-6-12-29H-933.8z"/>
	<path class="st2" d="M-940.3-97.3L-940.3-97.3l-21.2,7c-11.7,4.7-19.8,15.7-20.9,28.3c-0.4,3.8,0.2,7.7,1.6,11.2c6,14,13,17,13,17
		s1,6,0,7s-3,2-2,5s2,2,1,5s-5,10-5,10s4,2,1,4s-4,6-4,6s68,3,75,10l12-49c0,0,28-11,27-22s-7-21-14-24s-24-11-24-11
		s-2.2,7.4-22.7,5.6C-930.3-87.8-936.5-91.5-940.3-97.3z"/>
	<path class="st3" d="M-900.8,21.2c0,0-66-4-76-18l-28,27l3,17l-1,222c0,0-1,11,2,11s19,2,20,0s-3-6,4-8s7,5,7-2s-1-37-3-42
		s23-120,23-120s66,178,71,182s6,10,9,9s17-5,18-6s-1-9,0-12s4,1,0-5s-5-10-5-13s-37-196-37-196s8-18-4-28L-900.8,21.2z"/>
	<path class="st3" d="M-980.8,293.2c0,0-10-10-14-10h-10c0,0-9,19-12,20s-23,25-5,25s25-6,25-6l16-8V293.2z"/>
	<path class="st3" d="M-867.4,307.6l-2.3,20.6c0,0,20,8,20,9s32,16,34,3s-16-24-16-24s-19.2-22.7-22.6-21.9
		c-3.4,0.9-3.4,6.9-3.4,6.9L-867.4,307.6z"/>
	<polygon class="st2" points="-661.3,197.4 -941.3,197.4 -941.3,72.6 -801.3,135.6 -661.3,72.6 	"/>
	<polygon class="st5" points="-941.3,72.6 -661.3,72.6 -801,144.7 	"/>
	<circle class="st1" cx="-801" cy="144.7" r="11.6"/>
	<circle class="st3" cx="-921.7" cy="-180" r="16.6"/>
	<path class="st3" d="M-940.1-184.4c0-8.5,6.4-15.6,14.9-16.5c-9.1-1-17.3,5.6-18.3,14.8s5.6,17.3,14.8,18.3c1.2,0.1,2.3,0.1,3.5,0
		C-933.6-168.8-940.1-175.9-940.1-184.4z"/>
	<polygon class="st3" points="-895.1,-161.5 -917.8,-173.4 -949.1,-168.5 -955.6,-139.9 -939.4,-140.5 -934.9,-151 -934.9,-140.7 
		-927.5,-140.9 -923.2,-157.7 -920.5,-139.9 -894,-140.4 	"/>
	<rect x="-550.3" y="163.7" class="st2" width="483" height="235"/>
	<rect x="-550.3" y="163.7" class="st5" width="483" height="30"/>
	<circle class="st1" cx="-480.3" cy="280.7" r="44"/>
	<rect x="-364.3" y="256.2" class="st1" width="240" height="7"/>
	<rect x="-364.3" y="277.2" class="st1" width="240" height="7"/>
	<rect x="-364.3" y="298.2" class="st1" width="145" height="7"/>
	<path class="st6" d="M-236.2-44.9c0,0-6.5,21.5-2.8,28s-6.5,20.5-23.3,14s-17.7-14-17.7-14s6.5-10.3,8.4-31.7L-236.2-44.9z"/>
	<path class="st6" d="M-150.8,165.6c0,0,33.6,16.8,18.7,39.2c-8.7,13-25.2,38.3-37.6,57.2c-10.3,15.8-18.3,33.1-23.5,51.3l-2.4,8.1
		l-9.3,11.2l-19.6-22.4c0,0,28.9-53.2,28.9-63.5s23.3-42.9,23.3-42.9l-23.3-14.9C-195.6,188.9-169.5,159-150.8,165.6z"/>
	<path class="st6" d="M-260,223.4c0,0-0.9,26.1-1.9,36.4c-0.8,8.5,6.7,32.2,4.1,58.6c-1.6,17.1-1.4,34.3,0.6,51.3l3.7,33.9l-28,2.8
		l-9.3-76.5c0,0-5.6-54.1-2.8-71.9l-0.9-37.3C-294.5,220.6-274,213.2-260,223.4z"/>
	<path class="st3" d="M-210.1,114.7c0,0,65.3,42,66.3,55.1c0,0-37.3-3.7-38.3,28.9c0,0-22.4-8.4-28-10.3s-35.5-21.5-35.5-21.5
		s-12.1,9.3-12.1,24.3s0.9,41.1,0,42.9s-22.4-25.2-40.1-1.9l-12.1-64.4c0,0-3.7-39.2,3.7-42l52.3-19.6L-210.1,114.7z"/>
	<circle class="st6" cx="-249.8" cy="-61.2" r="28"/>
	<path class="st7" d="M-242.8-12.2c0,0-31.6,8.3-35.9-7.5c0,0-38.8,7.5-45.3,32.7s15.9,85.9,15.9,87.7s-18.7,13.1-10.3,18.7
		s15.9-0.9,12.1,6.5s-10.3,9.3-4.7,11.2s39.2-27.1,65.3-19.6s39.2,1.9,39.2,1.9l11.7-101.3c0.9-7.9-2.2-15.7-8.3-20.8
		c-5.8-4.8-13.6-10-21.1-11.4c-14.9-2.8-15.6-4.3-15.6-4.3L-242.8-12.2z"/>
	<path class="st6" d="M-212.9,151.1c0,0-8.4,47.6-19.6,41.1s2.8-41.1,2.8-41.1L-212.9,151.1z"/>
	<path class="st6" d="M-251.9,157.3c0,0,14.6,46.1,1.6,45.5c-12.9-0.6-16.5-37.7-16.5-37.7L-251.9,157.3z"/>
	<path class="st3" d="M-200.3,319.5c0,0,6.5-7.5,10.3,2.8s14,23.3,14,23.3s22.4,25.2,6.5,26.1s-38.3-22.4-38.3-22.4l-26.1-24.3
		c0,0,8.7-21.1,12.7-21.3S-218,328.9-200.3,319.5z"/>
	<path class="st3" d="M-261,397c0,0,6.6,1.9,6.1-6c0,0,23.8,12.6,17.2,21.9c-0.1,0.1-0.1,0.2-0.2,0.3c-9.2,13.1-21.8,23.4-36.4,29.9
		c-7.2,3.2-13.6,5.3-14.7,3.4c-2.8-4.7-2.8-14-0.9-17.7s11.2-10.3,8.4-15.9s0.9-20.5,5.6-20.5S-261,397-261,397z"/>
	<path class="st3" d="M-225.3-84.9c0,0-9-19.5-26.3-15s-27,11.3-27.8,18C-280.1-75.2-279-65-279-65s1.9-13.9,13.9-10.9
		c12,3,30.8,0.8,30.8,0.8l3,27c0,0,3.4-4.9,7.1-1.9S-213.3-78.9-225.3-84.9z"/>
	<path class="st7" d="M-308.1,12.1c0,0,22.4,60.7,20.5,68.1s0,8.4,2.8,10.3s10.3,21.5,10.3,21.5s4.7,11.2,8.4,14s3.7,10.3,3.7,10.3
		s9.3,9.3,7.5,11.2c-1.9,1.9-1.9,4.7,1.9,7.5c3.7,2.8,7.5,6.5,5.6,7.5s-14.9,11.2-18.7,10.3s1.9-4.7-2.8-6.5s-7.5-4.7-5.6-5.6
		s7.5-0.9,1.9-2.8s-25.2-14-31.7-28.9s-37.8-105.3-18.9-118C-323.3,10.8-315.5,0.9-308.1,12.1z"/>
	<path class="st7" d="M-204.5,1.8l0.4,0.2c7.2,3,12.4,9.3,14,16.9c2,9.8,4,23.9,2.5,37.1c-2.8,23.3-4.7,33.6-8.4,41.1
		s-4.7,4.7-3.7,10.3s5.6,0.9,0.9,8.4s-7.5,5.6-5.6,9.3s4.7,3.7,0.9,8.4s-3.7,6.5-4.7,8.4s-3.7,15.9-3.7,15.9s-14.9-4.7-23.3-2.8
		c0,0,7.5-13.1,5.6-15.9s-4.7-3.7-1.9-6.5s7.5-1.9,2.8-4.7S-225,96-225,96L-204.5,1.8z"/>
	<path class="st2" d="M-456.3,303c0,18.1-10.8,24.5-24.1,24.5c-0.3,0-0.6,0-0.9,0c-0.6,0-1.2,0-1.8-0.1c-12-0.8-21.3-7.5-21.3-24.4
		c0-17.4,22.3-39.5,24-41.1l0,0c0.1-0.1,0.1-0.1,0.1-0.1S-456.3,284.9-456.3,303z"/>
	<path class="st8" d="M-481.2,324.7l8.8-12.3l-8.8,13.7l0,1.4c-0.6,0-1.2,0-1.8-0.1l0.9-18.1l0-0.1l0,0l0.1-1.7l-8.8-13.7l8.9,12.4
		l0,0.4l0.7-13.7l-7.6-14.1l7.7,11.7l0.7-28.4l0-0.1v0.1l-0.1,22.4l7.5-8.9l-7.6,10.8l-0.2,12.3l7-11.8l-7.1,13.6l-0.1,6.8
		l10.2-16.4l-10.3,18.8L-481.2,324.7z"/>
	<path class="st2" d="M-1077.2,255.3c-0.2-0.3-4.5-7.6-6-22.6c-1.4-13.8-0.5-37.1,11.6-69.6c22.9-61.6-5.3-111.3-5.6-111.8l1.4-0.8
		c0.1,0.1,7.3,12.8,11.6,33c5.7,26.7,3.6,54.5-6,80.2c-22.9,61.5-5.9,90.6-5.7,90.9L-1077.2,255.3z"/>
	<circle class="st5" cx="-1086.1" cy="37.2" r="10.4"/>
	<circle class="st2" cx="-1053.2" cy="75.8" r="10.4"/>
	<circle class="st5" cx="-1075.7" cy="101.5" r="10.4"/>
	<circle class="st5" cx="-1048.4" cy="123.2" r="10.4"/>
	<circle class="st2" cx="-1083.7" cy="156.9" r="10.4"/>
	<path class="st2" d="M-1070.9,255.7c0,0-10.4-25.7,20.9-45L-1070.9,255.7z"/>
	<path class="st2" d="M-1083.7,255.2c0,0-4.8-27.3-41.5-27.1L-1083.7,255.2z"/>
	<rect x="-674.3" y="-235.5" class="st2" width="274" height="152.6"/>
	<rect x="-623.9" y="-177.1" class="st0" width="172.7" height="5.1"/>
	<rect x="-623.9" y="-156.8" class="st0" width="172.7" height="5.1"/>
	<rect x="-623.9" y="-136.6" class="st0" width="172.7" height="5.1"/>
	<rect x="-674.3" y="-235.3" class="st5" width="274" height="17"/>
	<circle class="st1" cx="-663.1" cy="-226.3" r="6.2"/>
	<circle class="st1" cx="-646.3" cy="-226.3" r="6.2"/>
	<circle class="st1" cx="-629.4" cy="-226.3" r="6.2"/>
	<circle class="st0" cx="-535.3" cy="178.7" r="7"/>
	<circle class="st0" cx="-515.3" cy="178.7" r="7"/>
	<circle class="st0" cx="-495.3" cy="178.7" r="7"/>
</g>
</svg>
